<?xml version="1.0" encoding="utf-8"?>
<!-- Generator: Adobe Illustrator 15.1.0, SVG Export Plug-In . SVG Version: 6.00 Build 0)  -->
<!DOCTYPE svg PUBLIC "-//W3C//DTD SVG 1.1//EN" "http://www.w3.org/Graphics/SVG/1.1/DTD/svg11.dtd">
<svg version="1.1" id="Layer_1" xmlns="http://www.w3.org/2000/svg" xmlns:xlink="http://www.w3.org/1999/xlink" x="0px" y="0px"
	 width="2048px" height="2048px" viewBox="0 0 2048 2048" enable-background="new 0 0 2048 2048" xml:space="preserve">
<linearGradient id="SVGID_1_" gradientUnits="userSpaceOnUse" x1="-425.6294" y1="865.001" x2="-425.6297" y2="-1131.5601" gradientTransform="matrix(1 0 0 1 1452.6797 1155.4795)">
	<stop  offset="0" style="stop-color:#F15D22"/>
	<stop  offset="1" style="stop-color:#FAA31A"/>
</linearGradient>
<path fill="url(#SVGID_1_)" d="M2049,1022.2c0,74-117.4,133.7-133.101,202.899c-16.2,71.4,63.2,176.101,32.101,240.601
	c-31.601,65.5-163.301,68.5-208.2,124.8c-45.2,56.6-18.9,185.5-75.5,230.7c-56.3,44.899-176.101-9.2-241.7,22.5
	c-64.5,31.1-96.7,158.8-168.1,175.1c-69.2,15.7-153.5-85-227.4-85s-158.2,100.8-227.4,85c-71.5-16.2-103.699-144-168.1-175.1
	c-65.5-31.601-185.4,22.5-241.7-22.5c-56.6-45.2-30.3-174.101-75.5-230.7c-44.899-56.3-176.6-59.3-208.2-124.8
	c-31.1-64.5,48.3-169.101,32.1-240.601C122.5,1155.9,5.1,1096.2,5.1,1022.2s117.4-133.7,133.1-202.9
	c16.2-71.399-63.2-176.1-32.1-240.6c31.6-65.5,163.3-68.5,208.2-124.8c45.2-56.601,18.899-185.5,75.5-230.7
	c56.3-44.9,176.1,9.2,241.7-22.5C696,169.6,728.199,41.9,799.6,25.6c69.2-15.7,153.5,85,227.4,85c73.899,0,158.199-100.8,227.399-85
	c71.4,16.2,103.7,144,168.101,175.1c65.5,31.6,185.399-22.5,241.699,22.5c56.601,45.2,30.301,174.1,75.5,230.7
	c44.9,56.3,176.601,59.3,208.2,124.8c31.101,64.5-48.3,169.1-32.1,240.6C1931.6,888.5,2049,948.2,2049,1022.2z"/>
<path fill="#FFFFFF" d="M863.1,821.9h70.4c-10.601-123.801-114.301-221-240.601-221S463,698.1,452.3,821.9h72.6
	c11-83.801,82.5-148.5,169.101-148.5C780.6,673.3,852.1,738.1,863.1,821.9z"/>
<path fill="#FFFFFF" d="M1338.399,600.9c-126.3,0-229.899,97.199-240.6,221h72.5c11-83.801,82.5-148.5,169.1-148.5
	C1426,673.4,1497.5,738.1,1508.5,821.9h70.399C1568.3,698,1464.699,600.9,1338.399,600.9z"/>
<path fill="#FFFFFF" d="M857.199,1316.8c126.301,0,229.9-97.199,240.601-221h-72.5c-11,83.801-82.5,148.5-169.101,148.5
	c-86.6,0-158.1-64.699-169.1-148.5h-70.4C627.3,1219.6,730.899,1316.8,857.199,1316.8z"/>
<ellipse fill="none" stroke="#FFFFFF" stroke-width="40" stroke-miterlimit="10" cx="1027" cy="1022.2" rx="801.5" ry="782.3"/>
</svg>
