<?xml version="1.0" encoding="UTF-8" standalone="no"?>
<!-- Generator: Adobe Illustrator 15.1.0, SVG Export Plug-In . SVG Version: 6.00 Build 0)  -->

<svg
   xmlns:dc="http://purl.org/dc/elements/1.1/"
   xmlns:cc="http://creativecommons.org/ns#"
   xmlns:rdf="http://www.w3.org/1999/02/22-rdf-syntax-ns#"
   xmlns:svg="http://www.w3.org/2000/svg"
   xmlns="http://www.w3.org/2000/svg"
   xmlns:sodipodi="http://sodipodi.sourceforge.net/DTD/sodipodi-0.dtd"
   xmlns:inkscape="http://www.inkscape.org/namespaces/inkscape"
   version="1.1"
   id="Layer_1"
   x="0px"
   y="0px"
   width="2048px"
   height="2048px"
   viewBox="0 0 2048 2048"
   enable-background="new 0 0 2048 2048"
   xml:space="preserve"
   sodipodi:docname="chilter-logo-monochrome.svg"
   inkscape:version="0.92.1 r15371"><metadata
     id="metadata22"><rdf:RDF><cc:Work
         rdf:about=""><dc:format>image/svg+xml</dc:format><dc:type
           rdf:resource="http://purl.org/dc/dcmitype/StillImage" /><dc:title></dc:title></cc:Work></rdf:RDF></metadata><defs
     id="defs20" /><sodipodi:namedview
     pagecolor="#ffffff"
     bordercolor="#666666"
     borderopacity="1"
     objecttolerance="10"
     gridtolerance="10"
     guidetolerance="10"
     inkscape:pageopacity="0"
     inkscape:pageshadow="2"
     inkscape:window-width="1855"
     inkscape:window-height="1056"
     id="namedview18"
     showgrid="false"
     inkscape:pagecheckerboard="true"
     inkscape:zoom="0.32593203"
     inkscape:cx="1297.9235"
     inkscape:cy="916.4815"
     inkscape:window-x="65"
     inkscape:window-y="24"
     inkscape:window-maximized="1"
     inkscape:current-layer="Layer_1" /><linearGradient
     id="SVGID_1_"
     gradientUnits="userSpaceOnUse"
     x1="-425.6294"
     y1="865.001"
     x2="-425.6297"
     y2="-1131.5601"
     gradientTransform="translate(1452.6797,1155.4795)"><stop
       offset="0"
       style="stop-color:#F15D22"
       id="stop2" /><stop
       offset="1"
       style="stop-color:#FAA31A"
       id="stop4" /></linearGradient><path
     style="fill:#ffffff;fill-opacity:1"
     d="M 1240.0039 23.923828 C 1239.3091 23.915285 1238.6133 23.917072 1237.916 23.927734 C 1172.0907 24.93428 1095.1256 110.59961 1027 110.59961 C 953.1 110.59961 868.79961 9.8996106 799.59961 25.599609 C 728.19861 41.899609 696 169.59922 631.5 200.69922 C 565.9 232.39922 446.10078 178.29922 389.80078 223.19922 C 333.19978 268.39922 359.50078 397.29939 314.30078 453.90039 C 269.40078 510.20039 137.69961 513.19922 106.09961 578.69922 C 74.999606 643.19922 154.39922 747.90178 138.19922 819.30078 C 122.49922 888.50078 5.0996094 948.19928 5.0996094 1022.1992 C 5.0996094 1096.1992 122.50078 1155.9006 138.30078 1225.0996 C 154.50078 1296.5996 75.099216 1401.1992 106.19922 1465.6992 C 137.79922 1531.1992 269.50139 1534.2 314.40039 1590.5 C 359.60039 1647.099 333.30039 1775.9992 389.90039 1821.1992 C 446.20039 1866.1992 566.09961 1812.0982 631.59961 1843.6992 C 696.00061 1874.7992 728.19922 2002.6008 799.69922 2018.8008 C 868.89922 2034.6008 953.19964 1933.8008 1027.0996 1933.8008 C 1100.9996 1933.8008 1185.3 2034.5008 1254.5 2018.8008 C 1325.9 2002.5008 1358.0996 1874.7992 1422.5996 1843.6992 C 1488.1986 1811.9992 1608.0008 1866.0982 1664.3008 1821.1992 C 1720.9008 1775.9992 1694.6008 1647.1 1739.8008 1590.5 C 1784.6998 1534.2 1916.399 1531.1992 1948 1465.6992 C 1979.099 1401.1992 1899.6984 1296.4996 1915.8984 1225.0996 C 1931.5994 1155.9006 2049 1096.1992 2049 1022.1992 C 2049 948.19928 1931.5998 888.50078 1915.7988 819.30078 C 1899.5988 747.80078 1978.9994 643.19922 1947.8984 578.69922 C 1916.2994 513.19922 1784.5992 510.20039 1739.6992 453.90039 C 1694.5002 397.30039 1720.8002 268.39922 1664.1992 223.19922 C 1607.8992 178.19922 1488 232.29922 1422.5 200.69922 C 1358.099 169.59922 1325.7984 41.799609 1254.3984 25.599609 C 1249.668 24.519531 1244.8672 23.983627 1240.0039 23.923828 z M 1027 219.90039 C 1244.7408 219.90039 1453.6151 304.31051 1607.7148 454.71875 C 1761.8146 605.12699 1848.5 809.29374 1848.5 1022.1992 C 1848.5 1235.1047 1761.8146 1439.2734 1607.7148 1589.6816 C 1453.6151 1740.0899 1244.7408 1824.5 1027 1824.5 C 809.25922 1824.5 600.38487 1740.0899 446.28516 1589.6816 C 292.18544 1439.2734 205.5 1235.1047 205.5 1022.1992 C 205.5 809.29374 292.18544 605.12699 446.28516 454.71875 C 600.38487 304.31051 809.25922 219.90039 1027 219.90039 z M 1027 259.90039 C 819.59875 259.90039 620.74376 340.33258 474.22266 483.34375 C 327.70155 626.35492 245.5 820.14702 245.5 1022.1992 C 245.5 1224.2514 327.70155 1418.0455 474.22266 1561.0566 C 620.74376 1704.0678 819.59875 1784.5 1027 1784.5 C 1234.4013 1784.5 1433.2562 1704.0678 1579.7773 1561.0566 C 1726.2984 1418.0455 1808.5 1224.2514 1808.5 1022.1992 C 1808.5 820.14702 1726.2984 626.35492 1579.7773 483.34375 C 1433.2562 340.33258 1234.4013 259.90039 1027 259.90039 z M 692.89844 600.90039 C 819.19844 600.90039 922.899 698.09939 933.5 821.90039 L 863.09961 821.90039 C 852.09961 738.10039 780.60095 673.30039 694.00195 673.40039 C 607.40095 673.40039 535.90039 738.09939 524.90039 821.90039 L 452.30078 821.90039 C 463.00078 698.10039 566.59844 600.90039 692.89844 600.90039 z M 1338.3984 600.90039 C 1464.6984 600.90039 1568.2994 698.00039 1578.8984 821.90039 L 1508.5 821.90039 C 1497.5 738.10039 1425.9994 673.40039 1339.3984 673.40039 C 1252.7984 673.40039 1181.2988 738.09939 1170.2988 821.90039 L 1097.7988 821.90039 C 1108.4998 698.09939 1212.0984 600.90039 1338.3984 600.90039 z M 616.69922 1095.8008 L 687.09961 1095.8008 C 698.09961 1179.6018 769.59922 1244.3008 856.19922 1244.3008 C 942.80022 1244.3008 1014.3008 1179.6018 1025.3008 1095.8008 L 1097.8008 1095.8008 C 1087.0998 1219.6018 983.50022 1316.8008 857.19922 1316.8008 C 730.89922 1316.8008 627.30022 1219.6008 616.69922 1095.8008 z "
     id="path7" /></svg>