<svg xmlns="http://www.w3.org/2000/svg" width="2048" height="2048" viewBox="0 0 2048 2048"><g><circle fill="#fff" cx="1024" cy="1024" r="970"/><ellipse stroke="#F8973A" stroke-width="35" stroke-miterlimit="10" cx="1024" cy="1024" rx="969" ry="969.4" fill="none"/><linearGradient id="a" gradientUnits="userSpaceOnUse" x1="1024" y1="126.8" x2="1024" y2="1921.201"><stop offset="0" stop-color="#FFD022"/><stop offset="1" stop-color="#FAA71C"/></linearGradient><circle fill="url(#a)" cx="1024" cy="1024" r="897.2"/></g><g fill="#fff"><path d="M1402.2 1114.5c16.8-100.5-9.7-217-9.7-217h-252.9c1.1-21.6 1.8-46.7-11.4-49.1-2.9-.6-46.1-.8-87.1-.8v-64.8c33.7-6.8 58-45 67.3-90.9 12.2-60.2-27.5-160.2-37.5-159-11.3 1.4 3 22.8-16 56.5-21.2 37.6-85 54.5-96.5 83.5-25.4 64 10.2 96.5 48.3 107.2v67.4c-41.1 0-84.4.2-87.3.8-13.2 2.4-12.5 27.5-11.4 49.1h-252.6s-28.3 130.7-8.2 217h-298.8s7 236 201 420h947c193-187.9 204-420 204-420l-298.2.1z"/><circle cx="746.5" cy="713.8" r="57"/><circle cx="703.2" cy="606.5" r="18.7"/><circle cx="624.8" cy="509.5" r="49.3"/><circle cx="823.5" cy="432.5" r="41.7"/><circle cx="482.8" cy="736.6" r="44.9"/><circle cx="479.8" cy="958.2" r="37"/><path d="M1627.8 739.2c-9.3-10.1-31.6-18-60.3-23.6.2-29.8-16.7-66.6-94-114.1-91.5-44-134.5-59-186-77 32-12 62.5-18.5 82.5-28-2.5-26-4.5-45-10.5-56-32 5-142.5 11.6-167 33.7 6 42.3 10 66.3 21 113.7 49 45.7 294.9 37.3 312.6 121.7-89-9.2-203.3-.7-215.6 29.6l37 109.3c98.2.2 153.1-20 182.4-44 21.6 1 43.2 4.9 63.6 13-3 5.8-34 36.2-58 60.7 17 16.6 54.2 48.1 75.7 65 19.9-18.5 39.9-55.7 43.7-71.7-2.8-32.7-16.4-89-27.1-132.3z"/></g></svg>