<svg xmlns="http://www.w3.org/2000/svg" width="2048" height="2048" viewBox="0 0 2048 2048"><g><circle fill="#fff" cx="1024" cy="1026" r="970"/><ellipse stroke="#F8973A" stroke-width="35" stroke-miterlimit="10" cx="1024" cy="1026" rx="969" ry="969.4" fill="none"/><linearGradient id="a" gradientUnits="userSpaceOnUse" x1="1024" y1="128.841" x2="1024" y2="1923.241"><stop offset="0" stop-color="#BCD74E"/><stop offset="1" stop-color="#89C540"/></linearGradient><circle fill="url(#a)" cx="1024" cy="1026" r="897.2"/></g><g fill="#fff"><path d="M1398.5 504.2c40.9 55.6 72.9 116.8 95 181.8 9.1 26.8 16.6 54.3 22.4 82.4 41.3-5.7 76.4-19.2 104.5-34.1-58.2-118.8-151-217.6-265.3-283.2 15.5 17.1 29.9 34.9 43.4 53.1zM878 418.6c69 35.3 141.2 91.6 217.7 151.1 124.7 97.2 253.7 197.6 367.1 201.4 7.8.3 15.4.2 22.9-.1-5.5-25.7-12.3-50.9-20.7-75.4-37.3-109.7-102.4-205.4-193.7-285.2-75.8-30.3-158.5-46.9-245-46.9-70.8 0-139 11.1-202.9 31.7 17.2 5.8 35.4 13.6 54.6 23.4zM1633 761.6c-28.9 15.2-66.7 29.9-111.7 36.3 4.4 27 7.3 54.4 8.7 82.2 1.7 34.4 1.1 69.4-1.9 104.7 56.5 24 109.6 50.2 158.3 78.3.7-12.6 1.1-25.4 1.1-38.2.1-93.6-19.4-182.7-54.5-263.3zM1525 1016c-2.4 20-5.6 40-9.5 60-7 36-16.3 71.9-27.9 107.2 17 12.1 32.1 27.1 45 44.9 19.9 27.5 34.8 61.6 44.1 101.4 4 17.1 6.6 33.7 8.3 49.1 52.9-83.3 87.6-179.3 98.6-282.3-48.4-28.9-101.7-55.8-158.6-80.3zM658.5 1362.3c102.3-22.7 211.5-65.6 317.2-107.1 175.9-69.1 342.1-134.3 457.1-98.8 9.9 3.1 19.4 6.8 28.4 11.2 10.2-32.1 18.5-64.6 24.9-97.3 4.3-22.2 7.7-44.3 10.1-66.4-133.4-54.5-285.1-96.6-442.8-121.4-261.4-41.2-496.1-27.9-627.8 35.5-22.2 10.7-41.1 22.6-56.7 35.6-2.5 23.4-3.8 47.2-3.8 71.3 0 128.3 36.5 248 99.7 349.3 54.8 8.7 118.9 4.7 193.7-11.9zM1547.4 1335.6c-8.4-35.7-21.6-66.1-39.2-90.2-9.1-12.4-19.3-23.2-30.8-32.3-36.7 100.8-91 196.6-158.6 278.4-48.8 59-103.1 109.2-161.3 149.2-23.4 16.1-47.2 30.3-71.4 42.7 193.1-17.3 362.3-117.6 471.6-265-.6-22.1-3-51.9-10.3-82.8zM1140.5 1616c55.9-38.4 108.1-86.7 155.2-143.6 67-81 120.4-176.1 155.9-276.1-8.7-4.5-17.9-8.3-27.6-11.3-105-32.4-266.4 31-437.3 98.1-106.7 41.9-217 85.2-321.6 108.5-57.1 12.7-107.1 18.3-152.9 17-8.6-.2-17.1-.7-25.4-1.5 116.1 163.6 304.7 272.1 518.9 278.6 45.8-16.3 91-39.7 134.8-69.7zM412.6 890.9c69-33.2 166.1-54 280.8-60 110.3-5.8 236.4 1.8 364.7 22 156.5 24.7 307.4 66.1 440.9 119.8 2.2-30.7 2.5-61.1 1.1-91.1-1.4-27.3-4.3-54.3-8.7-80.8-6 .3-12 .5-18.2.5-3.7 0-7.5-.1-11.3-.2-123.1-4.1-256-107.6-384.5-207.7-75.3-58.7-146.5-114.1-212.9-148.1-34.5-17.6-64.9-28-92-31.2-205.8 85.7-359 272.3-397.7 498 11.5-7.5 24.1-14.6 37.8-21.2z"/></g></svg>