<svg xmlns="http://www.w3.org/2000/svg" width="2048" height="2048" viewBox="0 0 2048 2048"><g><circle fill="#fff" cx="1024.5" cy="1026.8" r="970"/><ellipse stroke="#F8973A" stroke-width="35" stroke-miterlimit="10" cx="1024.5" cy="1026.8" rx="969" ry="969.4" fill="none"/><linearGradient id="a" gradientUnits="userSpaceOnUse" x1="1024.499" y1="129.641" x2="1024.499" y2="1924.042"><stop offset="0" stop-color="#5DC8ED"/><stop offset="1" stop-color="#3C99D4"/></linearGradient><circle fill="url(#a)" cx="1024.5" cy="1026.8" r="897.2"/></g><path fill="#fff" d="M1043.5 1290.7v-993.4c-6.1-.2-12.1-.2-18.2-.2-396.8 0-718.4 321.6-718.4 718.4 0 62 7.9 122.2 22.6 179.5h656.3v95.6h-624.3c59.2 142.6 163 262 294 340.8h739.6c131-78.8 234.8-198.2 294-340.8h-645.6z"/><path fill="#fff" d="M1495 1195.1c10.8-37.7 16.5-77.5 16.5-118.6 0-238-192.9-430.9-430.9-430.9v549.6h414.4z"/></svg>