<svg xmlns="http://www.w3.org/2000/svg" width="2048" height="2048" viewBox="0 0 2048 2048"><g><circle fill="#fff" cx="1024" cy="1024" r="970"/><ellipse stroke="#F8973A" stroke-width="35" stroke-miterlimit="10" cx="1024" cy="1024" rx="969" ry="969.4" fill="none"/><linearGradient id="a" gradientUnits="userSpaceOnUse" x1="1024" y1="126.8" x2="1024" y2="1921.201"><stop offset="0" stop-color="#FFD022"/><stop offset="1" stop-color="#FAA71C"/></linearGradient><circle fill="url(#a)" cx="1024" cy="1024" r="897.2"/></g><g fill="#fff"><g><path d="M1030.5 643.5h35.2l-35.2-29.8zM1234 751.1l52.6 111.4 66.9-8.1-63-110zM1030.5 736.5h81.6l-37.9-81.4-43.7.7zM1030.5 872.1l115.1-2-26.6-112.2-88.5 1zM1087.8 654.7l46.4 80.9 70.7-5.1-72.8-78.2zM1175.5 897.6l10 128.6 108-7.2-15.2-127.3zM1077.7 643.1l36.9-2.7-69.8-29.6c1-.2 1.9-.4 2.8-.6l75.7 29.5 27.2-3.1-70-24-29.1-6.2c-.9-13.9-11.2-25.6-26.4-29.1v-374.8h-18.7v375c-14.9 4.4-24.1 18.6-24.2 29.3l-26.8 5.7-70 24 27.2 3.1 74.9-29.2c.9.2 2 .4 3 .6l-69.3 29.4 36.9 2.7 43.6-30.8c10.2.8 22.2.8 32.3-.1l43.8 30.9zM1354.9 1189.4l-65.8 9-52.6 102.5 50.8-6.9zM1204.9 1321.9l-74.6 3.9-41.4 63.2 42.4-2.7zM1389.1 1037.9l-72.9 8.9-19.6 124.7 66.8-8.3zM1295 1048.8l-109.7 7-9 123.2 99.9-5.4zM1030.5 1309.1l90.1-1.6 26.3-101.5-116.4 2.7zM1030.5 1182.1l120.5-2.1 7.3-123.1-127.8 2zM1142.1 756.9l29 112.3 97.8-5.3-49.1-111.4zM1177.4 1380.2l9.8-2.8 112.7-74.5-23.8 8.7zM1297.6 1291.6l18.4-6.9 74.2-108.4-26.2 10.3zM1218.6 729.1l50.5-6.3-99-74.8-30 3.7zM1400.1 1034.4l-25.9 125.6 25-10.1 24.9-124.9zM1032.5 1413.4l135-22.9.4-.3-45.1 3.5zM1397.4 1005.7l26.3-8.9-25.3-127.5-22 8.9zM1077.2 1396.9l-46.7 15.4v.8l70.3-17.8zM1221 1320.4l-78.1 64.8 27.6-3 94.7-67.9zM1112.2 1326.4l-81.7 1.4v62.4l43.7-.7zM1030.5 1409.2l28.3-11.8-28.3.5zM1386.5 840.7l-70.1-107.2-19.1 8.5 65.7 109.9zM1386.5 1008.2l-19.5-126.7-70.5 8.5 18 127.1zM1295.6 713.1l-109.3-71.3-11.2 5.2 100.5 74.1zM1164.8 630.3l-74-15.7 64.7 21.1zM1005.3 643.5v-29.8l-35.2 29.8zM801.8 751.1l-56.5-6.7-63 110 66.8 8.1zM923.7 736.5h81.6v-80.7l-43.7-.7zM890.2 870.1l115.1 2v-113.2l-88.5-1zM947.9 654.7l-44.2-2.4-72.8 78.2 70.7 5.1zM860.3 897.6l-102.8-5.9-15.2 127.3 107.9 7.2zM877.6 1027.3l127.7 2.7v-130l-119.1-1.2zM946.9 1389l-41.4-63.2-74.6-3.9 73.5 64.4zM672.4 1163.2l66.8 8.3-19.6-124.7-73-8.9zM915.1 1307.5l90.2 1.6v-100.4l-116.4-2.7zM884.8 1180l120.5 2.1v-123.2l-127.8-2zM735.9 1302.9l112.7 74.5 9.8 2.8-98.7-68.6zM671.8 1186.6l-26.2-10.3 74.2 108.4 18.4 6.9zM817.1 729.1l78.5-77.4-29.9-3.7-99 74.8zM867.8 1390.2l.5.3 135 22.9-90.3-19.7zM637.4 869.3l-25.3 127.5 26.2 8.9 21.1-127.5zM935 1395.3l70.3 17.8v-.8l-46.7-15.4zM814.8 1320.4l-44.2-6.1 94.7 67.9 27.5 3zM1005.3 1409.2v-11.3l-28.3-.5zM765.9 1200.2l49.9 102 80.3 4.5-31.3-101.6zM738.5 742l-19.1-8.5-70.1 107.2 23.4 11.2zM860.7 647l-11.3-5.2-109.2 71.3 20 8zM945 614.6l-74 15.7 9.3 5.4z"/></g><path d="M1377.7 1212.1l-61.2 90.8-148.6 94.5-151.4 29.1-158.1-29.1-142.9-94.5-91-131.4-31-165.8 32-159.2 75-112.8c-108.4-76.3-182.9-128.6-190-133.2-68.7 5.3-93.3 65.3-94 93.5 17.6 42.1 76.3 180 146 343.2-42.8 30.7-211.3 152-273 196.8 9 101.6 180 332.6 267 376.6 31.8-34.1 124.9-142.8 168.3-193.6 70.6 165.1 129 301.7 143 334.6 324 59 644.7-91 792.7-338.4-45.4-32.8-152-108.5-282.8-201.1z"/><path d="M1150.5 613.7s229.2-165.4 248.6-175.2c17.4 0 84.4 45 97.4 83-29 37-173 199.6-173 199.6l-7-13.6-141-88-25-5.8z"/><path d="M398.5 693c3-23 31-105 98-113.2-34.5-21.3-67-45.3-92-57.3-43.5-11-75.8 25.5-71 64 9.7 18.6 48 79.5 65 106.5z"/><path d="M1409.8 417.1c22.7 4.5 96.7 50.8 108.5 101.3 23.5-33 50.6-61.9 64.2-86 18-38.5-13.4-85.1-68.2-74.1-19.1 8.4-76.4 43.6-104.5 58.8z"/></g></svg>