<svg xmlns="http://www.w3.org/2000/svg" width="2048" height="2048" viewBox="0 0 2048 2048"><g><circle fill="#fff" cx="1024.5" cy="1026.8" r="970"/><ellipse stroke="#F8973A" stroke-width="35" stroke-miterlimit="10" cx="1024.5" cy="1026.8" rx="969" ry="969.4" fill="none"/><linearGradient id="a" gradientUnits="userSpaceOnUse" x1="1024.499" y1="129.641" x2="1024.499" y2="1924.042"><stop offset="0" stop-color="#5DC8ED"/><stop offset="1" stop-color="#3C99D4"/></linearGradient><circle fill="url(#a)" cx="1024.5" cy="1026.8" r="897.2"/></g><path fill="#fff" d="M1026 479.6c-295.2 0-534.6 239.3-534.6 534.6s239.3 534.6 534.6 534.6 534.6-239.3 534.6-534.6-239.3-534.6-534.6-534.6zm-190.9 331c-42.8 0-77.6-34.7-77.6-77.6s34.7-77.6 77.6-77.6 77.6 34.7 77.6 77.6-34.8 77.6-77.6 77.6zm175.1 177.2c-41.6 0-75.3-33.7-75.3-75.3 0-41.6 33.7-75.3 75.3-75.3s75.3 33.7 75.3 75.3c0 41.6-33.7 75.3-75.3 75.3zm56.3-247.6c-39.5 0-71.6-32-71.6-71.6s32-71.6 71.6-71.6 71.6 32 71.6 71.6-32 71.6-71.6 71.6z"/></svg>