<svg xmlns="http://www.w3.org/2000/svg" width="2048" height="2048" viewBox="0 0 2048 2048"><g><circle fill="#fff" cx="1009.5" cy="1026.1" r="970"/><ellipse stroke="#F8973A" stroke-width="35" stroke-miterlimit="10" cx="1009.5" cy="1026.1" rx="969" ry="969.4" fill="none"/><linearGradient id="a" gradientUnits="userSpaceOnUse" x1="1009.5" y1="128.94" x2="1009.5" y2="1923.341"><stop offset="0" stop-color="#B87CB5"/><stop offset="1" stop-color="#924A9C"/></linearGradient><circle fill="url(#a)" cx="1009.5" cy="1026.1" r="897.2"/></g><g fill="#fff"><path d="M1510.4 1484h-1004.0999999999999s-8.1 1-8.1 19c0 15.7 78.8 127.3 162.1 184 46-1 242.2-.5 327.9-.2v.2s7.4 0 20.2-.1c12.8 0 20.2.1 20.2.1v-.2c85.7-.3 281.9-.9 327.9.2 83.3-56.7 162.1-168.2 162.1-184-.1-18-8.2-19-8.2-19z"/><path d="M1503.4 1305c18-8.3 55-58.3 45-101-12-2-77.7-41-77.7-41s7.7 45.7-23.3 58c-53.5 21.3-104-36-104-36s-2.7 35.3-51 42c-74.3 10.2-145-67-145-67s-10 37-60 48.7l-119-52.7s-14 37-77 46-115-47-115-47-50 85-138 83c-50.1-1.1-44.5-89.2-44.5-89.2s-25.5 24-70.5 22.2c-18.7-.8-32-14-32-14s-69.7 77.7 21.5 143.6c23.9-11.1 332-7.5 400.5 4.9-2.5 11.5-77 17.6-149.5 40-54.2 16.8-104.8 43.3-141 69-48.7 5.5-106.2-70-110.4-112.7-89.6 77.2-22.8 146.2-22.8 146.2s963.8 2.1 1036.7 0c60-79.3-8.9-129-23-143zm-65.7 106c-37.3-10.7-52-35.3-106.7-61.3-68.5-32.6-116.8-34.5-119.3-46 70-4.8 267.1-9.2 286.6 2.2 2.8 20.1-51.9 108.8-60.6 105.1z"/><path d="M485.4 1093h1072.4s55.7 72 23.2 83l-126.2-73.5s17.7 83.5-20.3 85.5l-113-74s10.9 70.4-30 74c-89 8-137-74-137-74s-20 71-72 64l-119-71s16.5 65-82 65c-64 0-112-65-112-65s-66 121-122 99l-23-103.5s-67 46.5-98 35.5l-41.1-45z"/><path d="M1557.5 1031c-3-29.9-158.4-399-561.1-392.9v-277.1h-14.7v277.6c-374.1 15.9-521.7 363.1-524.6 392.4-3 30 19.5 27 19.5 27h1061.4s22.5 3 19.5-27zm-995.8 11.8c-16.4 13-37.3 14-46.7 2.2-9.4-11.8-3.7-32 12.7-45s37.3-14 46.7-2.2c9.4 11.9 3.7 32-12.7 45zm105.4-172.6c-12.5 9.9-28.2 10.8-35.1 2.1-6.9-8.7-2.4-23.8 10.1-33.7 12.5-9.9 28.2-10.8 35.1-2.1 6.9 8.7 2.4 23.8-10.1 33.7zm100.7 101.3c-18.8 2.6-35.7-7.3-37.7-22.2-2.1-14.9 11.4-29.1 30.2-31.7 18.8-2.6 35.7 7.3 37.7 22.2 2 14.8-11.5 29.1-30.2 31.7zm66.1-162.1c-25.6 1.7-47-7.7-47.9-21-.9-13.3 19.1-25.6 44.7-27.3 25.6-1.7 47 7.7 47.9 21.1.9 13.3-19.1 25.5-44.7 27.2zm137.9 89.9c-22 1.5-40.6-9.6-41.6-24.7s16-28.6 37.9-30c22-1.5 40.6 9.6 41.6 24.7 1.1 15.1-15.9 28.5-37.9 30zm87.8 111c-8.2 10.4-25.2 10.8-37.9.8s-16.3-26.6-8.1-37c8.2-10.4 25.2-10.8 37.9-.8s16.4 26.6 8.1 37zm19-253.3c-28.2 0-51-12.9-51-28.8s22.8-28.8 51-28.8 51 12.9 51 28.8-22.8 28.8-51 28.8zm211 234.2c-7.2 17.6-29.2 25.2-49.3 17-20.1-8.2-30.5-29-23.4-46.6 7.2-17.6 29.2-25.2 49.3-17 20 8.1 30.5 29 23.4 46.6zm-16.9-126.9c-19.6 7.5-39.8 2.2-45.2-11.8-5.4-14 6.2-31.4 25.8-38.9s39.8-2.2 45.2 11.8c5.3 14-6.2 31.4-25.8 38.9zm198.7 126.3c-6.3 9.2-20.1 10.7-30.8 3.4-10.7-7.3-14.3-20.7-8-29.9 6.3-9.2 20.1-10.7 30.8-3.4 10.7 7.3 14.3 20.7 8 29.9z"/><path d="M1007.9 514h310v18.5h-310z"/><path d="M1007.9 477h310v18.5h-310z"/><path d="M1317.9 380.5v-18.5h-310v95.5h310v-18.5h-175.5v-20.5h175.5v-18.5h-175.5v-19.5z"/></g></svg>