<svg xmlns="http://www.w3.org/2000/svg" width="2048" height="2048" viewBox="0 0 2048 2048"><g><circle fill="#fff" cx="1024" cy="1024" r="970"/><ellipse stroke="#F8973A" stroke-width="35" stroke-miterlimit="10" cx="1024" cy="1024" rx="969" ry="969.4" fill="none"/><linearGradient id="a" gradientUnits="userSpaceOnUse" x1="1024" y1="126.8" x2="1024" y2="1921.201"><stop offset="0" stop-color="#FFD022"/><stop offset="1" stop-color="#FAA71C"/></linearGradient><circle fill="url(#a)" cx="1024" cy="1024" r="897.2"/></g><path fill="#fff" d="M1500.7 905.7c-19.1-52.2-48.2-104.1-89.2-154.3-23.4-.2-97.6.1-193.7.6 14-23.8 23.8-54.1 20.5-82.7-6.8-58.6-78.3-85.5-117.7-123.2-37.6-36-9.6-90.1 8-116-31 11.1-110.1 43.5-102.1 150.8 5.6 75.5 126.2 97.8 114.6 171.5-39.2.2-80.5.5-122.2.7-.4-4.9-.7-9.7-.9-14.5-1-24.5-48.2-47.6-76.5-74-29-27-12.5-64 0-82.4-22 7.9-68.7 30.3-69 100-.1 33.9 20.2 35.7 53.2 71.4-141.2.8-275.4 1.5-344.2 1.4-295.5 409.6 46.5 778.6 251 825.5 164 4 208 2.6 328 0 116.3-31.7 232.1-129.7 302.2-258.3 103.7 79 241.8-23.7 263.3-207.1 18.6-159-87.7-310.5-225.3-209.4zm124.8 188.4c-2.4 83.1-62.7 130.4-119.1 124.9 21.7-70.1 29.4-145.5 17.8-222 57-22.1 103.5 18.9 101.3 97.1z"/></svg>