<svg xmlns="http://www.w3.org/2000/svg" width="2048" height="2048" viewBox="0 0 2048 2048"><g><circle fill="#fff" cx="1024.5" cy="1026.8" r="970"/><ellipse stroke="#F8973A" stroke-width="35" stroke-miterlimit="10" cx="1024.5" cy="1026.8" rx="969" ry="969.4" fill="none"/><linearGradient id="a" gradientUnits="userSpaceOnUse" x1="1024.499" y1="129.641" x2="1024.499" y2="1924.042"><stop offset="0" stop-color="#5DC8ED"/><stop offset="1" stop-color="#3C99D4"/></linearGradient><circle fill="url(#a)" cx="1024.5" cy="1026.8" r="897.2"/></g><path fill="#fff" d="M1723.6 1165.7l-26.5 54.2c-30.9-185.3-138.6-584.6-523.3-715.3-23.3 10.1-45 21.9-64.9 35.3-34.8 23.5-65.2 52.7-90.4 86.9-23.8 32.3-43.7 69.9-59.2 111.9-14.5 39.4-25.6 83.9-33 132.1-24.5 160.9-6.4 347 21.5 529.8 62 12.7 119 19.2 164.7 16 23.5-1.6 48.4-3.9 74.2-6.8-96.7-236-54.2-566.3 127.8-583.3 155.2-14.4 341.2 194.1 333.6 484.7 22.2-7.8 41.9-15.8 58.5-23.6-.1-1.3-.3-2.7-.5-4.1l25.5-53.9 19 20 27-24-54-59.9zM893.7 865.9c7.7-50.5 19.3-97.1 34.6-138.6 16.6-45 38-85.4 63.7-120.1 27.5-37.2 60.6-69 98.5-94.6 9.1-6.2 18.6-12 28.4-17.5-412.2-4.6-655.2 232.1-736.2 607.5l-30.2-61.9-54 60 27 24 19-20 27 57c33.9 49.7 312.6 177.6 541.8 231.4-27.2-181.4-44.1-365.8-19.6-527.2z"/></svg>