<svg xmlns="http://www.w3.org/2000/svg" width="2048" height="2048" viewBox="0 0 2048 2048"><g><circle fill="#fff" cx="1024" cy="1024" r="970"/><ellipse stroke="#F8973A" stroke-width="35" stroke-miterlimit="10" cx="1024" cy="1024" rx="969" ry="969.4" fill="none"/><linearGradient id="a" gradientUnits="userSpaceOnUse" x1="297.5" y1="2526.201" x2="297.5" y2="731.8" gradientTransform="matrix(1 0 0 -1 726.5 2653)"><stop offset="0" stop-color="#F27FA2"/><stop offset="1" stop-color="#EF4867"/></linearGradient><circle fill="url(#a)" cx="1024" cy="1024" r="897.2"/></g><g fill="#fff"><path d="M489 735l-84.7-7.3s-157.2 566.4 314.7 895.3h56s-350-342-286-888z"/><path d="M721 753.7l-88-7.3s-70.9 537.3 225 872h87s-240.8-260.6-224-864.7z"/><path d="M1593 757.1l-837.4-.1s-38.6 546 236.1 862h331.3s364-305.9 270-861.9zm-397.7 44l12.7-25.7 12.7 25.7 28.3 4.1-20.5 20 4.8 28.2-25.3-13.4-25.3 13.3 4.8-28.2-20.5-20 28.3-4zm-39.6 400.6l8 .7 35.5 84.7h-43.2l-.3-85.4zm38.9-191.5c0-13 10.5-23.5 23.5-23.5s23.5 10.5 23.5 23.5-10.5 23.5-23.5 23.5c-12.9 0-23.5-10.5-23.5-23.5zm-76.4 276.5c-13.4-.2-26-.4-37.8-.8l30.6-84.2 10 .7-2.8 84.3zm115.1 113.7l-25.3-13.4-25.3 13.3 4.8-28.2-20.5-20 28.3-4.1 12.7-25.7 12.7 25.7 28.3 4.1-20.5 20 4.8 28.3zm2.4-113c-8.6-21.4-27.6-69.2-33.7-88.4 70 10 70.8-51.5 70.8-51.5s48.3 6.8 64.3 11.8c.7 11.2 12.9 17.7 31 17.7 45.9 0 42.5-47.5 42.5-60.8 0-51.8-14-69.2-37.5-69.2-36.2 0-41 20-40 24-2 1-50 11-59.5 9.2-2.9-2.9-2-9.6-4.1-17.4 13.7-13.4 22.2-32 22.2-52.6 0-40.6-32.9-73.5-73.5-73.5s-73.5 32.9-73.5 73.5c0 4.7.5 9.4 1.3 13.8-7.7 0-14.9 0-21.7.1.9-4.5 1.3-9.2 1.3-13.9 0-40.6-32.9-73.5-73.5-73.5s-73.5 32.9-73.5 73.5c0 26.5 14.1 49.8 35.2 62.7-25.1 139.4 58.2 127.1 58.2 127.1l-31.8 83.5c-114.4-10.1-137.2-49.7-137.2-204.5 0-186 70-192 304-192 200 0 290-20 290 210 0 210.9-102 193.6-261.3 190.4zm-160-277.2c0 13-10.5 23.5-23.5 23.5s-23.5-10.5-23.5-23.5 10.5-23.5 23.5-23.5 23.5 10.5 23.5 23.5z"/><path d="M411 689l312 28h894s8.3-22.6-24-28c-24-4-56 14-56 14s78.3-58.3 23.6-113c-62.3-62.3-131.6 29-131.6 29s38-85.3-7.3-116c-40.7-27.6-74.7 8-74.7 8s15.7-86.7-67.7-86.7c-74.4 0-87 82-87 82s3.3-97.3-46.7-103.3-60.7 40-84.7 46-23.3-58-88-58c-61.7 0-77.6 76.7-94.7 76.7-26 0-6-99.3-93.1-99.3-104.4 0-131.9 181.3-136.6 189.3-7.1 12.1-15-64.7-89.7-48-78.7 17.6-56.7 127.3-69 134-8.5 4.6 9-2.7-31-2.7l-47.8 48z"/></g></svg>