<svg xmlns="http://www.w3.org/2000/svg" width="2048" height="2048" viewBox="0 0 2048 2048"><g><circle fill="#fff" cx="1024" cy="1024" r="970"/><ellipse stroke="#F8973A" stroke-width="35" stroke-miterlimit="10" cx="1024" cy="1024" rx="969" ry="969.4" fill="none"/><linearGradient id="a" gradientUnits="userSpaceOnUse" x1="297.5" y1="2526.201" x2="297.5" y2="731.8" gradientTransform="matrix(1 0 0 -1 726.5 2653)"><stop offset="0" stop-color="#F27FA2"/><stop offset="1" stop-color="#EF4867"/></linearGradient><circle fill="url(#a)" cx="1024" cy="1024" r="897.2"/></g><g><g><path stroke="#fff" stroke-width="34" stroke-miterlimit="10" d="M1181.1 1259.8l11.5-691.1s286-6.6 197.5-4.5c-88.5 2 188.8 7.4 188.8 7.4s98 110.5 98 342.2c0 274.2-98 334-98 334l-397.8 12z" fill="none"/><ellipse transform="matrix(-.953 .303 -.303 -.953 3132.55 1010.351)" fill="#fff" cx="1487.9" cy="748.1" rx="72.3" ry="96.7"/><ellipse transform="matrix(-.974 .225 -.225 -.974 3185.451 1693.87)" fill="#fff" cx="1496.3" cy="1028.2" rx="87.8" ry="112.9"/><path stroke="#fff" stroke-width="34" stroke-miterlimit="10" d="M873.9 1259.8l-11.5-691.1s-286-6.6-197.5-4.5c88.5 2-188.8 7.4-188.8 7.4s-98 110.5-98 342.2c0 274.2 98 334 98 334l397.8 12z" fill="none"/><ellipse transform="matrix(.953 .303 -.303 .953 253.267 -136.603)" fill="#fff" cx="567" cy="748.2" rx="72.3" ry="96.7"/><ellipse transform="matrix(.974 .225 -.225 .974 245.311 -99.238)" fill="#fff" cx="558.6" cy="1028.1" rx="87.8" ry="112.9"/></g><path fill="#fff" d="M1156.3 928.4c-13.3-9.6-89.5-67.1-126.8-95.2 5.1-9.3 10-19.9 14.1-31.5 18-50.7-155.3-167.7-210.3-175.1-112.3-7.6-148 99.4-129.7 150 19.1 69.3 209.5 157.5 235 153 9.9-1.8 14.7-3.6 19.4-7.6l98 73.1v578l65-6v-527l132 87s29-22 37-36l17-37s-132.3-109.9-150.7-125.7z"/></g></svg>