<?xml version="1.0" encoding="utf-8"?>
<!-- Generator: Adobe Illustrator 16.0.0, SVG Export Plug-In . SVG Version: 6.00 Build 0)  -->
<!DOCTYPE svg PUBLIC "-//W3C//DTD SVG 1.1//EN" "http://www.w3.org/Graphics/SVG/1.1/DTD/svg11.dtd">
<svg version="1.1" id="Layer_1" xmlns="http://www.w3.org/2000/svg" xmlns:xlink="http://www.w3.org/1999/xlink" x="0px" y="0px"
	 width="2048px" height="2048px" viewBox="0 0 2048 2048" enable-background="new 0 0 2048 2048" xml:space="preserve">
<g id="GREEN_x5F_CHILL">
	<circle id="WHITE_x5F_BACK_3_" fill="#FFFFFF" cx="1024" cy="1026" r="970"/>
	
		<ellipse id="ORANGE_x5F_CIRCLE_3_" fill="none" stroke="#F8973A" stroke-width="35" stroke-miterlimit="10" cx="1024" cy="1026" rx="969" ry="969.4"/>
	
		<linearGradient id="INSIDE_x5F_COLOUR_1_" gradientUnits="userSpaceOnUse" x1="1023.9995" y1="128.8408" x2="1023.9995" y2="1923.2407">
		<stop  offset="0" style="stop-color:#BCD74E"/>
		<stop  offset="1" style="stop-color:#89C540"/>
	</linearGradient>
	<circle id="INSIDE_x5F_COLOUR_3_" fill="url(#INSIDE_x5F_COLOUR_1_)" cx="1024" cy="1026" r="897.2"/>
</g>
<g id="Course">
	<path fill="#FFFFFF" d="M317,925c0,0,518,14,526,0s8-20,18-28s850,17.1,850,17.1s-6-133.1-98-189.1c-81-8-110,118-110,118
		l-948-20.4c0,0-42-129.6-136-161.6C336,733,317,925,317,925z"/>
	<path fill="none" stroke="#FFFFFF" stroke-width="34" stroke-miterlimit="10" d="M382,744c0,0,65-156,194.8-254.9
		C607,542,725,629,887.3,591.1c166.1-38.8,197.2-177,228.7-175.5c99,31.4,471,220.4,524.2,370.5"/>
	<path fill="#FFFFFF" d="M466.8,618.1c0,0,33.5,28.5,128,60c108.7,36.2,270,68.9,310,84c67.5,25.5,86,97.5,86,97.5h289.5
		c0,0,8.3-108.2-181-150.5c-179-40-351.5-23.5-473-64c-86.4-28.8-131.8-73.5-131.8-73.5L466.8,618.1z"/>
	<path fill="none" stroke="#FFFFFF" stroke-width="34" stroke-miterlimit="10" d="M1082.3,421.6c0,0-80.5-76.5-128.5-85.5
		s-138,88.5-141.5,157.5c-3.9,76.4,27,107.2,27,107.2"/>
	<path fill="#FFFFFF" d="M1182.8,457.6c0,0-54.9,84.1-49.9,106.5c1.7,7.5,27.6,15.5,49.9,14c23.6-18.1,69.7-95.1,69.7-95.1
		L1182.8,457.6z"/>
	<path fill="#FFFFFF" d="M1318.3,506.6c0,0-54.9,84.1-49.9,106.5c1.7,7.5,27.6,15.5,49.9,14C1341.9,609,1388,532,1388,532
		L1318.3,506.6z"/>
	<path fill="#FFFFFF" d="M1449.1,582.9c0,0-47.6,73-43.3,92.4c1.4,6.5,24,13.5,43.3,12.2c20.5-15.7,55.2-74,55.2-74L1449.1,582.9z"
		/>
	<path id="IPOD_2_" fill="#FFFFFF" d="M1134.8,1068.1c0,0-79.1-12-142.1-12s-145.9,12-145.9,12s-18.1,89.4-18.1,201.9
		s55.6,172.1,55.6,172.1s44.7,7,106.2,7s105.3-7,105.3-7s54-90.5,60-171.5C1161.8,1189.5,1134.8,1068.1,1134.8,1068.1z M891,1127
		c0,0,79-2.9,101.5-4.3c-6.8-0.4-8.1-0.7,0.2-0.7s6.8,0.3-0.2,0.7c21.5,1.4,98.5,4.3,98.5,4.3s4,46,4,80.5s-4,80.5-4,80.5
		s-64,5-100,5s-100-5-100-5s-5-39.8-5-77C886,1173.8,891,1127,891,1127z M935.9,1402.5l-29-19v19l-30.4-19.9l30.4-19.9v19l29-19
		V1402.5z M976,1410.5v-59l45,29.5L976,1410.5z M1075.5,1402.5v-19l-29,19v-39.8l29,19v-19l30.4,19.9L1075.5,1402.5z"/>
	<path fill="none" stroke="#FFFFFF" stroke-width="34" stroke-miterlimit="10" d="M1118.3,1360c0,0,82.3-23,84.5,17
		c8.6,154.6-46.1,273,59,273c92,0,290-121.5,404.5-390"/>
	<path fill="none" stroke="#FFFFFF" stroke-width="34" stroke-miterlimit="10" d="M400.3,1288.5c64,133.5,286,421.5,532,410
		c204.2-9.6,232.2-43.8,265.2-166.8"/>
	<path id="ECOUTEUR_x5F_DROITE_2_" fill="#FFFFFF" d="M1654,1268c0,0-1.3-0.8-10-10c-7.5-8,19-70,16-100c-4-7.5-39,26.5-80,5
		c-44.7-23.4-49-149,22-158c46.5-5.9,73,31.5,90.5,83c4.4,12.8,11.7,23.7,13.4,33c6,34,0.1,144.7-15.9,147.4
		C1674,1271,1654,1268,1654,1268z"/>
	<path id="ECOUTEUR_x5F_GAUCHE_2_" fill="#FFFFFF" d="M434.3,1323.5c0,0,1.2-1,8.5-12.4c6.3-9.8-33.5-69.6-36.2-101.6
		c2.7-8.6,46,20.2,84.7-10.3c42.2-33.2,22.4-165.5-53.7-161.1c-49.9,2.9-70.3,47.2-78.6,104.5c-2.1,14.3-7.7,27.1-7.6,37.1
		c0.3,36.8,28,151.6,45.2,151.2C414,1330.5,434.3,1323.5,434.3,1323.5z"/>
</g>
</svg>
