<svg xmlns="http://www.w3.org/2000/svg" width="2048" height="2048" viewBox="0 0 2048 2048"><g><circle fill="#fff" cx="1024" cy="1024" r="970"/><ellipse stroke="#F8973A" stroke-width="35" stroke-miterlimit="10" cx="1024" cy="1024" rx="969" ry="969.4" fill="none"/><linearGradient id="a" gradientUnits="userSpaceOnUse" x1="1024" y1="126.8" x2="1024" y2="1921.201"><stop offset="0" stop-color="#FFD022"/><stop offset="1" stop-color="#FAA71C"/></linearGradient><circle fill="url(#a)" cx="1024" cy="1024" r="897.2"/></g><g><path fill="#fff" d="M968.5 764.5l-183.3 86.4c-2.9 59.2-15.2 151.7-28.2 151.7h-119.1c-7.8 0-15.3-33.2-20.7-72.6l-132.7 62.5s137.2 102.5 168 120c45 0 329.8-174 329.8-174l-13.8-174z"/><path fill="#fff" d="M1038.5 1344.5c26 56 22 344 22 384 28 10 340-12 546-302 24-116 30-454 0-450-44 58-568 368-568 368z"/><path fill="#fff" d="M1006.5 1353.4c-26.5-1.5-147.5-75.1-267.9-152.3 3.8 47.8 11 158.2-3.2 157.4-18.1-1-4.9-33-22.9-33s-7 28-17 27.9c-10-.1-2-39.9-9-38.8-7 1.1-15.5 31.9-26 32.9-8.5.8 6-53 1-54s-18.1 47.4-28 46c-6.5-.9-8.7-143.8 0-206.7-91.2-60-163-108.8-163-108.8s-26 340.5 14 450.5c166 228 482 264 539.5 255.8 0-63.8 14.5-305.8-17.5-376.9z"/><path fill="#fff" d="M1594.5 938.5c-32-18-230-118-230-118l-147.2 89.8-11.6 29.3-66.6 18.4-143.6 87.6c-1.5 50.1-12.8 142.2-24.9 142.2h-103.4c-6.1 0-12.1-23.8-16.6-53.7l-88 53.7s225 130.7 261.5 126.7 602.4-358 570.4-376z"/><path fill="#fff" d="M1226.4 798.6l48.1-21-54-24z"/><path stroke="#fff" stroke-width="34" stroke-miterlimit="10" d="M1211 669.1c-11-71.4-73-180-80.5-246s21-35.5 21-64c0-22.8-40.6-24.5-54.8-24.2-14.2-.2-54.8 1.4-54.8 24.2 0 28.5 28.5-2 21 64s-59.4 174.6-70.5 246c-11.8 76.5-28.2 281 .7 287 28 5.8 108.7.4 113.6 0 4.3.3 75.7 5.8 103.6 0 28.8-6 12.5-210.5.7-287z" fill="none"/><path stroke="#fff" stroke-width="34" stroke-miterlimit="10" d="M994.1 1015.9c-6.5-18.1-7.9-13.2-75.2-13-67.3-.1-68.7-5.1-75.2 13-6.5 18.2 7.8 172 23.5 172h103.4c15.6-.1 30-153.8 23.5-172z" fill="none"/><path stroke="#fff" stroke-width="34" stroke-miterlimit="10" d="M784 804.6c-7.4-20.8-9-15.2-86.5-15-77.5-.1-79.1-5.8-86.5 15-7.5 21 9 198 27 198h119.1c17.9 0 34.4-177 26.9-198z" fill="none"/><path fill="#fff" d="M787.6 346.6s-.8.9-2.6 2.7c-1.7 1.7-4.3 4.3-7.9 7.4-7 6.3-17.8 14.9-31.5 25.6-3.4 2.7-7 5.5-10.7 8.4-3.7 2.9-7.6 6-11.5 9.3-3.9 3.3-8 6.7-12 10.4s-8 7.5-11.8 11.6c-3.7 4.1-7.3 8.5-10.1 13s-4.7 9.2-5.2 13.2c-.4 4 .4 7.3 2.8 11.1 1.2 1.9 2.8 3.8 4.8 5.7.5.5 1 1 1.5 1.4l.4.4.3.2.5.4.1.1h.1l.5.3.6.4c.4.3.9.5 1.4.8 2 1 4.5 1.9 7.3 2.6 2.8.7 5.9 1.2 9.2 1.6 6.5.7 13.7.7 21 .2 7.3-.4 14.9-1.3 22.6-2.6 7.7-1.2 15.5-2.8 23.4-4.6 7.9-1.8 15.8-4 23.6-6.4 3.9-1.2 7.8-2.6 11.7-4 3.9-1.4 7.6-2.9 11.3-4.6 3.6-1.6 7.1-3.5 10-5.4 1.5-1 2.8-1.9 3.7-2.8 1-.8 1.5-1.6 1.5-1.2 0 .2 0 .8.1 1.4.2.7.5 1.3.7 1.4l.1.1.2.3-.5-.7-.7-.9c-.1-.2-.4-.5-.6-.8l-.7-.8c-2-2.1-4.6-3.8-7.8-5-6.5-2.4-15-2.7-23.5-1.4-4.3.6-8.6 1.6-12.9 2.9-4.3 1.3-8.6 2.8-12.8 4.5-17 7-33.1 17.4-47.3 30-7.1 6.3-13.7 13.3-19.7 20.7-5.9 7.5-11.2 15.5-15.2 23.9-2 4.2-3.8 8.6-5.1 13-1.3 4.4-2.3 8.9-2.7 13.4-.9 9 .3 17.8 3.7 25.7 1.7 3.9 3.9 7.6 6.5 11 1.3 1.7 2.7 3.3 4.2 4.9l1.1 1.2 1.1 1.1c.9.8 1.9 1.7 2.6 2.4l2.5 2.1c.9.7 1.8 1.4 2.7 2 1.8 1.3 3.6 2.5 5.5 3.6 3.7 2.3 7.6 4.2 11.6 5.8 16 6.3 33.7 6.9 50.8 4 17.2-2.9 34.1-9.1 49.6-17.4 7.7-4.2 15.2-8.8 22.1-13.9 6.9-5.1 13.4-10.6 18.9-16.4 2.8-2.9 5.3-5.8 7.4-8.7 2.1-2.9 3.8-5.8 4.6-7.9.4-1 .6-1.8.5-2v.4c0 .2 0 .4.1.6l.1.4c0 .1 0 .2.1.2l.2.5-.6-1.5-.2-.3-.3-.6c-.1-.2-.2-.4-.3-.5-.4-.7-.8-1.1-1.1-1.4-.3-.3-.7-.5-1.1-.8-.4-.2-1-.4-1.8-.6-1.6-.4-4-.5-6.9-.1-2.8.4-6 1.1-9.2 2.2-3.2 1.1-6.5 2.4-9.8 4-6.5 3.1-13 7-19.1 11.3-6.1 4.2-11.9 8.9-17.3 13.8s-10.5 10.1-15.1 15.4c-4.6 5.3-8.8 10.8-12.4 16.3-3.6 5.6-6.6 11.1-8.9 16.7-2.3 5.6-3.8 11-4.4 16.2-1.2 10.4 1.5 19.3 7.6 26.5 3 3.7 6.7 6.8 10.8 9.6l3.5 2.4 3.3 2.1c2.1 1.4 4.3 2.7 6.4 4 8.6 5 16.9 9.1 24.6 12.1 15.4 6.1 28.6 8 37.5 8.3 4.5.2 7.9-.1 10.2-.4 1.2-.1 2-.3 2.6-.4.5-.1.8-.2.8-.2l1.2 3.2s-.3.1-.9.4c-.6.3-1.5.6-2.7 1.1-2.4.8-5.9 1.9-10.7 2.8-4.8.9-10.8 1.5-17.8 1.4-3.5 0-7.3-.2-11.4-.7-2-.2-4.1-.5-6.2-.8-2.1-.4-4.3-.7-6.5-1.2-4.5-.9-9.1-2.1-13.9-3.6-4.8-1.5-9.8-3.3-14.9-5.3-2.5-1.1-5.1-2.1-7.7-3.4-1.3-.6-2.7-1.2-4-1.9-1.2-.6-2.5-1.2-3.8-1.9-5.6-2.9-11.5-6.6-16.9-11.7-5.3-5.1-10.2-11.6-13.4-19.2-3.3-7.6-4.7-16.1-4.6-24.5.1-4.2.5-8.3 1.1-12.4.7-4.1 1.7-8.1 2.9-12 2.5-7.9 5.8-15.4 9.7-22.7 4-7.3 8.5-14.3 13.6-21 5.1-6.7 10.7-13.2 16.9-19.4 6.1-6.2 12.8-12.1 20-17.7 7.2-5.5 15-10.7 23.7-15.2 4.3-2.2 8.9-4.3 13.9-6.1 4.9-1.8 10.2-3.3 16-4.1 5.8-.8 12.3-1.1 19.4.3 3.5.7 7.2 1.9 10.7 3.7s6.9 4.1 9.8 6.9c2.9 2.7 5.3 5.9 7.3 9.1l1.4 2.4 1.2 2.4 1.2 2.8.6 1.6c0-.1.5 1.4.4 1.3l.3 1 .5 2.1c.3 1.4.4 2.7.5 4 .2 2.6 0 5-.3 7.1-.6 4.4-1.8 7.9-3.2 11.1-1.4 3.2-2.9 5.9-4.5 8.5-1.6 2.6-3.3 4.9-5 7.1-3.5 4.4-7.2 8.4-11 12-7.7 7.3-15.9 13.6-24.4 19.3-8.6 5.7-17.6 10.7-26.9 15.1-9.4 4.4-19.1 8.1-29.2 11.1-5 1.5-10.2 2.8-15.4 3.8-5.2 1.1-10.5 1.8-15.9 2.3-5.4.5-10.8.7-16.3.5s-11-.7-16.4-1.7c-10.9-1.9-21.7-5.6-31.5-11-4.9-2.7-9.6-5.8-13.9-9.3-2.2-1.7-4.2-3.6-6.2-5.4-1-.9-2-1.9-2.9-2.9l-2.8-3c-1-1.1-1.7-2-2.6-3l-1.4-1.7-1.3-1.6c-1.7-2.2-3.3-4.5-4.8-6.9-2.9-4.8-5.3-10-7-15.3-3.4-10.8-3.8-22.3-1.9-32.9.9-5.3 2.4-10.5 4.2-15.4.9-2.5 1.9-4.9 3-7.3 1.1-2.4 2.2-4.7 3.4-7 4.9-9.1 10.8-17.5 17.2-25.3s13.5-15 20.8-21.8c7.4-6.7 15.1-13 23.2-18.8 8.1-5.7 16.5-11 25.4-15.6 8.8-4.6 18.1-8.5 28-11.2 5-1.3 10.1-2.3 15.4-2.8 5.3-.4 11-.3 16.7 1 5.7 1.3 11.6 3.8 16.6 7.7l1.8 1.5c.6.6 1.1 1 1.8 1.7l.9 1 .7.7.6.6.7 1c.2.3.4.5.5.8 1.4 2.1 2.6 4.9 3 7.8.2 1.5.2 2.9.1 4.3s-.4 2.7-.7 3.9c-.7 2.4-1.6 4.3-2.6 6-1 1.7-2 3.1-3.1 4.3-2.1 2.5-4.2 4.5-6.4 6.3-4.3 3.6-8.5 6.4-12.8 9-8.5 5-17.1 9-25.7 12.4-8.6 3.4-17.3 6.2-25.9 8.6-17.3 4.7-34.6 7.5-51.9 8.2-8.7.3-17.4.1-26.2-1.2-4.4-.6-8.8-1.5-13.3-2.9-4.5-1.3-9-3.1-13.5-5.7l-3.3-2.1-1.6-1.2-.8-.6c-.3-.2-.6-.5-.9-.8l-.9-.8-.5-.5-.2-.2-.5-.5-.6-.6c-.8-.8-1.6-1.6-2.3-2.5-3-3.4-5.9-7.1-8.2-11.4-2.4-4.3-4.1-9.2-4.9-14.2-.8-5.1-.6-10.2.3-14.9s2.5-8.9 4.4-12.6c1.9-3.7 4.1-7 6.4-10 4.6-6 9.5-10.9 14.3-15.2 9.8-8.6 19.5-15.1 28.6-20.9 4.5-2.8 8.9-5.4 13.1-7.9 4.2-2.4 8.2-4.7 12.1-6.8 15.3-8.4 27.4-14.6 35.4-19.2 4-2.3 7.1-4.1 9.1-5.3l3.1-1.9 2.6 2.5z"/></g></svg>