<svg xmlns="http://www.w3.org/2000/svg" width="2048" height="2048" viewBox="0 0 2048 2048"><g><circle fill="#fff" cx="1024" cy="1026" r="970"/><ellipse stroke="#F8973A" stroke-width="35" stroke-miterlimit="10" cx="1024" cy="1026" rx="969" ry="969.4" fill="none"/><linearGradient id="a" gradientUnits="userSpaceOnUse" x1="1024" y1="128.841" x2="1024" y2="1923.241"><stop offset="0" stop-color="#BCD74E"/><stop offset="1" stop-color="#89C540"/></linearGradient><circle fill="url(#a)" cx="1024" cy="1026" r="897.2"/></g><path fill="#fff" d="M1511.1 1199.1c-71.5-22.1-250.2 66.3-346.3 90.2-6-49.1-20.4-108.3-20.4-148.6 0-11.2 3.5-31.3 8.3-57.1 43.4-.8 149.1-18.1 241.4-154.5 91.3-134.9 117.8-436.4.4-534.1-111.7-93-355.7-76.7-521.4 68.6-150.6 132-268.4 295.4-354.6 284-51.4-59 229.1-270 324-303 29.6-66-14-150-14-150-223.4 63-454 402-436 464 34.1 61 71.6 137.5 80 175.5 101.1-33.5 268-125.5 298-193.5 515.6-474.5 675.6-122.5 651-22-46.9 191.9-191.1 225.2-245.8 230.9 10.4-77.9 14.2-163.7-8.4-228.9-48-138-224.1-86.8-273-39-29.8 29.2-81.8 114.5-113.2 253.6-188.4-3-404 161.7-438.6 255.5 36 34 111.1 97 91.5 170 2.7 58.8 240.1 100.9 347.2 116.9 22.2 126.6 59.1 170.8 59.1 170.8 60.3 32.2 212.2 0 217-6 30.4-38 72.8-154.2 95-237.7 68.9-22.7 209.6-72.7 285.8-55 0 31-57.6 55-89.5 70.5-1.4 30.9 33.9 144.5 32 175 18 3 202.5-166.5 201-207s12-163.6-70.5-189.1zm-573-484.5c77.6-54 148.4-34 176.4 22s-42 464-82 506-127.2 26.6-174 0c-76-134 2-474 79.6-528zm-177 342.8c-8.7 82.8-9.6 178.7 2.4 287.2-55.7-6.2-208.9-28.2-295-90 60.4-151.9 222.3-188.4 292.6-197.2zm222.6 327.1c-6.4 8.2-16.4 13.5-27.6 13.5-11.9 0-22.4-6-28.7-15-47.4 19.5-117-11.1-117-33 0-22.7 48.7-64.7 77.3-50.7 19.1 9.3 32.5 30.7 39.4 44 6.3-9.3 16.9-15.3 29-15.3 10.2 0 19.4 4.4 25.8 11.3 7.4-13.3 20-31.6 37.2-40 28.7-14 77.3 28 77.3 50.7.1 21.2-65.5 50.6-112.7 34.5z"/></svg>