<svg xmlns="http://www.w3.org/2000/svg" width="2048" height="2048" viewBox="0 0 2048 2048"><g><circle fill="#fff" cx="1024" cy="1026" r="970"/><ellipse stroke="#F8973A" stroke-width="35" stroke-miterlimit="10" cx="1024" cy="1026" rx="969" ry="969.4" fill="none"/><linearGradient id="a" gradientUnits="userSpaceOnUse" x1="1024" y1="128.841" x2="1024" y2="1923.241"><stop offset="0" stop-color="#BCD74E"/><stop offset="1" stop-color="#89C540"/></linearGradient><circle fill="url(#a)" cx="1024" cy="1026" r="897.2"/></g><path fill="#fff" d="M1544.4 1404.7c278.5-311.5 74.1-1002.1-520.4-1002.1s-783.5 624.5-561 987c-13.1 17.1-24.9-9.5-45.8 8-7.8 6.5-14.4 29.8 7 41.1 18.3 9.7 159.2 24.9 230 11-231.7-381.1-34.2-784.1 368.8-784.1s531.5 459 337 795.1c36.5 29.4 165.9 26.3 221.5 4 18.9-7.6 25.5-29.3 10.8-59-12.3-25.1-62.6 15.5-47.9-1zm-1113.8-403.3c0-25.3 20.5-45.7 45.7-45.7s45.7 20.5 45.7 45.7-20.5 45.7-45.7 45.7-45.7-20.5-45.7-45.7zm67.3 268.2c-23.6 0-42.7-19.1-42.7-42.7s19.1-42.7 42.7-42.7 42.7 19.1 42.7 42.7-19.1 42.7-42.7 42.7zm98.3-480c-28 0-50.6-22.7-50.6-50.6s22.7-50.6 50.6-50.6 50.6 22.7 50.6 50.6-22.6 50.6-50.6 50.6zm282.3-151.4c-35 0-63.4-28.4-63.4-63.4s28.4-63.4 63.4-63.4 63.4 28.4 63.4 63.4c-.1 35.1-28.4 63.4-63.4 63.4zm385.3 24.1c-34.5 0-62.4-27.9-62.4-62.4s27.9-62.4 62.4-62.4 62.4 27.9 62.4 62.4-28 62.4-62.4 62.4zm358.5 425.6c0 25.3-20.5 45.7-45.7 45.7s-45.7-20.5-45.7-45.7 20.5-45.7 45.7-45.7 45.7 20.4 45.7 45.7zm-102.6-276.5c28 0 50.6 22.7 50.6 50.6s-22.7 50.6-50.6 50.6c-27.9 0-50.6-22.7-50.6-50.6s22.7-50.6 50.6-50.6zm-42.7 469c0-23.6 19.1-42.7 42.7-42.7s42.7 19.1 42.7 42.7-19.1 42.7-42.7 42.7-42.7-19.1-42.7-42.7z"/></svg>