<svg xmlns="http://www.w3.org/2000/svg" width="2048" height="2048" viewBox="0 0 2048 2048"><g><circle fill="#fff" cx="1024" cy="1026" r="970"/><ellipse stroke="#F8973A" stroke-width="35" stroke-miterlimit="10" cx="1024" cy="1026" rx="969" ry="969.4" fill="none"/><linearGradient id="a" gradientUnits="userSpaceOnUse" x1="1024" y1="128.841" x2="1024" y2="1923.241"><stop offset="0" stop-color="#BCD74E"/><stop offset="1" stop-color="#89C540"/></linearGradient><circle fill="url(#a)" cx="1024" cy="1026" r="897.2"/></g><path fill="#fff" d="M762.6 1031.1c21.6-11.5 159.3-138 159.3-151.5v-13.5c24.2-24.8 48.1-55.9 58.4-90 233.7 140.9 537.8 217.6 752.2 46.5-48-260-530-724-1092-396 10.6 38.6 37.2 83.5 75.9 130.1 45.2-85.6 112.9-141 152.1-173l1.7-1.4 2-1c10.9-5.5 24.7-8.3 40.9-8.3 29.1 0 65.1 8.9 101.3 25 37.9 16.9 72.6 40.4 97.7 66.3 37.5 38.7 50.1 112.3 28.1 164.2-7.4 17.4-18.1 31.3-31.9 41.2-15.3 11-33.6 16.6-54.4 16.6l-3 4c-17.1 0-72.8-14.9-101.2-25.1 2.1-8.5 3.9-17.4 5.5-26.9l4.6-28.6 25.4 13.9c26.5 14.4 49.6 21.7 68.7 21.7 23 0 39.3-11 48.5-32.8 7.4-17.5 9.5-40.8 5.6-63.9-3.9-22.8-13.1-43.1-25.3-55.8-47.1-48.6-124.7-78.8-169.5-78.8-8.4 0-15.7 1.1-20.7 3.1-58.8 48.2-123.8 107.5-158.7 200.7-1.5 35.5 13.1 72.4 40.3 101.6 24.9 26.6 56.9 42.5 85.7 42.5 10.9 0 21.1-2.2 30.5-6.6-11.3 21.3-20.2 41.6-28.8 47.6-.5.6-.9 1.2-1.4 1.7-.5-.7-1.1-1.2-1.7-1.7-3.9 0-7.9-.3-11.8-.7-27.4 9.1-84.5 73.5-157.9 147.1-1.9 1.9-4.2 12.3 4 15.6s-47.5 29.1-77.2 0c-92.9-82.3-5.6-215.6 94.5-267.5-12.9-27.1-18.9-56.4-17-85.2l.2-2.9 1-2.7c1.5-4.2 3.2-8.4 4.8-12.5-83.3 31.3-151.2 107.2-188.5 168.6-64.4 106-43.9 241.5 85.8 299.5 4.4 59.2 20.9 121.4 38.8 170.4-95.4 60.1-91.5 172.5-17.7 314 55.3 105.9 241.3 272.5 390.3 166.2 117.7-84 102.1-183.8 41.3-247.3 0 0 .3-2-.7-7-2.5-13.3-136.5-140.5-157.7-152-7.2-3.9-9.7-.4-14.8-.7-7.3-4.4-64-111.3-162.7-104-15.7-45.6-31.8-92.9-40.9-126.5 40.1-8.9 72.1-36.6 78.2-40.2 5.4-.3 4.9-.1 12.2-4zm211.8-496.1c5.8-14.4 27-19.5 47.4-11.4 20.4 8.2 32.2 26.5 26.4 40.9-5.8 14.4-27 19.5-47.4 11.4s-32.1-26.4-26.4-40.9zm-118.6 32.7c35.8 0 65.2 29.8 68 67.6-40.8-32.2-74.6-43.7-112-50.2 11.9-10.9 27.3-17.4 44-17.4zm0 146.9c-26.9 0-50.2-16.8-61.3-41.2 41.1 6.6 59.3 24.3 70 40.6-2.8.4-5.7.6-8.7.6zm35.3 645.2c11.7 0 21.2 9.7 21.2 21.7s-9.5 21.7-21.2 21.7-21.2-9.7-21.2-21.7c.1-12 9.5-21.7 21.2-21.7zm-209.6-36.2c25.8 25.4 67.5 42.6 73.4 19.5.9-3.4-.3-11.1-3-21.9 37.5 14.6 70.3 42.7 65.3 44.8-8 3.3-1.2 15.4.7 17.3 87.9 90.3 150 165.8 166.3 144.7 11.8 14.8 20.7 51.9 1.7 73.7-102.9 149.6-414.6-157.3-304.4-278.1zm51.9-358.7c0-11.9 9.7-21.6 21.6-21.6 11.9 0 21.6 9.7 21.6 21.6s-9.7 21.6-21.6 21.6c-12 0-21.6-9.7-21.6-21.6z"/></svg>