<svg xmlns="http://www.w3.org/2000/svg" width="2048" height="2048" viewBox="0 0 2048 2048"><g><circle fill="#fff" cx="1024" cy="1024" r="970"/><ellipse stroke="#F8973A" stroke-width="35" stroke-miterlimit="10" cx="1024" cy="1024" rx="969" ry="969.4" fill="none"/><linearGradient id="a" gradientUnits="userSpaceOnUse" x1="297.5" y1="2526.201" x2="297.5" y2="731.8" gradientTransform="matrix(1 0 0 -1 726.5 2653)"><stop offset="0" stop-color="#F27FA2"/><stop offset="1" stop-color="#EF4867"/></linearGradient><circle fill="url(#a)" cx="1024" cy="1024" r="897.2"/></g><g><path fill="#fff" d="M766.1 1207.1c10.9 20.4 28.2 34.6 58.5 24 16.7-5.9 54.4-42.6 81.4-9.6s-8.4 172.1 2.1 282.6c12.9 135.9 81.6 150.4 133.9 154.9 87 7.5 115-111 116.6-139.4 8.1-1.3 7.1 1.9 14.3-2.6 9.3-5.7 1.9-58.7-21.6-117.7-21.3-53.7-48.1-88.8-58.1-88.3-11.5.5-7 14.6-13.7 16.6-19.3 5.7-47.8 26.3-52.6 118-3 56.9-12.5 70.4-18.5 71.9-14 3.5-19.4-96.1-28-188-9.5-101.5-30.1-165.8-61-169-43.5-4.5-66 12.8-88.9 25.1-39.1 20.9-48 6.5-48 6.5l-16.4 15z"/><path fill="#fff" d="M1232.3 1313.1c-.6-1.3-1.2-2.5-1.9-3.6-2.1-19.7-12.2-64.7-14.4-70.4-4.7-5.3-80.7-21.7-88.3-19.3-6.4 2 16.5 51.7 24 67.5-2.6-.1-5.3.3-7.8 1.4-10.1 4.5-13.9 18.3-8.3 30.8s18.3 19 28.4 14.5 13.9-18.3 8.3-30.8c-2.4-5.4-6.2-9.7-10.5-12.5-3.8-11.6-12.4-34.6-12.5-42.5 2-7.6 49.5 6.9 58.5 13.1 3.4 3.5 5.1 24.3 6.9 36.5-3.7-.8-7.4-.6-10.9 1-10.1 4.5-13.9 18.3-8.3 30.8s18.3 19 28.4 14.5c10.1-4.5 14-18.5 8.4-31z"/><path fill="#fff" d="M1054.5 1056.5c-6.8 3.1 10.3 62.9 19.2 94.9-5.6-2.3-11.7-2.6-17.5-.7-14.4 4.9-21.4 22.4-15.7 39.2 5.7 16.7 22 26.3 36.4 21.4 14.4-4.9 21.4-22.4 15.7-39.2-.6-1.9-1.4-3.6-2.3-5.3-4.6-23.1-16.1-67.2-14.2-75.8.5-2.3 30 8.6 36-1 6.9-11.2-45.6-39-57.6-33.5z"/><path fill="#fff" d="M1626.3 1205.7l-67.2 23.9c-2.1-5.5-4.7-10.6-7.7-15.1 7.2-9.6 11.4-21.6 11.4-34.5 0-32-25.9-57.9-57.9-57.9s-57.9 25.9-57.9 57.9c0 7 1.2 13.7 3.5 19.9-5.9.9-11.9 2-17.7 3.1v-.9c0-32-25.9-57.9-57.9-57.9s-57.9 25.9-57.9 57.9c0 23.5 14.1 43.8 34.2 52.8.8 30.7 3.6 77 28 89.5 7.5 3.9 20 5.6 35 5.8l-14.7 76.2 29 5.3 15.1-83c3-.3 6-.6 9-1l12.3 78 28-4-11.9-78.4c2.6-.5 5.2-1 7.8-1.6l41.7 73.9 25-14.7-37.1-66.8c16.3-4.9 29.7-10.7 37.1-16.5 7-5.5 11-20.2 11.5-37.6l71.5 2.3-12.2-76.6zm-252 15c-9.9 0-18-8.1-18-18s8.1-18 18-18 18 8.1 18 18-8 18-18 18zm131-22c-9.9 0-18-8.1-18-18s8.1-18 18-18 18 8.1 18 18-8 18-18 18z"/><path stroke="#fff" stroke-width="23" stroke-miterlimit="10" d="M418.3 1201.7s48-25.7 82-37l86-19.7s81.3 103.1 68 186c-13 81.1-48.3 88-48.3 88s-55 6-94-18c-74.5-45.8-93.7-199.3-93.7-199.3z" fill="none"/><path fill="#fff" d="M519.7 1313.7s31.7 4.3 58.3-7.7l44.3-30.3s10 62-32 71c-44.5 9.5-70.6-33-70.6-33z"/><path fill="#fff" d="M533.7 1257.3s-14-10.5-30.3-3c-13.8 6.3-21.1 23.3-21.1 23.3s-7.9-38.3 18.2-43c26.6-4.7 33.2 22.7 33.2 22.7z"/><path fill="#fff" d="M612.3 1230.7s-13.1-8.6-25.8-5.3c-9.1 2.4-12.9 17.9-12.9 17.9s-13.7-28.9 8.7-33.3c19-3.7 30 20.7 30 20.7z"/><path fill="#fff" d="M1610.5 934.5c-42.8-4.9-87.4-7.3-159.4 2.2 1.5-1.6 2.3-3.7 2.1-6.1-.2-3-1-8.3-2.2-14 45.3-25.5 154-125.3 201.5-209.4-10.4-15.5-43.3-76.7-64-102.7-40.6 83.2-63.2 202.2-153.1 286.4-8.1-.3-19.3.5-26 2.2-60.6-39.4-125.1-138.7-176-229.1 77.5-80.8 147.7-172.9 163-237.5-18.5-15-93.3-51.3-125.3-63.3-33 54.9-69.7 142.3-116.9 229.5-26.2 14.7-56.8 34.3-65.7 41.5 4.3 11.1 11 23.6 19.6 36.9-32.6 50.4-69.7 97.1-112.8 133-10.3-1.1-24.6-1.3-33.8.2-50.9-38.3-102.3-114.5-149.5-199.5.7-2.7 1.3-5.3 1.9-7.8-2-1.1-4.9-2.6-8.5-4.3-36.4-66.8-70.1-138.2-98.8-200.2-32 12-107.5 69-126 84 17.8 39.2 57.6 92.3 105.2 145.8-36.1 104-87.3 229.3-145.8 282.9-6.9-.6-18.1.5-26 2.1-102.6-68.3-144.5-182-198.2-257.3-16.1 29-38.6 94.8-46.3 111.8 60.7 75.1 184.3 155.7 233.2 173.4-.3 5.9-.2 11.2.1 14.2.5 5.1 4.6 7.6 10.6 8.6-63.8 14.2-108.4 26.6-181.9 59.6-22 50 39 244 39 244s-2-85.3 8-143c60-13.7 72-35.3 176-53 54.7-9.3 100.3-8.6 131.4-5.8-7 67.5-10.5 156.5.7 252.2 19.9 223.6 79.5 347.5 79.5 347.5s21 14.2 36 18.7c-17.6-53.6-58.6-153.6-67.5-366.2-4.4-105.1 24-239.8 24-239.8s136.5-49.5 237-55.5l199.5 12.4s50.4 131.5 66 282.9c19.4 188.6-10.5 366.2-10.5 366.2l36.4-18.8s14.9-35.3 22.7-126c3.2 4.6 6.6 9.3 8.4 10.9 3.9 3.5 14.4 5.5 25.9 9-4.9-8.3-23-55.3-30.8-75.8 2.1-51.7 1.8-116.1-3.1-195.1-4.4-71.9-12-133-20.8-184.3 28.9-16.8 95.7-37.5 161.9-48.2 56.3-9.1 112.7-7.9 143.7-4 36.4 44.2 61.7 173.7 72 244.3 6.7-15 18-45.7 27-77.6-.1-36-52.1-251.4-83.4-278.1zm-904.4-.4s-1.2 4.6-3 13.2c-45-3.2-100.8-4.5-148.2 2.4l1-.9c.1-6.6-1.2-13.4-3-19.8 58.7-24.7 153.2-131 211.5-224.9 73.6 71.4 147.9 129.1 181.6 134.2-1.6 8.5-2.3 17.5-1.5 26 3.5 2.6 6.5 4.6 9.6 6.1-124.2 17.5-248 63.7-248 63.7zm519-54s-109-21.6-211.7-15.7c1.1-1.7 1.6-3.6 1.6-5.9 0-4.3-.6-12.2-1.9-20.6 28.1-6.2 84.6-46.5 145.9-101.7 73 81.7 180.8 168.1 241.6 182.5-.8 6.6-.9 13.5.3 20 3.3 2.1 6 3.6 8.9 4.5-54.6 11-113.5 31.9-145 43.8-20.6-73.9-39.7-106.9-39.7-106.9z"/></g></svg>