<svg xmlns="http://www.w3.org/2000/svg" width="2048" height="2048" viewBox="0 0 2048 2048"><g><circle fill="#fff" cx="1024" cy="1026" r="970"/><ellipse stroke="#F8973A" stroke-width="35" stroke-miterlimit="10" cx="1024" cy="1026" rx="969" ry="969.4" fill="none"/><linearGradient id="a" gradientUnits="userSpaceOnUse" x1="1024" y1="128.841" x2="1024" y2="1923.241"><stop offset="0" stop-color="#BCD74E"/><stop offset="1" stop-color="#89C540"/></linearGradient><circle fill="url(#a)" cx="1024" cy="1026" r="897.2"/></g><circle fill="#fff" cx="759.5" cy="1451.7" r="43"/><path fill="#fff" d="M561.2 581c5.6 14.6 136.7 121 156.7 121s44.7-14 38-25.3-142.7-128.7-161.4-130.1-38.7 20.4-33.3 34.4z"/><path fill="#fff" d="M1331.8 1101.2c34.4-93.9 86.7-272.6 86.7-272.6s11.6 16.4 40 14c110-9.3 92.1-75.1 32-114-36-23.3-212.6-12-226-4-21.3 12.7-20.7 39.7-2 52 27.3 18 90-6 102 16-6.4 29.8-57.3 178.8-105.1 280.5-141.6-48.3-265.7-51.8-355.9-24.7-57.7-95.2-146.1-276.1-146.5-283.8 10.5-8 32.5-28 4.5-42s-203-7.9-231-42c-34.6-42.1-48-154-49.3-182s-42.7-38-58.7-6 20.3 195.5 66 244c33 35 159 32.1 204 40 19.9 41.4 94 200.3 150.7 297.3-63.3 36.1-97.8 92.8-92.7 160.7 46 612 852 260 882 54-103.5-84.9-205.2-146.1-300.7-187.4zm-182.8 244.4c-2 0-4-.1-6-.2l-15.5 35.4s22 5.8 32 8.8-8 59-11 62-141-12-151-21 5-59 14-65l62 10 19.3-49c-22.1-16.9-36.3-43.5-36.3-73.5 0-51.1 41.4-92.5 92.5-92.5s92.5 41.4 92.5 92.5-41.4 92.5-92.5 92.5z"/></svg>