<svg xmlns="http://www.w3.org/2000/svg" width="2048" height="2048" viewBox="0 0 2048 2048"><g><circle fill="#fff" cx="1024" cy="1026" r="970"/><ellipse stroke="#F8973A" stroke-width="35" stroke-miterlimit="10" cx="1024" cy="1026" rx="969" ry="969.4" fill="none"/><linearGradient id="a" gradientUnits="userSpaceOnUse" x1="1024" y1="128.841" x2="1024" y2="1923.241"><stop offset="0" stop-color="#BCD74E"/><stop offset="1" stop-color="#89C540"/></linearGradient><circle fill="url(#a)" cx="1024" cy="1026" r="897.2"/></g><path fill="#fff" d="M1026.3 360.6c-366.2 0-663.1 296.9-663.1 663.1s296.9 663.1 663.1 663.1 663.1-296.9 663.1-663.1-296.9-663.1-663.1-663.1zm-452.6 210.5c58.8-58.8 127.2-104.9 203.5-137.2 10.4-4.4 20.8-8.5 31.3-12.3l3.3 115.9s-81 47.2-123.6 84.2c-39.4 34.3-90.2 98.9-90.2 98.9l-137.1 2.7c29.7-55.9 67.5-106.9 112.8-152.2zm-40.9 595.5c-4.8-11 43.7-200.7 89.3-224.1 13.4-6.9 218.9 45 230.7 54.3 10.6 8.4 57.1 215.3 66.1 267.7-17.8 15.4-188.4 84.9-211.2 98.8-84.5-30.7-161.3-165.6-174.9-196.7zm244.4 446.8c-47.8-20.2-92.5-45.9-133.7-76.7l115.9-13.9s53 34.2 101 55l152.6 26.8 4.3 59c-83.2-1.1-163.9-17.9-240.1-50.2zm235.9-1021.8c51-39 212.1-59 246-58.5 12 .2 169.5 159.5 169.5 190.5 0 15.1-105.3 194.8-118.5 187.5-34.2-19.2-209.6-66.5-261-80-4.3-28.5-25.1-205.8-36-239.5zm588.3 150.6c5.2 10.6 10.1 21.4 14.7 32.3 33.4 78.9 50.3 162.7 50.3 249.1 0 14.3-.5 28.6-1.4 42.8l-43.2 1.7s-2.2-93-13.4-144.1c-11.2-51.1-57.5-139.5-57.5-139.5l50.5-42.3zm-143 710c-46.9 42.4-223.1 81.3-244.1 68-10.2-6.5-45.2-173.1-33.7-180.4 30.2-19 150.2-137.9 185.1-172.9 21.5 8.8 125.1 55.2 153.4 61 .9 57.2-37.1 202.9-60.7 224.3z"/></svg>