<svg xmlns="http://www.w3.org/2000/svg" width="2048" height="2048" viewBox="0 0 2048 2048"><g><circle fill="#fff" cx="1009.5" cy="1026.1" r="970"/><ellipse stroke="#F8973A" stroke-width="35" stroke-miterlimit="10" cx="1009.5" cy="1026.1" rx="969" ry="969.4" fill="none"/><linearGradient id="a" gradientUnits="userSpaceOnUse" x1="1009.5" y1="128.94" x2="1009.5" y2="1923.341"><stop offset="0" stop-color="#B87CB5"/><stop offset="1" stop-color="#924A9C"/></linearGradient><circle fill="url(#a)" cx="1009.5" cy="1026.1" r="897.2"/></g><g fill="#fff"><path d="M644.5 1372c187 18 611 19 734 0-33 176-245 366-367 366-114 0-327-183-367-366z"/><path d="M1477.2 1162c-89.9 18-432.4 24.3-468.8 24.9-35.5-.6-369-7-458.9-24.9-2 20 23.9 170.7 42 174 117.4 21.6 370.9 22.9 413.8 23h6.300000000000001c43.7-.1 306.2-1.3 423.8-23 18-3.3 43.8-154 41.8-174z"/><path d="M1537.8 1019c-151.5 28.4-464.4 30.8-524.4 31-60.1-.2-372.9-2.6-524.4-31-1.6 12 8.9 107 19.6 109 153.4 28.8 446.9 29.2 504.9 29.1 58 .2 351.4-.3 504.9-29.1 10.5-2 20.9-97 19.4-109z"/><path d="M1334.3 496.4c-40.3-12-82.3-16.2-123.7-13.2l15-132.6s-9-23.5-63-35.5l-92.3 1-20.7 49c-60.6-35.3-131.1-46.9-200.2-32.6-74.4 15.2-138.4 58.6-180.1 122.1-35.2 53.5-51.1 115.8-46 178.6-94.2 43.5-159.6 138.8-159.6 249.3 0 37.5 7.5 73.2 21.1 105.7 99 17.1 336.6 38.9 490 33.6 24.1-40.8 37.9-88.4 37.9-139.3 0-68.5-25.1-131.2-66.7-179.3 90.8-166.1 293.7-244.6 461-136.2 144.8 93.7 175.9 279.9 97.4 427.9 13-1.2 28.9 0 41.3-3.9 101.4-190.9-6.7-433.9-211.4-494.6zm-415.9 179c-48.2-42-111.2-67.4-180.2-67.4-28.4 0-55.8 4.3-81.6 12.3-2.1-51.8 12-102.9 41.1-147.1 36.8-55.9 93.1-94.1 158.6-107.6 62.3-12.8 125.9-1.8 180 30.9l-117.9 278.9z"/></g></svg>