<?xml version="1.0" encoding="utf-8"?>
<!-- Generator: Adobe Illustrator 16.0.0, SVG Export Plug-In . SVG Version: 6.00 Build 0)  -->
<!DOCTYPE svg PUBLIC "-//W3C//DTD SVG 1.1//EN" "http://www.w3.org/Graphics/SVG/1.1/DTD/svg11.dtd">
<svg version="1.1" id="Layer_1" xmlns="http://www.w3.org/2000/svg" xmlns:xlink="http://www.w3.org/1999/xlink" x="0px" y="0px"
	 width="2048px" height="2048px" viewBox="0 0 2048 2048" enable-background="new 0 0 2048 2048" xml:space="preserve">
<g id="GREEN_x5F_CHILL">
	<circle id="WHITE_x5F_BACK_3_" fill="#FFFFFF" cx="1024" cy="1026" r="970"/>
	
		<ellipse id="ORANGE_x5F_CIRCLE_3_" fill="none" stroke="#F8973A" stroke-width="35" stroke-miterlimit="10" cx="1024" cy="1026" rx="969" ry="969.4"/>
	
		<linearGradient id="INSIDE_x5F_COLOUR_1_" gradientUnits="userSpaceOnUse" x1="1023.9995" y1="128.8408" x2="1023.9995" y2="1923.2407">
		<stop  offset="0" style="stop-color:#BCD74E"/>
		<stop  offset="1" style="stop-color:#89C540"/>
	</linearGradient>
	<circle id="INSIDE_x5F_COLOUR_3_" fill="url(#INSIDE_x5F_COLOUR_1_)" cx="1024" cy="1026" r="897.2"/>
</g>
<path id="Club" fill="#FFFFFF" d="M827.5,1075c0-68.4,26.7-132.8,75-181.2c48.4-48.4,112.7-75,181.2-75s132.8,26.7,181.2,75
	c19.1,19.1,34.8,40.7,46.8,64.1c96.2-114.8,109.7-248.3,117.8-306.2c-49.2-36-106.7-31.7-129.9-33
	c-11.1,21.3-36.9,167.2-181.1,157.6c-292.8-19.6-360.3-255.1-509.3-255.1c-137.5,0-220,420-118,514.5
	c70,64.9,199.1,113.3,347.6,114.7C831.3,1126.2,827.5,1100.9,827.5,1075z"/>
<path id="Manche" fill="#FFFFFF" d="M1330.5,341.6c10.7,42.3,10,213-4,239c35.3,6,76,19,93,25c13.1-43,21-171,8-209
	C1405.8,378,1348.3,346.1,1330.5,341.6z"/>
<path id="Balle" fill="#FFFFFF" d="M1083.7,852.8c-122.7,0-222.2,99.5-222.2,222.2c0,122.7,99.5,222.2,222.2,222.2
	c122.7,0,222.2-99.5,222.2-222.2C1306,952.3,1206.5,852.8,1083.7,852.8z M1165.4,915.1c14.5,0,26.2,11.8,26.2,26.2
	s-11.8,26.2-26.2,26.2s-26.2-11.8-26.2-26.2S1150.9,915.1,1165.4,915.1z M1024.4,903.1c14.5,0,26.2,11.8,26.2,26.2
	s-11.8,26.2-26.2,26.2s-26.2-11.8-26.2-26.2S1009.9,903.1,1024.4,903.1z M898.2,1014.6c0-14.5,11.8-26.2,26.2-26.2
	s26.2,11.8,26.2,26.2s-11.8,26.2-26.2,26.2S898.2,1029.1,898.2,1014.6z M950.7,1170.6c-14.5,0-26.2-11.8-26.2-26.2
	s11.8-26.2,26.2-26.2s26.2,11.8,26.2,26.2S965.2,1170.6,950.7,1170.6z M981.9,1041.9c0-14.5,11.8-26.2,26.2-26.2
	s26.2,11.8,26.2,26.2s-11.8,26.2-26.2,26.2S981.9,1056.4,981.9,1041.9z M1044.7,1256.1c-14.5,0-26.2-11.8-26.2-26.2
	s11.8-26.2,26.2-26.2s26.2,11.8,26.2,26.2S1059.2,1256.1,1044.7,1256.1z M1083.7,1148.6c-14.5,0-26.2-11.8-26.2-26.2
	s11.8-26.2,26.2-26.2s26.2,11.8,26.2,26.2S1098.2,1148.6,1083.7,1148.6z M1110,1048.1c-14.5,0-26.2-11.8-26.2-26.2
	s11.8-26.2,26.2-26.2s26.2,11.8,26.2,26.2S1124.5,1048.1,1110,1048.1z M1155.5,1236c-14.5,0-26.2-11.8-26.2-26.2
	s11.8-26.2,26.2-26.2s26.2,11.8,26.2,26.2S1170,1236,1155.5,1236z M1191.7,1129.6c-14.5,0-26.2-11.8-26.2-26.2s11.8-26.2,26.2-26.2
	s26.2,11.8,26.2,26.2S1206.2,1129.6,1191.7,1129.6z M1250.9,1074.4c-14.5,0-26.2-11.8-26.2-26.2s11.8-26.2,26.2-26.2
	s26.2,11.8,26.2,26.2S1265.4,1074.4,1250.9,1074.4z"/>
<path id="Herbe" fill="#FFFFFF" d="M1478.1,1437.6c-6.9-113-18.2-251-84,24.7c-2.2-32.3-60.9-311-82.5,28.4
	c-15,4-60.1-203.3-79.5,27c-67.6-8.3-50.2-175-110,26.5c-3.1,0.2-6,0-8.9-0.4c-28.3-76.2,27.7-185.6,42.3-222.1
	c-39.1,11.5-100.5,17.5-169.4-6.9c31.2,31.2,84.1,144,72.6,247.4c-2.1,3.5-4.3,7.5-6.6,12.1c-5.6-22.9-106.6-153.6-66-21.1
	c-46.3-68.5-70.3-167.1-99-18c-7.9-21.8-73.9-226.4-103.5-18.5c-28.4-26-98.4-274.7-79.5-15.9c-75.6-241.4-108.3-207.4-103.5-31.6
	c-89.4-192.5-69,47.5-69,47.5s225,236,564,188s487.5-267,487.5-267S1552.5,1061.3,1478.1,1437.6z"/>
</svg>
