<svg xmlns="http://www.w3.org/2000/svg" width="2048" height="2048" viewBox="0 0 2048 2048"><g><circle fill="#fff" cx="1024" cy="1026" r="970"/><ellipse stroke="#F8973A" stroke-width="35" stroke-miterlimit="10" cx="1024" cy="1026" rx="969" ry="969.4" fill="none"/><linearGradient id="a" gradientUnits="userSpaceOnUse" x1="1024" y1="128.841" x2="1024" y2="1923.241"><stop offset="0" stop-color="#BCD74E"/><stop offset="1" stop-color="#89C540"/></linearGradient><circle fill="url(#a)" cx="1024" cy="1026" r="897.2"/></g><path fill="#fff" d="M1676.1 764.1c-40.5-20.1-137.5-37.7-262.3-50.2 1-23.2.5-54.2-5.7-85.8-69.5-56.5-135.9-51-147.9-26.5-6.9 14-11.9 61.5-15 99.6-153.4-8.3-325-9.5-479.8-.3.8-26.8 0-59.3-5.7-88.3-72-66-166.5-31.5-178.5-7-7.8 15.9-10.3 75-11.1 114.4-85.6 12.4-157.6 29.9-206.4 53.1-25.5 45.9-16.5 255 0 285 41.2-5.4 113.1-11.1 203.8-15.8-46.2 102.8-80.9 273.3-76.9 288.3 5 19 52 83 71 80 16.7-2.6 27.2-227.3 78-371.7 20.5-.8 41.6-1.6 63.3-2.3 30.8 107.3 61.3 351 69.7 351 10 0 59-55 68-76 6.6-15.4-38.5-172.6-76-276.8 151.1-3.9 323-4.2 485.1 2.4-47.1 102.9-84 272.5-80.1 287.4 5 19 52 83 71 80 16.4-2.6 23.8-220 71.7-364.5 10 .5 19.9 1.1 29.8 1.7 31.5 90.6 60.7 346.8 69.5 346.8 10 0 58-56 67-77 6.4-15-29.6-158.1-70.8-265.4 106.3 8.1 202.7 20.2 278.9 37.4 19.4-27 50.9-288-10.6-319.5zm-1054-117.5c3.4-12.7 65.5-8.5 97-7 11.5.3 9.5 35.3 6.1 64-36.1 2.6-71 5.9-104.3 9.8-1.1-17.4-2.7-52.2 1.2-66.8zm676-7c3.4-12.7 52.4 5.5 76.4 18 3.2 10.6 2.6 33.8 1.4 52.8-28.3-2.5-57.9-4.7-88.3-6.7 2.5-19.2 6.9-50.8 10.5-64.1z"/></svg>