<svg xmlns="http://www.w3.org/2000/svg" width="2048" height="2048" viewBox="0 0 2048 2048"><g><circle fill="#fff" cx="1024" cy="1026" r="970"/><ellipse stroke="#F8973A" stroke-width="35" stroke-miterlimit="10" cx="1024" cy="1026" rx="969" ry="969.4" fill="none"/><linearGradient id="a" gradientUnits="userSpaceOnUse" x1="1024" y1="128.841" x2="1024" y2="1923.241"><stop offset="0" stop-color="#BCD74E"/><stop offset="1" stop-color="#89C540"/></linearGradient><circle fill="url(#a)" cx="1024" cy="1026" r="897.2"/></g><path fill="#fff" d="M1549.4 1026.2c0-320.9-291.5-567.5-607.5-516.8-259 41.6-452.1 278.8-439 543 7.4 151.4 82.2 294.4 202.1 387.5 334.1 259.4 844.4 20 844.4-413.7zm-692.9-335.6c18.5-73.2 88.4-161.8 169.3-161.8 96.6 0 192.1 28.4 272.8 81.4-68.9 54-94.2 110.6-134.9 185.3-20 36.7-72.8 47.8-110.6 51.2-95.7 8.8-226.8-36.4-196.6-156.1 19.9-78.7-47 186.2 0 0zm-328.1 335.6c0-53.6 8.6-107.2 25.6-158 9.4-28.1 21.4-55.4 35.7-81.4 16.6-30.2 45.9-22.8 76.7-14.1 87.8 24.9 116.6 124.3 200 162 104.9 47.4 210.8-.2 318.1-5.1 74.8-3.4 112.7 49.1 116.6 120.6 10.4 188.3-183.3 254.4-338.2 238.3-87.1-9.1-173-35.7-250.3-76.7-61.7-32.7-184.2-106.1-184.2-185.6zm126.8 331.6c25.4-39.8 95.5-51.3 136.3-40 96.7 26.8 127.6 118.1 162.4 200.6-114.8-16.7-221.5-74.3-298.7-160.6.1-.3 75.9 84.8 0 0zm752.5-156.1c40-69 49.4-145.5 19.4-219.8-19.7-48.8-67.1-104.8-55.6-160.6 7-33.8 37.7-58.1 66.3-74 29.3 43.2 51.8 91.1 66.2 141.3 25.6 89.3 25.6 185.7 0 275-48.1 167.5-188.2 297.8-357 341.2-19.5-131.2 198.1-195.1 260.7-303.1z"/></svg>