<svg xmlns="http://www.w3.org/2000/svg" width="2048" height="2048" viewBox="0 0 2048 2048"><g><circle fill="#fff" cx="1024.5" cy="1026.8" r="970"/><ellipse stroke="#F8973A" stroke-width="35" stroke-miterlimit="10" cx="1024.5" cy="1026.8" rx="969" ry="969.4" fill="none"/><linearGradient id="a" gradientUnits="userSpaceOnUse" x1="1024.499" y1="129.641" x2="1024.499" y2="1924.042"><stop offset="0" stop-color="#5DC8ED"/><stop offset="1" stop-color="#3C99D4"/></linearGradient><circle fill="url(#a)" cx="1024.5" cy="1026.8" r="897.2"/></g><circle fill="#fff" cx="403" cy="929.1" r="36.5"/><circle fill="#fff" cx="472" cy="997.5" r="36.5"/><circle fill="#fff" cx="542" cy="1052.1" r="36.5"/><ellipse fill="#fff" cx="532" cy="1218.1" rx="36.5" ry="27.8"/><ellipse transform="matrix(.124 -.992 .992 .124 -508.213 1629.009)" fill="#fff" cx="668.9" cy="1102.5" rx="30.6" ry="23.9"/><ellipse transform="matrix(.124 -.992 .992 .124 -465.639 1717.922)" fill="#fff" cx="740.6" cy="1122.8" rx="30.6" ry="23.9"/><ellipse transform="matrix(.124 -.992 .992 .124 -398.257 1591.986)" fill="#fff" cx="702.9" cy="1021.7" rx="30.6" ry="23.9"/><ellipse transform="matrix(.124 -.992 .992 .124 -334.25 1475.498)" fill="#fff" cx="668.9" cy="927.1" rx="30.6" ry="23.9"/><ellipse transform="matrix(.124 -.992 .992 .124 -290.571 1549.649)" fill="#fff" cx="732.8" cy="939.5" rx="30.6" ry="23.9"/><path fill="#fff" d="M1693 816.6c-46.5-160.5-541.5-426.3-631.5-426-59.4 9.9-255.9 332.8-318.7 445.3-9.7-3.6-21-7-33.8-10.2-33.5-8.5-72.7-14.3-94.9-16l-.8-.1h-.8c-5.7 0-15.1-.2-27-.4-20.6-.4-48.8-1-78.9-1-43.8 0-78.5 1.2-106 3.7-29.2 2.7-61.1 7.3-75.3 21.1-11 10.6-19.2 30.3-25 60.1-4.9 24.9-7.9 55.8-8.7 89.2-1.7 73.5 7.3 143.8 24.2 188.1l1 2.7 1.8 2.3c49.1 62.8 96.6 95.2 122 112.6 3.4 2.4 6.4 4.4 8.9 6.1l4.3 3 5.2.4c1.5.1 3.2.2 5.4.2 20.6 0 86.6-5.8 150.1-14.3 118.5 227.6 553.2 356.4 659 336.6 131.5-65.4 422.1-662.4 419.5-803.4zm-661.6-290.1c32.8-43 66.3-13.9 66.3 11.3 43-22.7 54.7 15.6 41.7 39-13.2 23.7-44.2 40.9-90 49.1-19.8-38.1-35.1-77.1-18-99.4zm-681.6 626.4c-14.1-39.7-21.8-104.1-20.3-169.6 1.8-75.3 14.5-115.2 22.1-122.8 1.1-.9 10.5-6.9 54.4-10.8 25.7-2.3 59.6-3.4 100.6-3.4 29.6 0 57.6.6 78.1 1 1.9 0 3.7.1 5.4.1 2.6 17.7 8.5 60.7 11.5 108 2.8 44.3 4.7 123-13.6 156.4-7.8 8.2-35.7 25.8-132.3 35.5-45.9 4.5-89.3 5.4-105.9 5.6zm263.7 92.3c-63.9 8.6-126.5 14.1-146.9 14.5-1.4-1-3-2-4.6-3.1-17.9-12.2-47.4-32.4-80.3-66.4 21-.7 48.5-2.2 77.4-5.1 35.8-3.6 66.3-8.7 90.7-15.1 23.3-6.1 41.1-13.5 54-22.3l126 76.4c-22 6-59.6 13.5-116.3 21.1zm148.4-46.2l-134.9-81.7c13-34 17.2-89.3 12.4-164.7-2.7-43.1-7.7-81.9-10.7-103.1 19.6 2.5 44.9 6.7 67.8 12.4 48.5 11.9 58.5 22.8 59.9 24.7 2.6 12.8 12.6 85.4 16 159.5 4.1 89.3-3.2 132.3-10.5 152.9zm489.9 284.8c-13.2 23.7-44.2 40.9-90 49.1-19.7-38.1-35-77.1-18-99.4 32.8-43 66.3-13.9 66.3 11.3 43-22.7 54.7 15.6 41.7 39zm142.7-431.7c-48.3 87-162 150-330 180-72.4-139.8-128.5-282.7-66-364.5 120.4-157.5 243-51 243 41.3 157.6-83.3 200.6 57.4 153 143.2zm188.3-225.3c-13.2 23.7-44.2 40.9-90 49.1-19.7-38.1-35-77.1-18-99.4 32.8-43 66.3-13.9 66.3 11.3 43-22.7 54.7 15.6 41.7 39z"/></svg>