<svg xmlns="http://www.w3.org/2000/svg" width="2048" height="2048" viewBox="0 0 2048 2048"><g><circle fill="#fff" cx="1009.5" cy="1026.1" r="970"/><ellipse stroke="#F8973A" stroke-width="35" stroke-miterlimit="10" cx="1009.5" cy="1026.1" rx="969" ry="969.4" fill="none"/><linearGradient id="a" gradientUnits="userSpaceOnUse" x1="1009.5" y1="128.94" x2="1009.5" y2="1923.341"><stop offset="0" stop-color="#B87CB5"/><stop offset="1" stop-color="#924A9C"/></linearGradient><circle fill="url(#a)" cx="1009.5" cy="1026.1" r="897.2"/></g><g fill="#fff"><path d="M1274.6 1557.5c-110.4 0-230.1-6.8-326.4-14.1-103-7.8-193.7-17.1-247.8-23.1 46.6 55.4 100.4 106.7 160.8 156 41.7 12.1 78.9 17 109 18.5v60s9.5 11 53.8 11c43.7 0 52.7-11 52.7-11v-60c30.3-1.4 67.8-6.3 110-18.5 46.8-38.2 89.6-77.6 128.1-119.1-13.1.2-26.6.3-40.2.3z"/><path d="M1333.4 1536.8c28.1-31.9 53.8-65.2 77-100.1-348.9-41.2-646.2-126.4-886.6-254 32.5 121.6 86 224.1 158.5 315.5 49.2 5.6 150.5 16.5 267.5 25.3 113.4 8.6 259.2 16.5 383.6 13.3z"/><path d="M915.1 1022.5c-110.1 9.8-210.2 12.7-292.1 12.7-49.7 0-92.7-1.1-127.2-2.3 5 43.3 12.2 84.3 21.4 123.5 243.1 132.5 546.8 220.3 905.3 261.6 89.2-142.3 137.5-312.6 138.3-535.5-189.6 71.7-406.1 118.7-645.7 140z"/><path d="M913.3 1002.6c240.7-21.5 457.9-69 647.4-141.5-.5-47.8-3.1-98-7.9-150.8-74.4 34.5-315.5 80.5-528.8 80.5-199.4 0-454.3-46-528.8-80.5-10.2 111.8-10.5 211.9-1.6 302.5 90.6 3.4 242 5.7 419.7-10.2z"/><path d="M1123.5 430.1c-32.5 16.3-74.2 26.9-97.3 26.9-13.1 0-24.6-1.6-34.2-3.7-23.3-5.2-51.6-21-63.8-28.2-207.7 28.6-352.3 170.6-416.1 257.3 159.1 84 729.1 128 1025.1 0-74.5-112.7-210-219.4-413.7-252.3z"/><path d="M998.6 429.1c26.4 5.6 53.4 3.2 80.6-7.1v-127.7s-12.7-13.3-53.5-12c-40.8 1.3-53.5 12-53.5 12v126.2c6.8 3 15.7 6.3 26.4 8.6z"/></g></svg>