<svg xmlns="http://www.w3.org/2000/svg" width="2048" height="2048" viewBox="0 0 2048 2048"><g><circle fill="#fff" cx="1024.5" cy="1026.8" r="970"/><ellipse stroke="#F8973A" stroke-width="35" stroke-miterlimit="10" cx="1024.5" cy="1026.8" rx="969" ry="969.4" fill="none"/><linearGradient id="a" gradientUnits="userSpaceOnUse" x1="1024.499" y1="129.641" x2="1024.499" y2="1924.042"><stop offset="0" stop-color="#5DC8ED"/><stop offset="1" stop-color="#3C99D4"/></linearGradient><circle fill="url(#a)" cx="1024.5" cy="1026.8" r="897.2"/></g><path fill="#fff" d="M526 708.5c22.9-30.3 34.5-72.6 37.4-142.8-24.1 7.7-47.8 16.9-70.9 28-39.2 49.5-79.1 115-108.6 192.1 77.3-22.5 117.4-44.7 142.1-77.3zM1633.5 1249.6c-57.4-15.4-98.2-32.4-122.4-64.4-12.5-16.6-20.6-36.6-25.3-63.1-2.7-15-4.3-32.5-4.9-53.7-169.3-44.7-357.9 14.8-387 31.5-9.7 5.5-11 24.4-15.9 31-23.7-5.7-51.9-15.5-60.2-9.5-14.4 10.3-6.2 27.5-6.2 27.5l-341.6 1.4c1.9-6 3.7-12.1 5.5-18 151.3 16.2 184.7-56.5 169.4-142.1 15.8-.2 32.3-.5 49.3-.8-2.3-29.7-4.3-72.2 2-78.2 9.8-9.3 39.3-12.7 53.4 0 8.8 7.9 11.6 47.9 12.5 76.7 11.2-.3 22.4-.6 33.6-1-3.9-29.7-8.8-76.3-2.1-82.6 9.8-9.3 39.3-12.7 53.4 0 9.1 8.2 13.5 51.1 15.5 80.1 8.7-.4 17.3-.8 25.7-1.3-4.2-30.2-9.8-79.9-2.5-86.4 10.5-9.5 42-13 57 0 9.7 8.4 14.4 51.8 16.5 81.5 34.8-3.3 58.3-7.4 62.6-12.5 15.3-18.3-1-126.3-8-180 51.6 3.7 50-52.8 50-52.8l400-23.2-17.8-52.3-374.3 16.2s11.8-25-9-39.8c-12-8.6-52.7 5.6-87 13.8-7-9.5-9-36.9-23-44.9-42.1-24.2-314.9-110.2-559.8-45.5-.9 30.6-3.3 55.9-7.1 77.6-6.8 38.3-18.4 67.3-36.5 91.2-35 46.3-94 70.9-177 93.2-15.9 48.6-27.4 101.2-32.2 156.9 48.6 8.7 132.1 12.3 132.1 12.3s-82 124.5-65.5 185.1 89 142 157 142.4c40.3-14.2 71.1-68 93.7-127.9l360 2.2s-1.1 39.1 34.6 36.5c-4.8 37.1-16.1 111.8-5.5 124.4 3 3.5 19.2 6.4 43.3 8.6 1.4-20.5 4.7-50.5 11.4-56.3 10.4-9 32.1-6.6 39.4 0 5 4.5 1.1 38.9-1.7 59.8 5.8.3 11.7.6 17.7.9 1.3-20 4.4-49.7 10.7-55.4 9.7-8.8 30.1-6.4 36.9 0 4.6 4.3 1.2 36.6-1.5 57.1l23.2.7c.6-19.9 2.6-47.5 8.6-53 9.7-8.8 30.1-6.4 36.9 0 4.4 4.1 2.9 33.6 1.4 54.1 11.7.2 23.2.4 34.1.6-10.6 59.2 12.5 109.5 117.1 98.3 15.9 54.5 41.1 114 77.5 126.8 47-.3 97.1-56.6 108.5-98.4 11.4-41.9-45.3-128-45.3-128s57.7-2.5 91.3-8.5c-3.5-38.8-11.5-75.2-22.5-108.8zm-926.8-258.3s45.5 0 109.5-.8c13.9 77.4-37.3 110.6-124.8 79.9 10.5-45.6 15.3-79.1 15.3-79.1zm619.7 376.8c44.3.5 75.7.5 75.7.5s3.3 23.2 10.5 54.7c-60.4 21.3-95.8-1.7-86.2-55.2zM1527.1 1173.1c-15.9-21-23.8-50.2-25.9-98.7 16.7 5.3 33.1 11.7 49 19.3 27.1 34.3 54.7 79.5 75.1 132.8-53.4-15.5-81.1-30.8-98.2-53.4z"/></svg>