<svg xmlns="http://www.w3.org/2000/svg" width="2048" height="2048" viewBox="0 0 2048 2048"><g><circle fill="#fff" cx="1024" cy="1024" r="970"/><ellipse stroke="#F8973A" stroke-width="35" stroke-miterlimit="10" cx="1024" cy="1024" rx="969" ry="969.4" fill="none"/><linearGradient id="a" gradientUnits="userSpaceOnUse" x1="1024" y1="126.8" x2="1024" y2="1921.201"><stop offset="0" stop-color="#FFD022"/><stop offset="1" stop-color="#FAA71C"/></linearGradient><circle fill="url(#a)" cx="1024" cy="1024" r="897.2"/></g><g fill="#fff"><path d="M1609 1224.2c-34.6 29.4-71.2 50.3-108.7 62.2-74.1 23.6-151.9 12.5-231.3-32.8-23.1 27.2-62.8 55.8-107.4 76.8-51.6 24.3-106.1 37.2-156.1 37.2-8 0-16-.3-23.7-1-43.7-3.8-83-17.9-117-41.9-34.5-24.4-63.2-59-85.6-102.9-97.7 52.4-187.6 63.2-267.4 32.1-34.3-13.4-66.6-34.6-96.1-63-18.8-18.1-36.4-39.2-52.5-62.9 42.8 133.1 205 512.6 665.2 512.6 441.7 0 605.1-349.6 654.1-495.4-23 30.6-47.8 57.1-73.5 79z"/><path d="M377.8 1095.2c17.9 28.7 37.8 53.7 59.3 74.4 26.5 25.5 55.4 44.5 85.8 56.3 74.7 29 160.7 16.2 255.5-38l14.3-8.2 6.8 15c21 46.1 48.8 81.6 82.6 105.5 29.6 20.9 64 33.2 102.3 36.5 50.9 4.4 109.3-7.5 164.4-33.5 46.2-21.8 86-51.6 104-77.8l8.1-11.7 12.1 7.4c75.6 46.3 149 58.6 218 36.7 33.7-10.7 66.7-29.6 98.2-56.3 25.5-21.6 50.1-48.3 73-79.4 10.2-13.8 19.2-27.3 26.9-39.8h-269.7c14.9-57.9 9.2-114.5-.5-157.2-19 38.2-40 61.1-64.4 70-24.1 8.8-49.4 3.2-75.1-16.8-12.6 16.7-29.2 30.8-48.9 41.4-24.1 13-52.3 20.3-81.3 21.2-2.1.1-4.1.1-6.1.1-62.3 0-119.7-28.9-157.4-78.6-67.1 46-131.7 58.9-192.4 38.3-35.5-12.1-69.4-35.7-100.7-70.4-15.4-17-30.2-36.6-44.3-58.7-12.2 37.5-34 122.8-16 210.7h-262.2c2.4 4.4 5 8.6 7.7 12.9z"/><path d="M802.9 972.4c25.5 8.7 52.4 10.2 79.8 4.5 31.2-6.5 64-22.5 97.6-47.4l12.9-9.6 8.7 13.5c17 26.5 39.4 46.7 66.6 60.2 24.6 12.2 52.2 18.3 79.8 17.4 50.2-1.5 94.2-25.4 114.9-62.4l9.5-16.9 14 13.4c21.8 21 40.7 28.2 57.6 22 21.9-8 43-38.2 61.6-87.1-6.2-17.7-11.3-28.1-11.3-28.1h-162.3c5.7-29.5 5.8-59.8 3.4-86.8-8.5-2.7-16.9-6.7-25.2-12-21.8 39.1-52.7 62.8-88.5 67.2-4 .5-8 .7-12.1.7-19 0-38.5-5.4-57.9-16.2-19.8-11-39.4-27.5-58.2-49.2-20.8 20.7-43.2 29.2-66.8 25.3-33-5.4-65.7-35.5-97.2-89.6-6.8 31.8-18.7 100.2-11.3 160.5h-147.4c49.1 78.6 97.8 109.1 131.8 120.6z"/><path d="M919.3 470.5c-8.5 8.5-12.7 116.8-1.8 124 6 4 15.7 0 17.8 1.5 4.7 8.4 1.9 51.1-.3 77.3h-81c26.6 46.5 54.2 74.2 77.9 78 16.9 2.8 33.5-6.4 50.6-28.1l11.8-15 11.8 15.1c37.2 47.7 77.1 71.5 112.3 67.2 29.7-3.6 55.6-27.1 73-66.1l8.1-18.1 15.2 12.7c5.6 4.6 11.1 8.5 16.6 11.5-5.8-34-13.6-57.2-13.6-57.2h-127l-.3-7.9c13.2-1.8 49-7.5 55.4-18.6 9-20.7-36.5-175.8-44.4-182.1-3.1-2.4-6.8-3.7-10.2-4.3 10.5-5.8 17.7-17.1 17.7-29.9 0-18.9-15.3-34.2-34.2-34.2s-34.2 15.3-34.2 34.2c0 13.8 8.2 25.7 19.9 31.1-2 .7-4 1.7-5.8 3.1-7.9 6.3-53.4 161.4-44.4 182.1 7.9 13.7 60.3 19.2 60.3 19.2v7.3h-89.8c-2.2-26.2-5-68.8-.3-77.3 2.1-1.5 11.7 2.5 17.8-1.5 10.9-7.2 6.7-115.5-1.8-124l-19.6-5.8-1.7-1.5c11.2-6.6 18.6-18.8 18.6-32.7 0-21-17-38-38-38s-38 17-38 38c0 15 8.7 28 21.4 34.2-.2 0-11.3-2.7-19.8 5.8z"/></g></svg>