<svg xmlns="http://www.w3.org/2000/svg" width="2048" height="2048" viewBox="0 0 2048 2048"><g><circle fill="#fff" cx="1024" cy="1024" r="970"/><ellipse stroke="#F8973A" stroke-width="35" stroke-miterlimit="10" cx="1024" cy="1024" rx="969" ry="969.4" fill="none"/><linearGradient id="a" gradientUnits="userSpaceOnUse" x1="297.5" y1="2526.201" x2="297.5" y2="731.8" gradientTransform="matrix(1 0 0 -1 726.5 2653)"><stop offset="0" stop-color="#F27FA2"/><stop offset="1" stop-color="#EF4867"/></linearGradient><circle fill="url(#a)" cx="1024" cy="1024" r="897.2"/></g><g fill="#fff"><path d="M317.3 845.5c-3.3 20.4 17.8 21.3 17.8 21.3l1366.7.1s22.2-1 26.6-20.9c-61.4-200.4-297-503.8-707.6-503.8s-651.2 327.4-703.5 503.3z"/><path d="M1630.5 1538.5v-130s-2-29.4-30-29c-6.6-.1-23.3-.2-47.1-.3 66.2-94.6 31-275.5-41.2-405.7 87.7-18.9 73.4-75.9 73.4-75.9h-277.5s-11.8 56.1 72.6 75.4c-72.3 130.2-107.7 311.3-41.5 406.1-71.4 0-146.2.1-208.8.2 66.3-94.6 31.1-275.5-41.1-405.8 87.7-18.9 73.4-75.9 73.4-75.9h-277.6s-11.8 56.1 72.6 75.4c-72.4 130.3-107.7 311.5-41.4 406.3-62.8-.1-137.6-.2-208.8-.2 66.1-94.7 30.9-275.4-41.3-405.6 87.7-18.9 73.4-75.9 73.4-75.9h-277.5s-11.8 56.1 72.6 75.4c-72.3 130.3-107.7 311.4-41.4 406.2-23 .1-39.1.2-45.6.3-28-.4-30 29-30 29v130s-3.8 23.1 24 22c38.7 1.6 446.8 1.1 582.4.8 135.7.2 543.7.8 582.4-.8 27.8 1.1 24-22 24-22z"/></g></svg>