<svg xmlns="http://www.w3.org/2000/svg" width="2048" height="2048" viewBox="0 0 2048 2048"><g><circle fill="#fff" cx="1024.5" cy="1026.8" r="970"/><ellipse stroke="#F8973A" stroke-width="35" stroke-miterlimit="10" cx="1024.5" cy="1026.8" rx="969" ry="969.4" fill="none"/><linearGradient id="a" gradientUnits="userSpaceOnUse" x1="1024.499" y1="129.641" x2="1024.499" y2="1924.042"><stop offset="0" stop-color="#5DC8ED"/><stop offset="1" stop-color="#3C99D4"/></linearGradient><circle fill="url(#a)" cx="1024.5" cy="1026.8" r="897.2"/></g><path fill="#fff" d="M1643.4 1289l8-115.8c4.7-.8 9.4-1.5 14-2.3 28.8-4.6 56-9 79.9-12.7l-5.6-36.6c-24 3.7-51.3 8.1-80.2 12.7-119.5 19.2-268.2 43.1-404.1 54.8-73.5 6.3-135.4 8.2-184.1 5.6-54.5-2.9-93.6-11.3-116.3-24.9-22.1-13.2-42.5-27-61.3-41.4 42.1-29.5 81.5-59.5 118-89.8 74.9-62.4 135.5-124.8 179.9-185.4 46.8-63.7 74.9-124.5 83.7-180.7 6-38.2 2.9-74.4-9.1-107.4-12.4-34.2-34.5-65.3-65.6-92.4-90-78.4-200.6-97.8-311.2-54.6-71.4 27.8-139.3 81.4-191 150.8-25.8 34.6-47.1 72.3-63.3 112.1-16.8 41.2-27.8 83.8-32.5 126.4-8.7 78.3 3.2 153.2 35.6 222.8 7.1 15.3 15.2 30.2 24.1 44.6-85.1 44.1-180.5 88.9-285.7 134l14.6 34c16.2-7 38.1-17 63.9-29.1v116.1c-10.1 4.8-19.1 8.9-26.9 12.2l14.6 34c110.1-47.3 215.4-100.7 312.8-158.6 7.9-4.7 15.8-9.5 23.6-14.2 11.7 9.2 24 18.2 36.9 26.9 106.7 72.1 253.4 112.7 436.1 120.6 123.2 5.4 258.7-3.7 414.2-27.7l-5.6-36.6-17.4 2.6zm-33.4 4.7c-82.8 11.3-159.7 18.1-232 20.4v-100.8c82.7-10.2 165.5-23 240-34.8l-8 115.2zm-491.9-60.9c4.8 0 9.7 0 14.7-.1l-13.2 68.1c-47.5-7.3-91.5-17.5-132.2-30.4l18.3-45.6c30.6 5.3 67.9 8 112.4 8zm-145-15.6l-17 42.4c-31.8-11.8-61.2-25.4-88.3-40.9l33.4-39.2c11.1 7.6 22.7 14.9 34.7 22.1 10.3 6.1 22.7 11.3 37.2 15.6zm39.2-229.1l-30.5-68.3c47.5-37.2 88.9-70.8 119.8-105.3 4.3-4.8 8.5-9.7 12.5-14.5l31.3 52.5c-35.8 44.3-81.4 88.5-133.1 135.6zm-373.5-171.2l62.2 5.3c-2.6 35.1 0 69.4 7.9 102.8l-61.9 18.3c-9.7-40.7-12.5-83-8.2-126.4zm33.8-129.8l51.4 31.6c-8.6 23.2-15 47-19 70.7l-61.6-5.3c5.4-30.1 14.1-60.1 26.1-89.3 1-2.6 2-5.1 3.1-7.7zm66.9 122.1c8.2-66.4 38-133.8 83.9-189.8 42.7-52 96.8-90.8 148.6-106.5 17.2-5.2 33.7-7.8 49.2-7.8 9.4 0 18.5 1 27.3 2.9 24.2 5.3 45 18 62 37.7 33.1 38.3 44.1 78.8 33.7 123.9-8.6 37.4-32.2 77.9-70.3 120.4-38.1 42.6-91 87.7-157.3 134-39.9 27.8-84.5 56.1-133.7 84.7-3.1-5.1-6-10.3-8.8-15.4-30.9-57.8-42.5-119.7-34.6-184.1zm70-230.3l-22.8-52.8c28.3-25.7 59-46.9 90.9-62.6l-18 65.6 2.9.8c-18.5 14.3-36.3 30.7-53 49zm261.6-137c32 9.1 62.5 24.9 91.1 47l-45 11.9c-17.9-14.4-38.2-24.1-60.9-29.1-3-.7-6.1-1.2-9.2-1.7l24-28.1zm95.7 382.4l-31.2-52.4c22.7-32.3 37.6-63.8 44.6-94.1.9-3.8 1.6-7.5 2.2-11.2l44.4 46.4c-12.1 35.2-32.2 72.4-60 111.3zm64.7-246.7c9.8 27.1 12.3 57.1 7.3 89.1-.5 3.1-1 6.1-1.6 9.2l-53.1-55.4c-3.4-32.6-16.9-63.6-40.1-92.6l47.8-12.7c18.3 19.1 31.6 40.1 39.7 62.4zm-227.5-145.1c10.1 0 20.2.6 30.2 1.9l-29.1 34.4c-14.2 1.3-28.9 4.2-43.8 8.7-20.4 6.2-40.7 15.2-60.5 26.7l15.6-56.6c29.3-10 58.7-15.1 87.6-15.1zm-275.9 158.4c10.5-14 21.6-27.4 33.4-39.9l24.3 56.3c-19.3 25.2-35.8 52.4-48.9 80.6l-50.1-30.8c11.9-23.1 25.7-45.3 41.3-66.2zm-72.1 384.1l62-18.3c6.2 18.3 14.1 36.3 23.5 53.9 2.9 5.5 6 10.9 9.3 16.3-18 10.1-36.5 20.2-55.6 30.4-8.8-13.9-16.6-28.3-23.4-43-6.1-12.8-11.3-26-15.8-39.3zm-167.8 222.9c68-32.7 153.9-75.7 233.3-117.5l13.9 97.8c-89 52.2-181.3 102.4-247.2 135.3v-115.6zm277.9-37.9l-13.6-96.1c83-44.4 154.9-85.7 185.3-109.6 5.8-4.6 11.5-9.1 17.2-13.5l31.5 70.6c-42.2 37.6-127.5 93.2-220.4 148.6zm46.7 22.2c16.6-10.5 32.9-21.2 48.9-31.9 4.1 3.3 8.4 6.6 12.7 9.8l-34.9 40.9c-.9-.6-1.8-1.2-2.6-1.8-8.3-5.5-16.3-11.2-24.1-17zm441 131.4c-35.3-1.5-69.1-4.3-101.5-8.3l14.3-73.5c28.3-1.1 59-3 92.1-5.8 28.4-2.4 57.3-5.4 86.3-8.7v97.6c-31.2.4-61.6 0-91.2-1.3z"/></svg>