<svg xmlns="http://www.w3.org/2000/svg" width="2048" height="2048" viewBox="0 0 2048 2048"><g><circle fill="#fff" cx="1024.5" cy="1026.8" r="970"/><ellipse stroke="#F8973A" stroke-width="35" stroke-miterlimit="10" cx="1024.5" cy="1026.8" rx="969" ry="969.4" fill="none"/><linearGradient id="a" gradientUnits="userSpaceOnUse" x1="1024.499" y1="129.641" x2="1024.499" y2="1924.042"><stop offset="0" stop-color="#5DC8ED"/><stop offset="1" stop-color="#3C99D4"/></linearGradient><circle fill="url(#a)" cx="1024.5" cy="1026.8" r="897.2"/></g><path fill="#fff" d="M1682.4 912.8c-12.8-127.1-53.8-235.2-122-321.4-57.7-73-134.9-129.7-229.4-168.4-103.4-42.4-229.2-63.8-374-63.8v57c5.3 0 10.6 0 15.9.1v690.3h-8.4s-2.8 40.9 9.5 72.9c-173.2-20.7-256.6 57.8-287.9 113.3-21.3-86.4-138.6-189.2-258-98.2 15.7 12 98.4 134-11.5 214 95 84.5 231.9 28.6 265.5-40.3 69.3 104.3 255.6 123.8 321 112.1-22-20.6-39.4-40.8-52.1-60.4-19.5-30.1-28.5-60-27-88.7 2.1-38.4 22.4-74.4 62-110 12.8-11.5 26.7-22.1 41-32.2-1.3-.5-2.5-1-3.7-1.4-6.9-1.4-13.7-2.7-20.4-3.9-10.6-26.2-.6-77.2-.6-77.2h-9.6v-690c241.7 6.3 417.5 76.9 522.8 210.1 61.3 77.5 98.3 175.7 110 291.8 9.7 96.4 1.4 204.2-24.1 311.6l55.5 13.1c27.1-113.5 35.9-227.7 25.5-330.4z"/><path fill="#fff" d="M1058.8 1205.1c-18.3 12.1-36.2 25.1-51.9 39.2-33.2 29.8-49.7 58.9-51.8 88.6-4.6 65.1 25.8 87.7 83.4 137.6 54.5-19.9 140.7-77.2 147-110.9-16.3-57-71.4-121-126.7-154.5z"/></svg>