<svg xmlns="http://www.w3.org/2000/svg" width="2048" height="2048" viewBox="0 0 2048 2048"><g><circle fill="#fff" cx="1024.5" cy="1026.8" r="970"/><ellipse stroke="#F8973A" stroke-width="35" stroke-miterlimit="10" cx="1024.5" cy="1026.8" rx="969" ry="969.4" fill="none"/><linearGradient id="a" gradientUnits="userSpaceOnUse" x1="1024.499" y1="129.641" x2="1024.499" y2="1924.042"><stop offset="0" stop-color="#5DC8ED"/><stop offset="1" stop-color="#3C99D4"/></linearGradient><circle fill="url(#a)" cx="1024.5" cy="1026.8" r="897.2"/></g><circle fill="#fff" cx="1018.1" cy="891.6" r="82.5"/><g fill="#fff"><path d="M767.9 621.5c-27-39.9-72.1-60.3-139.5-78.2-10.3 17.9-18.5 37.3-24.2 57.6 65.6 19.4 122.3 30.8 172.1 34.6-2.6-4.9-5.4-9.5-8.4-14zM800.8 749.7c-1.4-32.9-5.4-60.3-12.3-83.2-2.7-.1-5.4-.3-8.1-.5-52.9-3.5-113-15.2-182.7-35.6-2.1 13-3.1 26.4-3.1 40 0 36.1 7.5 70.4 21 101.6 64.9 47.1 125.3 76.4 182.4 88.5 3.3-43.6 4.2-80 2.8-110.8zM792.8 604.7c6.6 9.8 12.3 20.5 17.2 32.3 51.6.3 94.9-8.6 131.8-27.3 41.4-20.9 75.8-54.8 104.5-103.7-46.9-55.9-117.3-91.4-195.9-91.4-83.7 0-158 40.2-204.7 102.4 67.8 19 116.5 42.4 147.1 87.7zM795.5 890.6c-45.8-9.2-93.4-28.6-143.1-58.4 35.2 43.1 84.2 74.4 140.2 87.4 1-10 2-19.7 2.9-29zM906.6 892.8c-16.2 2.7-32.4 4.1-48.8 4.1-7.6 0-15.1-.3-22.8-.9-3.3-.2-6.6-.5-9.9-.9-.9 9.5-1.9 19.3-3 29.4 9.3 1 18.7 1.6 28.2 1.6 20.6 0 40.5-2.4 59.7-7-2.1-8.4-3.3-17.2-3.4-26.3zM1018.1 780.1c15.9 0 31 3.4 44.7 9.4 7.3-5.2 14.6-10.6 21.7-16.2 13.8-31.5 21.6-66.3 21.6-102.9 0-50.9-14.9-98.4-40.6-138.2-30.4 48.3-66.7 82.4-110.3 104.4-38.8 19.6-83.3 29.6-135.4 30.4 12.2 47.1 14.6 109.9 7.8 198.2l9.6.9c23.5 1.8 48.4-.4 73.9-6 13.7-46.2 56.5-80 107-80z"/></g><g fill="#fff"><path d="M699.2 1112.8l-.1.8c29.8 3.8 59.3 11.5 88.2 23-23.4-40.6-54.1-76.5-90.3-105.9 5.2 28 5.9 55.2 2.2 82.1zM469.6 1161.8c53.8-30.9 110.7-47.9 169.2-50.6 10.2-.5 20.3-.5 30.4-.1l.3-2.4c4.6-33.9 1.3-68.6-10.4-105.1-58.7-36.8-128.1-58.1-202.4-58.1-29 0-57.2 3.2-84.4 9.4 2.1 84.3 19.4 164.9 49.3 239 15.4-11.8 31.4-22.6 48-32.1zM640.2 1141.2c-53.7 2.5-106 18.2-155.6 46.6-17.6 10.1-34.6 21.7-50.7 34.7 20.6 45.1 46 87.5 75.5 126.7 37.1-32.7 67.4-63.9 91.3-94.3 30.9-39.1 51.3-76.6 62-114-7.5-.1-15-.1-22.5.3zM790.2 1170.4c-31.7-14.1-64.2-23.2-97-27.2-11.3 43.2-34 86.1-69 130.3-25.3 32.1-57.2 64.9-96.3 99.3 63.3 76.9 142.9 139.8 233.6 183.3 48-63.8 76.5-143.1 76.5-229.1 0-52.4-10.6-102.4-29.7-147.9-6-3.1-12-6-18.1-8.7z"/></g><g fill="#fff"><path d="M1475.1 997.1c-4-12.2-8.7-24.1-14.1-35.4-22.7-47.4-55.5-82.6-94.8-101.7-34.9-17-73.8-20.9-115.5-11.5-17.6 4-35.7 10.3-54 18.9-5.6 8.4-10.8 17.2-15.6 26.2 69.4 47 141.2 79.4 209.3 94.2 29.3 6.4 57.7 9.5 84.7 9.3zM1590.9 1004.9c-23.8 10-49.8 16.6-77.4 19.9 6.4 30.1 9 61.4 7.7 92.3-1.8 41.2-10.6 80.6-25.6 116.2 46-3.5 89.4-13.6 127.3-30.1 48.8-21.1 86.4-51.3 110.8-88 7.4-26.1 11.4-53.6 11.4-82.1 0-50.9-12.7-98.7-35.1-140.7-24.4 51-65.1 89.8-119.1 112.5zM1483.3 1026.9c-3.4.1-6.8.2-10.2.2-28.5 0-58.4-3.3-89.1-10-70.4-15.3-144.4-48.2-215.7-95.9-14 34.6-21.7 72.4-21.7 111.9 0 41.7 8.5 81.4 23.9 117.4 70.6 43.2 148.8 70.9 227.9 80.4 21.3 2.6 42.6 3.8 63.5 3.7 17.3-35.6 27.3-76.1 29.2-118.9 1.5-29.8-1.3-60-7.8-88.8zM1244 819.3c48.5-10.9 94-6.3 135.2 13.8 45.5 22.2 83.1 62.2 108.7 115.7 7.1 14.8 13.1 30.5 18 46.7 26.3-2.7 50.9-8.8 73.3-18.2 33.8-14.2 61.6-35.4 82.7-63.2 12-15.8 21.6-33.5 28.8-52.9-54.1-77-143.7-127.3-244.9-127.3-82.7 0-157.6 33.6-211.8 87.8 3.4-.9 6.7-1.7 10-2.4zM1445 1264.5c-16.6-.5-33.3-1.7-50.1-3.7-67.8-8.2-134.9-29-197.5-60.9 43.1 64.1 110.4 110.7 188.8 126.5 23-16.9 42.7-37.5 58.8-61.9zM1634.8 1230.7c-34.2 14.8-72.1 24.9-112.6 30.1-13.8 1.7-27.8 2.9-41.9 3.5-2.2 4-4.6 7.9-7 11.7-13.2 21-28.7 39.6-46.4 55.8 6.3.4 12.6.6 18.9.6 105.6 0 198.4-54.7 251.7-137.3-18.6 13.7-39.5 25.6-62.7 35.6z"/></g></svg>