<svg xmlns="http://www.w3.org/2000/svg" width="2048" height="2048" viewBox="0 0 2048 2048"><g><circle fill="#fff" cx="1009.5" cy="1026.1" r="970"/><ellipse stroke="#F8973A" stroke-width="35" stroke-miterlimit="10" cx="1009.5" cy="1026.1" rx="969" ry="969.4" fill="none"/><linearGradient id="a" gradientUnits="userSpaceOnUse" x1="1009.5" y1="128.94" x2="1009.5" y2="1923.341"><stop offset="0" stop-color="#B87CB5"/><stop offset="1" stop-color="#924A9C"/></linearGradient><circle fill="url(#a)" cx="1009.5" cy="1026.1" r="897.2"/></g><g fill="#fff"><path d="M1058.8 1035.6c0-49.2-82.5-47.2-118.5-43.9-9.3-65.3-39.3-125.6-86.7-173-57.9-57.9-135-89.9-216.9-89.9s-159 31.9-216.9 89.9c-57.9 57.9-89.9 135-89.9 216.9s31.9 159 89.9 216.9c57.9 57.9 135 89.9 216.9 89.9s159-31.9 216.9-89.9c42.2-42.2 70.6-94.6 82.9-151.7 33.6-2.5 122.3-14.1 122.3-65.2zm-257.5 164.6c-44 44-102.4 68.2-164.6 68.2-62.2 0-120.6-24.2-164.6-68.2s-68.2-102.4-68.2-164.6 24.2-120.6 68.1-164.6c44-44 102.4-68.2 164.6-68.2 62.2 0 120.6 24.2 164.6 68.2s68.2 102.4 68.2 164.6c0 62.2-24.2 120.6-68.1 164.6z"/><path d="M1347.3 1434.7c-19.1-35-44.1-67.8-74.5-97.6-32-31.4-63.2-52.8-82.8-64.8-72.4 81-208.6 126-208.6 227.3 0 60 259 140.7 405.1 48 0 0 .1 0 .1-.1-6.7-39.4-19.9-77.3-39.3-112.8z"/><path d="M1354.1 1181.4c-41.3-19-76.7-32.8-102.2-41.9-.9 38-24.5 60.7-44.2 88-3.2 4.4-5.5 8.1-7.1 11.3 20.1 11.7 56.9 35.7 95.3 73.1 33 32.2 60.2 67.8 81 105.8 22.2 40.4 37 83.6 44.3 128.7 132.3-77.5 157.4-183.3 170.5-223.2-87.8-66.5-174.8-112.8-237.6-141.8z"/><path d="M1669.6 768.9c-.5-.3-1-.6-1.5-1-46-1-97.1 7.9-152.1 26.5-49 16.6-101.1 40.9-154.9 72.2-63.5 36.9-114.2 75-139.7 95.1-7.9 46.2-9.9 93.9 16.3 137 24.9 8.1 71.3 24.4 129.9 51.4 71.1 32.7 172.5 87.2 271.7 167.3 1.1-1.2 2.2-2.4 3.3-3.7 94-105.1 97-498.1 27-544.8z"/><path d="M1390.7 479.9c-43.4 32.2-93.7 90.9-144.9 195.5-38.1 77.9-62.8 153.4-72.7 185.9 10.6 26.8 26.3 40.4 42.1 62.3 28.7-21.9 73.9-54.3 128.9-86.3 55.7-32.4 109.9-57.7 161.1-75 42.5-14.4 83-23.3 121.1-26.8-9.3-50.5-94.5-255.9-213.6-255.9-9.4 0-16.6.1-22 .3z"/><path d="M1165.3 777.9c12.7-34.4 29.4-75.4 50-117.5 30.7-62.6 63.7-114.5 98.2-154.3 12.9-14.8 26-28 39.3-39.5h-.1c-61-18-259-15-359 93.9-59.3 64.6 114.9 133.1 171.6 217.4z"/></g></svg>