<svg xmlns="http://www.w3.org/2000/svg" width="2048" height="2048" viewBox="0 0 2048 2048"><g><circle fill="#fff" cx="1009.5" cy="1026.1" r="970"/><ellipse stroke="#F8973A" stroke-width="35" stroke-miterlimit="10" cx="1009.5" cy="1026.1" rx="969" ry="969.4" fill="none"/><linearGradient id="a" gradientUnits="userSpaceOnUse" x1="1009.5" y1="128.94" x2="1009.5" y2="1923.341"><stop offset="0" stop-color="#B87CB5"/><stop offset="1" stop-color="#924A9C"/></linearGradient><circle fill="url(#a)" cx="1009.5" cy="1026.1" r="897.2"/></g><path fill="#fff" d="M1081.5 1143.6s-1-264.9 6-286.9c-3.7-8.1-55 10-129-78.7-48 28.7-178 0-99-104.3-36-14-63-72 71-93-87-79 100-261 230-141 48-35 151-39 121 60 39-4 110 28 58 99 31-2 97 26 45 102.9 70 22.1 61 160.1-103 132.1-21 18-65.3 50-141 16-7.6 49.7-8 301-8 301l-51-7.1z"/><path fill="#fff" d="M954.5 1017.6c-5.2-4.9-43.8-6.9-91.3-5.8 2-24.4 4.2-101.7-46.7-101.7-46.8 0-47.9 72.5-45.7 107.3-57.3 5.8-106.4 16.1-109.3 31.3-.4 22.9 7 57.2 50 90.8 31.5 24.6 196 19.1 225-4.9 23-19 34.9-101.2 18-117zm-151-3c-1.3-27-1.2-70.5 14-70.5 13.4 0 13.1 43.2 11.8 68.9-8.5.5-17.2 1-25.8 1.6z"/><g fill="#fff"><path d="M898.7 1342.9c13.5-7.6 29.1-16.1 46.2-25.3-36.6-23.6-79.3-47.9-127.8-72.8l-15.4-7.8c-26.9 10.3-50.9 20.3-71.7 29.9 51.8 20.9 96.3 40.3 132.6 57.7 13.2 6.4 25.2 12.5 36.1 18.3zM1010.3 1364c-10.3-8.2-21.4-16.5-33.4-24.9-15.8 8.3-30.4 16.2-43.6 23.4 13.2 8.2 23.9 15.8 32.2 22.9 12.8-6.4 27.7-13.6 44.8-21.4zM687.5 1250.1c22.2-11.6 47.2-22.8 72.9-33.3-28.5-13.6-55.1-25.6-77.8-35.5-46 6.4-85.6 14.1-119.4 22.3 36.4 13.1 79.7 29.1 124.3 46.5zM907 1164.6c-58.8 1.2-111.5 4.3-158.6 8.9 17.6 8.1 36.2 17 55.3 26.4 37.7-14 74.4-26.2 103.3-35.3zM1097 1242.3c-7.4-4.3-15-8.6-22.9-12.9-49.6-26.9-91.2-42.9-105-48-15.9 4.6-66.7 19.5-123.9 39.7 51.6 26.9 96.3 53 134.1 78.4 21.2-11 44.2-22.5 68.4-34.2 16.7-8 33.1-15.7 49.3-23zM1447.5 1238.5c-139.2 43.9-343.8 113.6-477.2 182.7l-11.6 6-8.8-9.7c-47.1-51.8-301.6-148.4-443.5-198.2-84.4 26.7-115.9 53-115.9 53s204 360.4 591 360.4c477 0 633-344.1 633-344.1s-68.3-23.6-167-50.1zM1356.1 1232.2c10-3.3 19.8-6.5 29.5-9.7-29.1-7.2-59.8-14.3-91.4-20.9-39.1 12.4-81 28-125.3 46.4 14.7 10.3 29.6 21.6 44.1 33.8 42.3-15.4 89.8-32 143.1-49.6zM1176 1295.6c-13.2-10.3-27.9-21-44.1-31.7-22.5 9.9-45.5 20.6-69.1 31.9-18.1 8.7-35.5 17.3-52 25.7 12.3 9.1 23.7 18 34.2 26.9 35.7-15.5 78.9-33.2 131-52.8zM1134.9 1225.5c31.9-13.8 62.8-26.1 92.4-37-69.9-12.5-141.6-21.7-208.1-23.6 19.3 8.4 43.7 19.8 70.6 34.3 13.8 7.5 29.1 16.3 45.1 26.3z"/></g></svg>