<svg xmlns="http://www.w3.org/2000/svg" width="2048" height="2048" viewBox="0 0 2048 2048"><g><circle fill="#fff" cx="1024" cy="1026" r="970"/><ellipse stroke="#F8973A" stroke-width="35" stroke-miterlimit="10" cx="1024" cy="1026" rx="969" ry="969.4" fill="none"/><linearGradient id="a" gradientUnits="userSpaceOnUse" x1="1024" y1="128.841" x2="1024" y2="1923.241"><stop offset="0" stop-color="#BCD74E"/><stop offset="1" stop-color="#89C540"/></linearGradient><circle fill="url(#a)" cx="1024" cy="1026" r="897.2"/></g><g fill="#fff"><path d="M1208.4 1169.7c26-9.6 53-16.7 77.4-20.6-6.1-35-21-111.2-41.1-146.2-35.3 5.7-70.2 15-103.4 27.7 37.4 42.8 54.1 113.2 59.6 141.9 2.8-1.1 5.3-2.1 7.5-2.8zM1118.6 1228.5c.8-1.9 1.9-3.8 3.2-5.7 7.4-11.2 21.1-21.4 36-29.9-11.5-26.6-46.3-99.5-92.8-125-30.5 18.6-57.4 40.1-79.8 64 84.9 17.3 120.8 70.8 133.4 96.6zM1360.1 1191.7c3.7-6.2 2.7-9.9 1.2-12.7-3.5-6.6-17.1-10.5-36.5-10.5-29.3 0-69.9 8.5-108.6 22.7-45 16.5-68.4 33.6-75.3 44.1-1.9 2.9-2.6 5.2-1.9 6.7 3.6 8.4 20.2 13.5 44.3 13.5 64.7.1 158.9-33.9 176.8-63.8zM1117.9 1251.2c-114.5-86.9-171 75.3-184.9 123.5 24.8 26.9 55.2 48.2 90.7 63.7l2.6 1.1c8.7-124.8 80.4-161.4 107.9-170.9-7.2-4.1-13-9.7-16.3-17.4zM1258.7 1268.2c-26.7 6.7-53.2 10.4-75.3 10.4-7.2 0-15-.4-22.6-1.6-10.5 20.1-36.1 81.6-25.6 189 14.5 1.4 29.5 2.1 44.9 2.1 25 0 50.6-1.9 76.1-5.5-16.5-93.5-4.3-165.3 2.5-194.4zM1411.2 1173.3s33.9-100.1 126.3-120.1c-10.6-7.1-21.9-13.6-33.9-19.5-24-11.8-50.4-20.9-78.6-27.2-58.5 42.7-77.2 111.2-82.7 140 19.9 2.5 33.2 9.8 39.5 21.7 4.2 7.8 7.2 20.3-1.8 35.3-8.2 13.7-24.2 25.3-41.1 34.6 37 7.3 93.6 39.2 123.7 158.9 47.6-24.6 88.9-54.3 119.4-86.8-75.9-159-170.8-136.9-170.8-136.9zM306.2 998.2c30 841.6 1365.1 952.6 1432.9-24-182.8-73.2-795-123.1-1432.9 24zm99.4 97.4c42-38.9 375.6-117.6 492-64.8 1.6 6.5-31.6 9.4-116.4 10.8-142.7 2.4-370 69-375.6 54zm1126.9-107.6c-26.5-4.3-54.5-6.1-82.5-6.1 23.6 6.4 46 14.8 66.7 24.9 60.5 29.7 105.4 73.3 133.2 129.7 23.5 47.5 19.1 99.8-12.8 151.2-35 56.5-101.5 109.3-187.2 148.9-85.9 39.6-181.7 61.5-269.9 61.5-62.7 0-119.3-10.8-168.3-32.2-54.6-23.8-98.3-60.1-129.8-108l-2.1-3.1-.3-3.7c-5.3-56.3 4.3-110.1 27.9-159-136.9 4.3-301.2 35.1-304.7 22.1 29.7-23.1 185.8-52.2 321.2-51.9 10.3-16.5 22.3-32.3 36-47.3 42-46.1 99.2-84.3 165.5-110.4 55.1-21.7 114.7-34.6 173.9-37.7 101.8-23.7 264-34 410.6 41.7.5 6.6-93.7-6.9-177.4-20.6z"/></g><path stroke="#fff" stroke-width="34" stroke-miterlimit="10" d="M736.1 768.6s632.4-67 986.4 40.5M315.6 843.5s70.5-29.9 163.5-34.4" fill="none"/><path stroke="#fff" stroke-width="41" stroke-miterlimit="10" d="M479.1 945.6c-12-472.5 197.8-619.4 186.4-167M724.1 944.6c-12-472.5 197.8-631.4 186.4-179M478.6 903.3s134.5-28.2 239.3-27.4M487 757.8s146.9-36.2 248-23.9" fill="none"/></svg>