<?xml version="1.0" encoding="utf-8"?>
<!-- Generator: Adobe Illustrator 16.0.0, SVG Export Plug-In . SVG Version: 6.00 Build 0)  -->
<!DOCTYPE svg PUBLIC "-//W3C//DTD SVG 1.1//EN" "http://www.w3.org/Graphics/SVG/1.1/DTD/svg11.dtd">
<svg version="1.1" id="Layer_1" xmlns="http://www.w3.org/2000/svg" xmlns:xlink="http://www.w3.org/1999/xlink" x="0px" y="0px"
	 width="2048px" height="2048px" viewBox="0 0 2048 2048" enable-background="new 0 0 2048 2048" xml:space="preserve">
<g id="PURPLE_x5F_CHILL">
	<circle id="WHITE_x5F_BACK_2_" fill="#FFFFFF" cx="1009.5" cy="1026.1" r="970"/>
	
		<ellipse id="ORANGE_x5F_CIRCLE_2_" fill="none" stroke="#F8973A" stroke-width="35" stroke-miterlimit="10" cx="1009.5" cy="1026.1" rx="969" ry="969.4"/>
	
		<linearGradient id="INSIDE_x5F_COLOUR_1_" gradientUnits="userSpaceOnUse" x1="1009.4995" y1="128.9404" x2="1009.4995" y2="1923.3413">
		<stop  offset="0" style="stop-color:#B87CB5"/>
		<stop  offset="1" style="stop-color:#924A9C"/>
	</linearGradient>
	<circle id="INSIDE_x5F_COLOUR_2_" fill="url(#INSIDE_x5F_COLOUR_1_)" cx="1009.5" cy="1026.1" r="897.2"/>
</g>
<path fill="#FFFFFF" d="M1441.4,702.5l-43.7,37.2c36,42.5,65.2,89.9,87,141.4c28.8,68.1,43.4,140.3,43.4,214.8
	s-14.6,146.8-43.4,214.8c-27.8,65.7-67.6,124.7-118.3,175.4c-50.7,50.7-109.7,90.5-175.4,118.3c-68.1,28.8-140.3,43.4-214.8,43.4
	s-146.8-14.6-214.8-43.4c-65.7-27.8-124.7-67.6-175.4-118.3c-50.7-50.7-90.5-109.7-118.3-175.4c-28.8-68.1-43.4-140.3-43.4-214.8
	s14.6-146.8,43.4-214.8c27.8-65.7,67.6-124.7,118.3-175.4c50.7-50.7,109.7-90.5,175.4-118.3c68.1-28.8,140.3-43.4,214.8-43.4
	c0.2,0,0.3,0,0.5,0l-0.3-57.4c-0.1,0-0.1,0-0.2,0c-336.5,0-609.3,272.8-609.3,609.3c0,336.5,272.8,609.3,609.3,609.3
	c336.5,0,609.3-272.8,609.3-609.3C1585.5,945.9,1531.3,808.6,1441.4,702.5z"/>
<path fill="#FFFFFF" d="M1121.7,351.2c51.1,3.7,125.7,15.1,190.6,48.5c63.1,32.5,118.2,79.3,153.3,112.8
	c8.7,8.3,16.6,16.2,23.6,23.4l53.4-49.3c0,0-30-78-193.5-148.5s-261.2-57-261.2-57l-2.8,68.4
	C1096.3,349.8,1108.6,350.2,1121.7,351.2z"/>
<path fill="#FFFFFF" d="M1445.1,897.9c-20.1-47.5-47-91.2-80.1-130.3l-5,4.3c2.6-38.2,9.6-96.2,28.6-142.8l80.1-74
	c-37-37.9-98.4-93.9-169.2-130.4c-72.8-37.5-159.9-46-215.5-47l-8,194.1c-14.4,32.3-26.7,42.7-99.1,36.3l-0.1-20.9
	c-0.2,0-0.5,0-0.7,0c-68.7,0-135.4,13.5-198.1,40c-60.6,25.6-115,62.3-161.8,109.1c-46.7,46.7-83.4,101.2-109.1,161.8
	c-26.5,62.7-40,129.4-40,198.1s13.5,135.4,40,198.1c25.6,60.6,62.3,115,109.1,161.8c46.7,46.7,101.2,83.4,161.8,109.1
	c62.7,26.5,129.4,40,198.1,40s135.4-13.5,198.1-40c60.6-25.6,115-62.3,161.8-109.1c46.7-46.7,83.4-101.2,109.1-161.8
	c26.5-62.7,40-129.4,40-198.1S1471.6,960.6,1445.1,897.9z M1292.4,829.3c-7.1-3-13.6-7.3-17.9-13.7c-14-21,1.9-95,39.4-100
	c23.4-3.1,25.8,41,24.3,74.7L1292.4,829.3z M1153.9,947.2c-9.5-30.9-12.9-77.3,29.6-117.1c41.6-39,69.8-11.1,86.1,18.6L1153.9,947.2
	z M1264.7,469.7c38.4,0,69.5,31.1,69.5,69.5c0,38.4-31.1,69.5-69.5,69.5c-38.4,0-69.5-31.1-69.5-69.5
	C1195.2,500.8,1226.3,469.7,1264.7,469.7z M1095.6,996.9l-72.6,61.8c-4.7-27.9-5.4-69.8,21.5-100
	C1100.1,896.2,1102.1,948.4,1095.6,996.9z M978.7,983.3l-0.5-111.6c9.7,3.4,18.8,10.7,24.3,25C1011.2,919.2,995.8,954.3,978.7,983.3
	z M1032.5,692.6c25,32,12,117-10,134c-10.6,8.2-28,11.2-44.5,12l-0.8-166C999.9,674.3,1022.2,679.5,1032.5,692.6z M664.6,1349.1
	c-44,0-79.6-35.6-79.6-79.6c0-44,35.6-79.6,79.6-79.6c44,0,79.6,35.6,79.6,79.6C744.2,1313.4,708.6,1349.1,664.6,1349.1z
	 M708.5,1011.6c-53.6,0-97-43.4-97-97s43.4-97,97-97s97,43.4,97,97S762.1,1011.6,708.5,1011.6z M958.5,1325.1
	c-44.5,0-80.6-36.1-80.6-80.6c0-44.5,36.1-80.6,80.6-80.6c44.5,0,80.6,36.1,80.6,80.6C1039.1,1289,1003,1325.1,958.5,1325.1z
	 M1114.6,1496.1c-46.7,0-84.6-37.9-84.6-84.6c0-46.7,37.9-84.6,84.6-84.6s84.6,37.9,84.6,84.6
	C1199.2,1458.2,1161.3,1496.1,1114.6,1496.1z M1284.8,1201.6c-47.3,0-85.6-38.3-85.6-85.6c0-47.3,38.3-85.6,85.6-85.6
	c47.3,0,85.6,38.3,85.6,85.6C1370.5,1163.3,1332.1,1201.6,1284.8,1201.6z"/>
</svg>
