<svg xmlns="http://www.w3.org/2000/svg" width="2048" height="2048" viewBox="0 0 2048 2048"><g><circle fill="#fff" cx="1024.5" cy="1026.8" r="970"/><ellipse stroke="#F8973A" stroke-width="35" stroke-miterlimit="10" cx="1024.5" cy="1026.8" rx="969" ry="969.4" fill="none"/><linearGradient id="a" gradientUnits="userSpaceOnUse" x1="1024.499" y1="129.641" x2="1024.499" y2="1924.042"><stop offset="0" stop-color="#5DC8ED"/><stop offset="1" stop-color="#3C99D4"/></linearGradient><circle fill="url(#a)" cx="1024.5" cy="1026.8" r="897.2"/></g><g fill="#fff"><path d="M1255.5 1071.6c40 3.5 70.5-7.5 89-28-18.1 155.5 243.3 269.2 376.7-13.6-34.9-7.5-69.6-18.6-103.8-33.2-72.1-30.9-140.7-76.8-203.8-136.5-78.1-73.9-144.2-165.7-191.1-265.6-35.8-76.1-58.6-152.7-67.1-224.8-89.7 75-286.9 256.2-74.9 238.7-137.3 131.3-103.3 289.3 68 268-56.7 86.7 46 176 46 176s-58.7 97.3-84 136c-44-20.7-257 0-257 0h-526.4c2.5 12.1 5.3 24.1 8.4 36h335s-183 52.9-293 116.5c112.1 241.8 356.9 409.4 641 409.4 284.8 0 530.1-168.6 641.8-411.3-75.8-40.6-254.9-124.4-478.8-147.6 24-35 57.5-92.5 74-120zM1253.3 580.3c45.2 96.1 108.7 184.4 183.7 255.4 60.2 56.9 125.4 100.6 193.8 129.9 30.4 13 61.1 23 92.1 30-10.5-153-69.7-292.7-162.2-403.5 17.2-23.8 44-63 45.8-77.5 2.7-21.3-15.3-26-28.7-25.3-9.6.5-36.6 41.7-51.1 65-90.7-94.1-207.4-163-338.4-195.4 7.5 70.6 29.6 146.1 65 221.4z"/><circle cx="637.5" cy="692.6" r="216"/></g></svg>