<svg xmlns="http://www.w3.org/2000/svg" width="2048" height="2048" viewBox="0 0 2048 2048"><g><circle fill="#fff" cx="1024.5" cy="1026.8" r="970"/><ellipse stroke="#F8973A" stroke-width="35" stroke-miterlimit="10" cx="1024.5" cy="1026.8" rx="969" ry="969.4" fill="none"/><linearGradient id="a" gradientUnits="userSpaceOnUse" x1="1024.499" y1="129.641" x2="1024.499" y2="1924.042"><stop offset="0" stop-color="#5DC8ED"/><stop offset="1" stop-color="#3C99D4"/></linearGradient><circle fill="url(#a)" cx="1024.5" cy="1026.8" r="897.2"/></g><path fill="#fff" d="M994.5 1060.3c49 146.3 253 201.8 366 76.4 106 95.5 368.5 59.5 352.6-143.4-17.1-218-356.1-160.1-396.6-20.6-69-41.1-196.2-39.3-256.9 20.9.7-71.6 2.7-179 7.8-208.6 78 31.1 123.6 1.8 145.3-14.6 169 25.6 178.2-100.6 106.1-120.8 53.6-70.4-14.4-96-46.4-94.2 53.6-64.9-19.6-94.2-59.8-90.6 30.9-90.6-75.2-86.9-124.7-54.9-133.9-109.8-326.6 56.7-236.9 129-138 19.2-110.2 72.3-73.1 85.1-81.4 95.4 52.5 121.7 102 95.4 76.2 81.1 129.1 64.5 132.9 72-5.5 15.2-6.2 157.4-6.2 225.9-2.6 1.9-5.3 4.1-8.1 6.8-198 0-523.5 73.1-562 230.6-40.4 165.2 317.5 405 835 343 208-50 393-271 399-339-405 192.4-1282.5 22.9-676-198.4zm64.9-35v-.1.1z"/></svg>