<svg xmlns="http://www.w3.org/2000/svg" width="2048" height="2048" viewBox="0 0 2048 2048"><g><circle fill="#fff" cx="1024" cy="1024" r="970"/><ellipse stroke="#F8973A" stroke-width="35" stroke-miterlimit="10" cx="1024" cy="1024" rx="969" ry="969.4" fill="none"/><linearGradient id="a" gradientUnits="userSpaceOnUse" x1="1024" y1="126.8" x2="1024" y2="1921.201"><stop offset="0" stop-color="#FFD022"/><stop offset="1" stop-color="#FAA71C"/></linearGradient><circle fill="url(#a)" cx="1024" cy="1024" r="897.2"/></g><path fill="#fff" d="M1431.3 1421.7c16.9-19.6 23.5-40.7 18.7-59.2-6-22.9-27.1-34.8-43.8-40.8-4.6-1.6-12.6-3.3-35.3-4.1-2.3-15.2-5.5-29.1-9.9-41.3-164.5-173.6-159.5-283-159.5-283s34.8-1 76.4-1c98.4 0 91.7-154.8 1.1-154.8-17.9 0-41.8-.2-67.6-.5l18-162-74.3-.3c-.6-30.8-7.8-204.2-87.9-254.3v-100h-48.8v100c-75.1 46.8-85.4 189.7-86.8 222.3l-126.4-.4 23.2 194.8c-19.8.2-37.8.3-52 .3-90.7 0-97.3 154.8 1.1 154.8 41.6 0 76.4 1 76.4 1s5 109.4-159.5 283c-9 25.3-13.2 57.8-14.2 94.4l-.5.3c-12.7 4.6-28 16.1-36.6 33.2-6.3 12.6-11.4 33.3-1.5 61.4-3.1 15.9-.3 32 8.2 45 3.6 5.5 11.1 14.8 22 16.2 5 .6 10.9 1.3 17.6 1.9 3.5 30.5 7.7 60.9 11.9 90.1 243 101.5 489 74.5 652.6 0 3.5-24.4 7-49.6 10.1-75.1 30.1-2.4 36.7-5.3 40.2-6.8 17.2-7.7 26.8-23.1 26.4-42.4-.4-20.6-12.6-44.2-29.9-62.2h.8c8.9.2 21.5-.9 29.8-10.5zm-751.4 72h-.4c-1.9-2.3-5.1-7.8-5-15.7 2.6-.2 5.6-.4 9.2-.6-1.8 3.9-3.3 9.3-3.8 16.3zm2.2-49.4l-10.9.8c-2-9.8-1.2-18.3 2.4-25.6.4-.9.9-1.7 1.4-2.5l.1-.1 1.5-2.3.1-.1c.5-.7 1.1-1.4 1.7-2.1l.1-.1c3.3-3.8 7.1-6.4 10.1-8-4 11.8-6.9 25.7-6.5 40zm161.5-767.7l122.6.4-20 158.7c-26.1.4-55.5.8-83.5 1.2l-19.1-160.3zm-91.6 822.9c-14.8-.9-28.2-1.9-39.9-2.8 1.4-8.2 4.1-15.5 7.3-22 12-.8 25.5-1.8 40.3-2.8-3.2 8.2-6.1 17.7-7.7 27.6zm2.2-60.2l-37.2 2.6c-3.1-16.5 5.6-34.7 16.1-49.7 9.3-1.4 20.7-3 34.4-4.7-6.2 13.1-12.8 31.8-13.3 51.8zm91.1 65.1c-21.1-1-41-1.9-59.5-3 1.4-12.6 5.7-23.4 10.9-32.1 20.4-1.4 42.1-2.9 64.3-4.5-6.9 10.1-13.8 23.8-15.7 39.6zm1.9-71.7l-58.6 4.1c-.9-19 11.9-39.5 24-54.5 17.5-1.8 37.4-3.7 59.9-5.7-10.4 13.2-23.5 33.8-25.3 56.1zm121.4 76.4c-31.4-1-62-2.1-91.1-3.3 3.2-17.7 16.8-33 30-44.2 25.7-1.8 51.3-3.6 75.7-5.2-5.9 10.6-13.9 29.2-14.6 52.7zm2.1-85.1l-88.9 6.3c.1-17.8 24.3-41.7 43.6-58.1 14.1-1.1 29.1-2.3 44.8-3.4l14.7-1.1c-6 12.3-13.6 32.2-14.2 56.3zm309.6-71.8c19.2-.5 36.6-.9 51.9-1-12.4 9.5-32.7 27.9-39.6 50.1l-65.9 4.6c5-19.3 31.4-39.6 53.6-53.7zm-57.8 2c-11.3 12.2-26.5 32.2-30.4 54.2l-75.2 5.3c3.8-20.8 27.9-42.8 46.4-56.8 20.5-1 40.3-1.9 59.2-2.7zm-31-645.3l-14.2 127.7c-24.7-.3-49.8-.7-72.2-1l-14.5-127 100.9.3zm-159.9 655.6c25.6-1.7 51-3.2 75.8-4.7-8.9 11.8-22.2 32.9-25.1 56.3l-78.3 5.5c-.1-20.3 14.9-42.2 27.6-57.1zm47.1 147.5c-25.4-.5-51.1-1.1-76.4-1.9-.5-24.3 12.6-44.8 22.3-56.6 35.2-2.4 65.9-4.5 87.4-6-12.6 12.9-32.9 37.5-33.3 64.5zm108.6 1.5c-23.8-.1-48.3-.4-73.3-.8-4.4-24.6 32.1-51.2 56.7-66.2 14.7.8 34.2 2.1 55.5 3.5-9.5 8.6-35 34.1-38.9 63.5zm102.2-.5c-18.9.4-41.2.6-67.7.6 3-22.9 36.2-46.4 58.5-59.8 17.9 1.3 35.5 2.6 51.3 3.8-12.9 10.7-35 31.6-42.1 55.4zm101.1-7h-.6c-.1 0-.1 0-.2.1h-.7000000000000001c-.1 0-.1 0-.2.1h-.1l-.3.1h-.1c-.1 0-.2 0-.2.1h-.1c-.1 0-.2 0-.2.1h-.2c-.1 0-.2 0-.3.1h-.1c-.1 0-.3.1-.5.1h-.1c-.1 0-.2 0-.4.1h-.2c-.1 0-.2 0-.4.1h-.2l-.5.1h-.1l-.6.1h-.1c-.2 0-.4.1-.5.1h-.2c-.2 0-.4.1-.5.1h-.2l-.6.1h-.1l-.8.1-.8.1h-.2l-.7.1h-.2l-.9.1-2.1.3h-.1l-1 .1h-.1l-1.2.1c-.8.1-1.7.2-2.7.3-.4 0-.9.1-1.4.1h-.1c-10 1-24.5 1.9-45.7 2.7 6.5-14.6 27.5-27.4 47.6-36.8h.1c2.6-1.2 5.1-2.3 7.6-3.4 0 0 .1 0 .1-.1 1.2-.5 2.4-1 3.5-1.5l.4-.2 3.4-1.4c6.2 9.4 10.1 19.1 10.2 26.7 0 7.2-2.5 9.6-6.4 11.3zm-60.8-107.3c8.4-13.2 27.2-25.4 45.3-34.8 2.7-1.4 5.3-2.7 8-4l.3-.1 2.2-1.1c.2-.1.3-.2.5-.2l2-.9.6-.3c.6-.3 1.2-.6 1.8-.8l.6-.3 1.8-.8c.2-.1.4-.2.6-.2l2.3-1c8.8 3.3 19.2 8.8 21.3 17 1.5 5.8-.9 13.6-6.6 22l-80.7 5.5z"/></svg>