<svg xmlns="http://www.w3.org/2000/svg" width="2048" height="2048" viewBox="0 0 2048 2048"><g><circle fill="#fff" cx="1024.5" cy="1026.8" r="970"/><ellipse stroke="#F8973A" stroke-width="35" stroke-miterlimit="10" cx="1024.5" cy="1026.8" rx="969" ry="969.4" fill="none"/><linearGradient id="a" gradientUnits="userSpaceOnUse" x1="1024.499" y1="129.641" x2="1024.499" y2="1924.042"><stop offset="0" stop-color="#5DC8ED"/><stop offset="1" stop-color="#3C99D4"/></linearGradient><circle fill="url(#a)" cx="1024.5" cy="1026.8" r="897.2"/></g><path fill="#fff" d="M1538.7 1182.4c10.6 5.6 78 41 141.3 57.9.5-1.4 1.1-2.8 1.7-4.4-10.9-34.2-31.5-83.3-63.7-104.4-35.5-23.2-60.9-31.2-93.9-51.1 6.4 36 11.2 69.7 14.6 102zM784.4 1429.1c1.6-65.7-8.6-125.6-15.1-142.7-8.1-8.1-26.4-16.7-41.3-22.5-38.8 24.6-95.6 37.5-169.3 38.6l-9.3.1c-13.4 0-26.1-.4-37.9-1-20 54.5-47.8 143-7.8 182.5 31.3 30.9 139 70 249.9 81.9 18.6-29.7 29.3-76.8 30.8-136.9zM517.9 1271.8c12.7.6 26.5.9 40.8.7 53.9-.8 126-9.1 166.8-43.8 24.9-60.7 28.8-102.5 11.4-124.4-12.7-16-38.4-24.1-78.4-24.8-9.5-.2-19.5.1-29.8.7l-.1 2.6c-97.1 4.9-232.1 129.3-205.2 155.7 32.3 31.7 86.1 14.2 94.5 33.3zM1641.1 1260.6c1 .1 2 .2 3 .2-41.2-13.7-79.9-31.9-102.1-43 .6 8.4 1.2 16.6 1.6 24.8 4.1 77.1-.2 149.2-13.4 218.4 67-31.6 105.4-77 108.3-88.5 13.4-53.2 1.5-79.9 2.6-111.9zM704.5 562c-14.1-5-30.7-2.6-44.6 6.7-10.2 6.9-33.5 27.8-30 74.7 1 14 5.1 21.6 8.8 23 2.8 1 8.7-.6 14.8-6.8 6.7-6.7 10.2-13 10-17.8-.1-3.6-2.5-6.2-2.5-6.2l22-26c1.4 1.2 13.8 12.2 14.6 30.8.6 14.8-6.1 29.4-20 43.2-11.1 11.1-24.2 17-36.9 17-4.7 0-9.3-.8-13.8-2.5-10.4-3.8-28.1-15.8-30.8-52.4-1.7-23.4 1.7-44.8 10.2-63.6 7.7-17.1 19.7-31.5 34.7-41.6 15.9-10.7 34.4-15.8 52.3-15-7.5-17.1-19-33.1-36-36.8-18.5 1.8-60.1 40.2-83.9 97.5-10.3 24.8-15.3 49.1-14.4 70.2 1 23.1 8.9 42.3 23.6 57 9.7 9.7 24.6 11.8 35.3 11.8 26.9 0 56.9-12.4 70.3-24.4l1.1-.9 1.2-.8c3.9-2.5 12.6-15.5 16.9-47.1 3.9-28.3 2.9-60.8-2.7-89.2 0-.1-.1-.4-.2-.8zM1532.5 720.8c44-54.1 19.1-256.6-123-298.8-108 15.3-129.3 58.2-164.3 72 46.4 64.9 54 169.6 10.5 226.3-3.7 0-9.7 0-16.6-1 28.1-81.3 8.9-191.7-31.9-248-57-38.6-182.6-78.6-298.1 7.7 60.9 61.2 75.7 183.4 27.3 246.3-3.7 0-9.7 0-16.6-1 29.7-85.8 6.6-204-38.9-256.8-70.6-36-128.4-64.1-249.5-57.7-146.9 76.9-189.1 311.7-96.1 380.4 62.9 46.5 148 22.6 199.5 9.9-17.6 41.8-83.3 171.8-101.6 249.8 8.8-.4 17.4-.6 25.6-.4 49.5.9 82.7 12.7 101.3 36.1 12.9 16.2 18.6 37.8 17 64.2-1.6 25.4-9.7 55.5-24.8 91.9 14.7 6.6 31.8 15.9 41 26.8l1.3 1.6.9 1.9c10.3 22.5 20.3 91.4 18.7 157.9-1.2 49.2-9 110.7-36.1 153.1 95.6 38.9 500.8 108.2 715.2-93.6 18.2-77.2 24.8-157.7 20.1-245-3.7-68.3-14.3-142-33-228.5-25.4-68.2-36.2-140-122-247.9 94.1 24.6 130.1 6.9 174.1-47.2zm-791.4-63.9c-3.5 24.8-11.7 56.9-31.3 70.3-22 18.9-59.5 32.1-91.9 32.1-24.7 0-45.2-7.5-59.4-21.8-20.9-20.9-32.1-47.7-33.5-79.6-1.1-26 4.8-55.3 17-84.7 12.5-30 30.9-58.8 51.8-81.1 29-30.9 51.3-37.4 64.8-37.4h1.4l1.4.2c37.8 6.4 65 42.5 76.7 101.5 6.3 32 7.4 68.6 3 100.5zm675.4 834.7c-34 70-308 78-351 63s-103-55-121-86.6 20.5-245.9 29-235.4c0 23 49 77.4 81 98.1 74 47.9 296 29.4 324 .9 27.7-28.2 38-63.4 45-85 35.4 59.4 27 175-7 245zm-33-336c18 13 11 122-25 146s-223 33-274 5-98-81-76-130.6 357-33.4 375-20.4z"/></svg>