<svg xmlns="http://www.w3.org/2000/svg" width="2048" height="2048" viewBox="0 0 2048 2048"><g><circle fill="#fff" cx="1009.5" cy="1026.1" r="970"/><ellipse stroke="#F8973A" stroke-width="35" stroke-miterlimit="10" cx="1009.5" cy="1026.1" rx="969" ry="969.4" fill="none"/><linearGradient id="a" gradientUnits="userSpaceOnUse" x1="1009.5" y1="128.94" x2="1009.5" y2="1923.341"><stop offset="0" stop-color="#B87CB5"/><stop offset="1" stop-color="#924A9C"/></linearGradient><circle fill="url(#a)" cx="1009.5" cy="1026.1" r="897.2"/></g><g fill="#fff"><path d="M1396.8 375.9c31.6 264.2 71.2 597.8 78.7 661.5-3.6 2.8-5.4 6.3-4.7 10.8 10.8 75.3 18.5 179.4 20.2 273 2.2 120.5-3.1 223.5 2.9 225.1 6.1 1.5 38.1-37.3 67.1-71.6 23-27.1 44-46.7 49.1-57.1 6.2-12.5 6-122.8.4-221.9-4.4-78.4-10.7-142.8-15.6-157.7l148.9-12.8c0-.1 44.1-401.5-347-649.3zm149.2 902.2c-10.5 0-19-8.5-19-19s8.5-19 19-19 19 8.5 19 19-8.5 19-19 19zm-24.5-176c0-10.5 8.5-19 19-19s19 8.5 19 19-8.5 19-19 19-19-8.5-19-19z"/><path d="M567.9 415.7c-27.1 17.8-57.4 45.2-87.4 78-57.7 243.6-50.8 422.5-57.7 423.4-4.9.7-15.1 2.5-21.6-1-3.5-1.8 15.8-262 36.7-372.2-24 30.5-46.8 63.4-66.6 96.4-19.5 142.3-11.1 275.8-17.9 276.7-4.9.7-21.1 2.5-27.6-1-3.1-1.7.1-128.1 13.8-217.2-15 31.3-26.2 61.4-31.9 88.2-33.3 103-40.5 233.4-18 240 5.4 1.6 19.6 3.4 38.1 4.9.2 60.1 1.4 223.3 8.5 255.7 12.6 57.9 126.1 218.4 148.5 205 7-19-22.6-118.3-39-224.7-13.2-86.4-17.8-177.5-18.8-234.2 34.6-2 62-7.5 61.8-19.6-2.8-177 44.4-498.3 79.1-598.4zm-207.2 662.9c0-10.1 8.2-18.3 18.3-18.3s18.3 8.2 18.3 18.3-8.2 18.3-18.3 18.3-18.3-8.2-18.3-18.3zm24.3 176.3c-10.1 0-18.3-8.2-18.3-18.3s8.2-18.3 18.3-18.3 18.3 8.2 18.3 18.3-8.2 18.3-18.3 18.3z"/><path d="M1216.5 815.1c-98.1-94.9-238-188-238-188s-133 93-219 179l-172.5 214s53.8 83.5 91.5 139c37.8 55.5 94 94 94 94s99.3 49 203.4 49c104.4 0 202.1-49 202.1-49s65.5-62.7 101.5-108c44.8-56.3 90-124 90-124s-74.2-129.8-153-206zm-238.3 449.6c-126.2 0-180.8-34.5-180.8-34.5l180.8-177 176.1 177c.1 0-49.8 34.5-176.1 34.5z"/><path d="M1441.8 1051.1c-.6-4.5 1.2-8 4.7-10.8-5.2-44.1-25.8-217.4-48.4-407.5-102.3-117.1-252.7-191-420.4-191-168.8 0-320.2 75-422.5 193.5-21.7 133.4-39.1 298.2-37.3 407.8.2 12.1-27.2 17.7-61.8 19.6.7 40.3 3.2 98 9.4 159.1 85.8 197.8 282.8 336.2 512.2 336.2 206.3 0 386.5-112 483.1-278.4-3-81-9.9-165-19-228.5zm-87.5 53.1c-45.6 165.1-196.9 286.3-376.5 286.3-177.5 0-327.3-118.4-374.9-280.4-29.4-44.6-55-84.5-55-84.5s15.6-23.1 40.5-56.9c15.3-193.9 172.1-347.9 367.1-358.9 14.4-10.5 23.1-16.6 23.1-16.6s9.1 6.1 24.4 16.7c190.3 12.1 343.5 160.5 363.3 348.6 26 39.3 42.4 68.1 42.4 68.1s-23.7 35.4-54.4 77.6z"/></g></svg>