<?xml version="1.0" encoding="utf-8"?>
<!-- Generator: Adobe Illustrator 16.0.0, SVG Export Plug-In . SVG Version: 6.00 Build 0)  -->
<!DOCTYPE svg PUBLIC "-//W3C//DTD SVG 1.1//EN" "http://www.w3.org/Graphics/SVG/1.1/DTD/svg11.dtd">
<svg version="1.1" id="Layer_1" xmlns="http://www.w3.org/2000/svg" xmlns:xlink="http://www.w3.org/1999/xlink" x="0px" y="0px"
	 width="2048px" height="2048px" viewBox="0 0 2048 2048" enable-background="new 0 0 2048 2048" xml:space="preserve">
<g id="GREEN_x5F_CHILL">
	<circle id="WHITE_x5F_BACK_3_" fill="#FFFFFF" cx="1024" cy="1026" r="970"/>
	
		<ellipse id="ORANGE_x5F_CIRCLE_3_" fill="none" stroke="#F8973A" stroke-width="35" stroke-miterlimit="10" cx="1024" cy="1026" rx="969" ry="969.4"/>
	
		<linearGradient id="INSIDE_x5F_COLOUR_1_" gradientUnits="userSpaceOnUse" x1="1023.9995" y1="128.8408" x2="1023.9995" y2="1923.2407">
		<stop  offset="0" style="stop-color:#BCD74E"/>
		<stop  offset="1" style="stop-color:#89C540"/>
	</linearGradient>
	<circle id="INSIDE_x5F_COLOUR_3_" fill="url(#INSIDE_x5F_COLOUR_1_)" cx="1024" cy="1026" r="897.2"/>
</g>
<path fill="#FFFFFF" d="M1166.1,859c-33.9,39.7-78,97.8-117.9,170.2c-45.7,83.1-76.8,168.5-92.5,253.8
	c-15.1,82.3-15.8,164.9-2.2,246.2c-10.2-2-20.6-3.5-31.1-4.3c-12.7-82-11.4-165.1,3.9-248c16.4-88.6,48.7-177.1,96.1-263.1
	c37.7-68.4,78.6-123.9,111.8-163.9c-226.7,35.9-453.8,437.3-230.9,674.2c-65.2-0.3-131.7,24.5-181.2,87.3c56.5,49,319.4,86,409.1,61
	c-11.6-57-69.4-109-141.4-133.5C1322.8,1457.7,1280.1,943.3,1166.1,859z"/>
<path fill="none" stroke="#FFFFFF" stroke-width="54" stroke-miterlimit="10" d="M520.5,1426.6c0,0-364.3-398.8,0-896"/>
<path fill="none" stroke="#FFFFFF" stroke-width="54" stroke-miterlimit="10" d="M1531.2,1426.6c0,0,364.3-398.8,0-896"/>
<path fill="none" stroke="#FFFFFF" stroke-width="54" stroke-miterlimit="10" d="M372.4,863c0,0,215.9-225.4,687-225.4
	s616.4,186,616.4,186"/>
</svg>
