<svg xmlns="http://www.w3.org/2000/svg" width="2048" height="2048" viewBox="0 0 2048 2048"><g><circle fill="#fff" cx="1009.5" cy="1026.1" r="970"/><ellipse stroke="#F8973A" stroke-width="35" stroke-miterlimit="10" cx="1009.5" cy="1026.1" rx="969" ry="969.4" fill="none"/><linearGradient id="a" gradientUnits="userSpaceOnUse" x1="1009.5" y1="128.94" x2="1009.5" y2="1923.341"><stop offset="0" stop-color="#B87CB5"/><stop offset="1" stop-color="#924A9C"/></linearGradient><circle fill="url(#a)" cx="1009.5" cy="1026.1" r="897.2"/></g><path fill="#fff" d="M338.6 1207.6c107.1 291.5 1316.1 270.5 1361.1-12.4-249-60.6-1338.2 1.9-1361.1 12.4z"/><path fill="#fff" d="M1245.3 656.6c59.5 84 53 196.1 40.5 196.1-14.9 0-60.8-205.2-278.1-265.8-61.8-9.8-128.8 2.4-220.9 60.1 103.5 75.1 126.4 201.6 112.2 201.6-15.1 0-90.3-157.6-291.4-184.5-257.6 42.1-274.5 269.7-270.6 287.6-.4 51 1217.5 45 1353.1 21 .1-94.1-189-330.6-444.8-316.1z"/><path stroke="#fff" stroke-width="30" stroke-miterlimit="10" d="M360.2 941.1c-132 63-118.5 228 133.5 82.9 55.5 89.6 193.5 19.1 205.5 8.8 112.8 110.8 217.5 10.3 245.7-5.7 68.5 67 120.3 26.5 169.8 5.7 36 71.8 126.8 6.7 173.5-3-7 70.1 137.7 14.8 171.5-2.7 45 73 134.1 20.1 174 14.5 49.5 61.5 193.5-43.5 21-100.5" fill="none"/><path stroke="#fff" stroke-width="30" stroke-miterlimit="10" d="M306.2 1084.2c26.3 43.9-12.3 39.9 223.5 39.9s214.7-14.9 230.7-39.9" fill="none"/><path stroke="#fff" stroke-width="30" stroke-miterlimit="10" d="M776.9 1076.2c17.1 43.5 7.7 36.9 243.5 36.9s224.1.1 250.7-59.9" fill="none"/><path stroke="#fff" stroke-width="30" stroke-miterlimit="10" d="M1257.2 1034.2c38.3 86.5 7.7 69.9 243.5 69.9s222.7 0 222.7-65.9" fill="none"/><path fill="#fff" d="M277.6 1155.5c-3.8 17.1-8.9 37.2 13.6 39.7 279.9-38.1 1379.3-38.1 1472.9-30.6 24.1-7.6 36.5-32.9 0-45.4-40.5-13.8-1427.5-5.7-1486.5 36.3z"/></svg>