<svg xmlns="http://www.w3.org/2000/svg" width="2048" height="2048" viewBox="0 0 2048 2048"><g><circle fill="#fff" cx="1024.5" cy="1026.8" r="970"/><ellipse stroke="#F8973A" stroke-width="35" stroke-miterlimit="10" cx="1024.5" cy="1026.8" rx="969" ry="969.4" fill="none"/><linearGradient id="a" gradientUnits="userSpaceOnUse" x1="1024.499" y1="129.641" x2="1024.499" y2="1924.042"><stop offset="0" stop-color="#5DC8ED"/><stop offset="1" stop-color="#3C99D4"/></linearGradient><circle fill="url(#a)" cx="1024.5" cy="1026.8" r="897.2"/></g><g fill="#fff"><path d="M656.6 1316.2c-6.3-21.3-8.8-52.5-7.5-95.6 1.4-49.3 7.8-112.7 18.8-188.5 17.5-119.5 46.5-266.4 79.2-401.8-64.4.4-116.6 1.8-146.7 4.3-13.6 18.7-28.9 56.3-44.1 105.4-4.9-9.7-10.7-14.6-17.2-14.6-8.2 0-15.4 6.9-21.4 20.5-4.4 10-8.3 23.7-11.4 40.7-3.4 18.9-5.2 37.7-6 48.3-1.7-.1-3.4-.2-5.2-.3-.6-11-1.8-26.3-4-41.7-2.5-17.4-5.7-31.3-9.7-41.5-5.5-14.1-12.3-21.2-20.4-21.2-8.1 0-15.4 6.7-21.5 19.9-4.5 9.7-8.5 23.1-11.8 39.7-3.2 16.1-5.1 32.1-6.1 42.8h-8.9c-9.4 67.2-17.7 140.6-22.6 200.1-3.1 36.6-4.8 67.2-5.2 90.8-.5 32.5 1.7 43.4 3 47.1 4.8 12.9 16.5 25.4 28.9 38.7 9.5 10.2 19.7 21.1 28 33.7 1.1-29.1 3.3-90 4.5-159.4 1.4-76.5 1.9-177.1-2.6-250.5-5.3-.1-10.5-.2-15.6-.3 1-10 2.8-23.8 5.5-37.6 4.4-22.2 12.2-48.6 24.6-48.6 11.5 0 17.8 27.3 21 50.2 1.9 13.6 3 27.3 3.6 37.6-9.9-.4-19.8-.8-29.6-1 3.6 60 4.5 144.1 2.5 250.9-1.5 85.7-4.5 158.5-5.1 174.8 1.2 2.7 2.4 5.5 3.4 8.4 4.9.6 9.9 1 14.9 1.3.5 34.9 3.3 65.4 9.1 89.4 85.1-31.9 152.5-40 175.6-42zm-141.5-524.6c4.1-22.8 11.7-49.9 24-49.9 3.7 0 8.2 3.1 12.5 14.1-7.3 24.8-14.6 52.1-21.6 81.1-6.6-.5-13.5-.9-20.4-1.3.8-10.3 2.5-27.2 5.5-44zM778.7 1425.1c-47-28.7-91.3-55.9-112.8-88.1l.5 12.6c-.8 0-72.1 3.6-167.1 37.9 79.9 63.2 227.1 106.7 395.4 123-28.9-32.1-74.5-60-116-85.4zM375.3 1123c.4-24.2 2.2-55.4 5.3-92.7 4.9-58.8 13.1-131 22.3-197.6-18.1.2-32.8.9-41.2 2.1-17.3 41.6-44.7 274.7-33.6 355.8 23.9-15.6 42.9-19.6 49.3-20.6-1.8-10.4-2.5-25.7-2.1-47zM380 1180.3l.1 6.2c-.2 0-20.2 1.7-47 18.6 22.4 31.1 63.8 52.5 111.1 60.5-8.1-15.8-20.9-29.5-32.6-42-13.1-14.2-25.6-27.5-31.6-43.3zM1714 984.2c-6.5-1.7-17.9-3.6-32.1-5.5 1.1 50.9.9 106-.6 150.7-1 28.3-2.4 51.9-4.3 70.2-1.7 16-3.6 27.4-5.9 35.1 5 1.3 19.5 6.1 36.8 20.2 16-59.9 15.9-237.8 6.1-270.7zM1668.1 1242.1c-6.2 11.3-17.1 20.2-28.8 29.5-10.3 8.3-21.6 17.4-29.4 28.5 37.8-1.5 72.1-13.7 92.5-34.9-19.4-15.2-34.9-18.5-35.1-18.5l.8-4.6zM1640.1 974.1c-7.7-.7-15.5-1.4-23.2-2 1.4-7.7 3.5-17.9 6.3-27.9 4.6-16.9 12.1-36.8 21.1-35.7 9.7 1.2 13.4 21.8 14.8 38.9.9 10.6 1 21.2.9 28.8-4-.4-8.1-.9-12.2-1.3-10.2 54.7-19 130.4-24.9 188.1-5.4 52.3-9.2 98.3-11 120.3 7.7-8.7 16.7-15.9 25-22.7 10.9-8.8 21.2-17.1 26.1-26.3 1.4-2.6 4.1-10.7 6.7-35.1 1.9-17.8 3.3-40.9 4.2-68.7 1.5-45.2 1.7-101.2.5-152.6-2.3-.3-4.6-.6-7-.8.2-8.2.1-20.3-.9-32.8-1-12.8-2.9-23.2-5.6-31-3.6-10.5-8.7-16.2-15.1-17-6.3-.8-12.3 3.9-17.9 14-4 7.3-7.9 17.5-11.4 30.3-3.1 11.4-5.4 22.8-6.9 31l-4.1-.3c.3-8.1.6-22.3-.3-36.9-.9-13.1-2.6-23.8-5.2-31.7-3.5-10.8-8.5-16.7-14.9-17.4-6.3-.8-12.4 4.1-18 14.5-1.2 2.2-2.4 4.7-3.5 7.4-21.8-122.5-55.3-224.5-99-246.3-14.2-5-54.1-9.6-109.6-13.6-1.6-22.5-5.7-62.8-15.5-103.6-8.7-36.3-20.3-65.5-34.4-86.7-19.5-29.5-44-44.4-72.7-44.4-29.1 0-54.8 14-76.3 41.7-15.8 20.3-29.4 48.2-40.4 82.8-12.3 38.5-18.6 76.6-21.5 98.3-6.1-.2-12.2-.4-18.4-.5-2.2-22.5-6.4-53.5-14.1-84.9-8.8-35.3-20.4-63.7-34.5-84.4-19.5-28.6-44-43.1-72.5-43.1-28.9 0-54.8 13.6-76.7 40.4-16.2 19.8-30.3 46.9-41.9 80.7-11.3 32.8-18.1 65.3-21.9 87.1-10.8 0-21.4-.1-31.8 0-33.3 136.6-62.9 285.9-80.6 406.8-10.9 74.5-17.1 136.6-18.5 184.5-1.9 66 5.9 88.3 10.7 95.8 16.9 26.2 58.6 51.7 102.7 78.7 33.8 20.7 70 42.9 99.7 68.5 4-59.1 11.7-183 16.1-324.1 4.9-155.6 6.6-360.2-9.4-509.4-18.8-.2-37.3-.4-55.4-.6 3.7-20.3 9.9-48.5 19.5-76.5 15.6-45.1 43.4-98.9 87.5-98.9 40.9 0 63.3 55.5 74.9 102 6.9 27.6 10.8 55.5 13 76.5-35.2-.9-70.5-1.6-105.2-2.1 12.8 122 15.9 293 9 510.1-5.5 174.3-15.9 322.3-18.3 355.4 4.4 5.6 8.5 11.3 12.1 17.1 212.8 14.2 451.7-14.3 628.4-99.6 12.2-16.1 19.6-58.1 22.6-114.6 2.9.1 5.8.2 8.6.3 1.1-2.1 2.2-4.1 3.4-6 1-12.3 5.3-67.3 11.9-131.9 8.3-80.7 16.7-143.9 25-188.6zm-512.9-338c3-20.9 8.9-55.2 19.8-89.3 14.7-46.3 41.5-101.5 85.3-101.5 22.5 0 53.8 18.3 74.9 105.4 8.7 35.8 12.6 72 14.4 94.1-55.9-3.5-123.2-6.4-194.4-8.7zm470.8 334.6c-8.6-.6-16.9-1-24.7-1.4-2.2-16-4.7-31.9-7.3-47.5 7-20.8 13.2-25 17.5-24.5 9.6 1.2 13.1 22.3 14.2 39.8.9 12.9.6 25.8.3 33.6z"/></g></svg>