<svg xmlns="http://www.w3.org/2000/svg" width="2048" height="2048" viewBox="0 0 2048 2048"><g><circle fill="#fff" cx="1024" cy="1026" r="970"/><ellipse stroke="#F8973A" stroke-width="35" stroke-miterlimit="10" cx="1024" cy="1026" rx="969" ry="969.4" fill="none"/><linearGradient id="a" gradientUnits="userSpaceOnUse" x1="1024" y1="128.841" x2="1024" y2="1923.241"><stop offset="0" stop-color="#BCD74E"/><stop offset="1" stop-color="#89C540"/></linearGradient><circle fill="url(#a)" cx="1024" cy="1026" r="897.2"/></g><path fill="#fff" d="M1710.4 999.2c-47.1 41.1-103.3 87.6-162.6 120.4-64.9 35.9-124 50.8-180.9 45.3-39.2-3.8-78-17.6-115.4-41.2-39.5-24.9-78.7-61.5-116.7-108.8 30.2-16.6 54.6-43 69.3-75.5 15.9-35.1 20.2-76 11.9-115-8.7-41.2-31.1-78.7-63.7-107.4 83.5-18.7 360.2-182.3 362-270.4-214-104-805.9 9.1-982 192-103 107-44 180-20 186-1.1 17-36 45-20 61 14.1 14.1 46.1 12.4 69.1.5-64.2 106.1-104.1 240.9-110.3 375.6l-.3 6.3 3.9 5c111.3 142.5 240 238.7 382.3 285.8 64.2 21.3 131 32.2 198.3 32.6h3.7c62.1 0 124.8-9 186.4-26.6 130.7-37.5 254.6-114.4 349-216.4 93.7-101.3 151.9-220.2 163.9-334.6l4.5-43-32.4 28.4zm-1013.9-400.2c21.3-13.7 64.7-30.3 95-19 38 55.3-98.3 128.3-115.7 102.7-10.6-23.1 32-42.1 20.7-83.7zm-177.3 267c14-29.3 38.7-57.7 31.3-96.7 24-12 55.3-21.3 98-20 38 55.3-106.7 129.3-129.3 116.7zm1030.4 459.3c-90.2 97.6-208.6 171-333.4 206.8-59.7 17.1-120.5 25.6-180.5 25.3-63.8-.4-127-10.8-187.9-30.9-134.2-44.4-256-135.1-362.3-269.5 3.5-64.4 15.5-131.3 34.7-193.9 21.6-70.1 51.3-133.1 88.3-187.1 40.4-59 88.3-105.1 142.3-137.2 59.5-35.3 126.2-53.2 198.4-53.2h.1c68.6 0 124.7 15.4 166.8 45.8 44.5 32.1 60.9 72.2 66.8 100.1 6.8 32 3.4 65.3-9.6 93.9-13.3 29.4-35.4 51.6-63.8 64.2-49.2 21.8-91.1 23.7-118 5.1-25.9-17.9-38-54.2-35.2-105.1l-33.9-1.9c-4.5 80.1 24.6 117.6 49.8 135 32.7 22.6 78.5 24.6 130.5 6.2 42 53.8 86 95.3 130.8 123.6 41.9 26.4 85.7 42 130.3 46.2 63.9 6.1 129.5-10 200.6-49.4 47.6-26.4 92.9-60.7 133.2-94.4-20 93.2-71.5 187.7-148 270.4z"/><path fill="#fff" d="M1259.2 759.6c2.1-17.6 16.3-47.3 42-54 40.1-10.4 51.4 22.7 26.7 40-14.4 10-33.4 0-68.7 14z"/><path fill="#fff" d="M1213.1 783.2c25.1-16.5 83.7 9.7 99.8 30.8 25.2 32.9 11.2 88.2-40.3 65-27.4-12.4-32.8-82.4-59.5-95.8z"/></svg>