<svg xmlns="http://www.w3.org/2000/svg" width="2048" height="2048" viewBox="0 0 2048 2048"><g><circle fill="#fff" cx="1024" cy="1026" r="970"/><ellipse stroke="#F8973A" stroke-width="35" stroke-miterlimit="10" cx="1024" cy="1026" rx="969" ry="969.4" fill="none"/><linearGradient id="a" gradientUnits="userSpaceOnUse" x1="1024" y1="128.841" x2="1024" y2="1923.241"><stop offset="0" stop-color="#BCD74E"/><stop offset="1" stop-color="#89C540"/></linearGradient><circle fill="url(#a)" cx="1024" cy="1026" r="897.2"/></g><circle fill="#fff" cx="646.5" cy="1394.6" r="96"/><circle fill="#fff" cx="945.5" cy="1420.6" r="96"/><circle fill="#fff" cx="1251.5" cy="1404.7" r="96"/><circle fill="#fff" cx="1525.5" cy="1366.3" r="96"/><path fill="#fff" d="M646.5 1270.1c58.3 0 107.3 40.2 120.8 94.4 22.1-.5 44.9-1.1 68-1.8 20.9-39.6 62.4-66.6 110.2-66.6 44.4 0 83.5 23.4 105.5 58.5 29.7-1.3 59.3-2.7 88.5-4.2 20.2-41.5 62.8-70.2 112-70.2 44.1 0 82.9 23.1 105.1 57.8 16.8-1.1 33-2.2 48.5-3.3 14-53.4 62.7-92.9 120.4-92.9 40.4 0 76.3 19.3 99.1 49.2 15.8-22.7 32.5-54.6 44.2-112.5-146.6 16.8-387.5 26.9-679.1 28-17.3.1-34.6.1-51.8.1-233.1 0-452.7-6-577.5-15.6 19.5 86.1 50 147.1 72.1 161.6 9.4 6.2 43 10 93.2 12 13.4-54.2 62.5-94.5 120.8-94.5z"/><path fill="#fff" d="M1673.9 1147.8c9.6-94-50.3-235.3-250.7-241-3.3 38.3-14.7 104-53.5 108.1-23 2.4-6.1-58 11.6-108-37.5.6-70.2 1.6-99.3 2.1-3.2 36.5-12.6 79.7-39.3 84.1-19.3 3.2-8.5-39.8 7.1-83.7-23.3 0-44-.6-63-2.4-13.7 27.6-32.3 52.3-54 49.2-15.4-2.2-5.4-27 12.2-56.1-14.6-3.6-28.3-8.5-41.8-15-23.4 30.1-59 67-85.7 54.6-15.1-7 5.3-30.6 33.8-55.3-59.4 31.1-140.1 70.4-161.2 65.8-34.5-7.5-49.5-51-49.5-88.5 0-27.5 108.6-51.7 166.8-62.7-8.5-20.4-14.2-40.2-17.9-59.4-59.5 4.6-152.3 11.2-156.4 8.1-6-4.5-78-73.5-15-106.5 39.2-20.5 116.7-12 169.7-2.7 16-109.2 79.5-182.4 23.7-197.8-50.5-14-113 66-127 82-46-1.5-85.5-33.5-307-20-236.5 194.6-257.1 472.6-223.4 657.7 262.5 21.2 999.9 25.9 1319.8-12.6z"/></svg>