<svg xmlns="http://www.w3.org/2000/svg" width="2048" height="2048" viewBox="0 0 2048 2048"><g><circle fill="#fff" cx="1024" cy="1026" r="970"/><ellipse stroke="#F8973A" stroke-width="35" stroke-miterlimit="10" cx="1024" cy="1026" rx="969" ry="969.4" fill="none"/><linearGradient id="a" gradientUnits="userSpaceOnUse" x1="1024" y1="128.841" x2="1024" y2="1923.241"><stop offset="0" stop-color="#BCD74E"/><stop offset="1" stop-color="#89C540"/></linearGradient><circle fill="url(#a)" cx="1024" cy="1026" r="897.2"/></g><path stroke="#fff" stroke-width="24" stroke-miterlimit="10" fill="none" d="M619.5 435.6l256 406"/><path fill="#fff" d="M1396.4 890.1c-20-47.4-48.7-89.9-85.2-126.4s-79-65.2-126.4-85.2c-49.1-20.8-101.2-31.3-154.9-31.3-53.6 0-105.7 10.5-154.9 31.3-14.3 6.1-28.2 12.9-41.6 20.6l71.4 113.2c7.8-7.8 15.9-16.6 23.8-25.2 32.4-35 60.4-65.2 88.4-65.2 5.1 0 10 1 14.5 3 13 5.7 18.6 20.9 21.8 31.8 3.2 11.3 5.9 26.5 8 45.1 2.6 23.5 4.1 52.1 4.5 82.4 73.7 16.4 128.9 82.3 128.9 160.8 0 90.8-73.9 164.7-164.7 164.7-90.8 0-164.7-73.9-164.7-164.7v-1.7c-4.9-2.1-9.7-4.2-14.4-6.3-34.3-15.2-65.6-30.7-90.4-44.7-39.9-22.6-50.9-34.6-55.7-41.6-7.5-11.1-5.6-20.4-3.8-25 8.5-21.6 25.7-38.1 52.5-50.4 21.1-9.7 44.9-15.5 67.9-21 4.2-1 8.3-2 12.3-3l-66.2-104.9c-6.4 5.6-12.6 11.5-18.7 17.5-36.5 36.5-65.2 79-85.2 126.4-20.8 49.1-31.3 101.2-31.3 154.9 0 53.6 10.5 105.7 31.3 154.9 20 47.4 48.7 89.9 85.2 126.4s79 65.2 126.4 85.2c49.1 20.8 101.2 31.3 154.9 31.3 53.6 0 105.7-10.5 154.9-31.3 47.4-20 89.9-48.7 126.4-85.2s65.2-79 85.2-126.4c20.8-49.1 31.3-101.2 31.3-154.9-.2-53.8-10.7-105.9-31.5-155.1zM897 868c-34.9 27.3-128.5 27.3-157.3 65 36.9 47.7 247.6 135.2 274.7 120.5s23.6-234.8 3.8-300.1c-58.4 25.2-80.4 82.6-121.2 114.6zM1663.4 776.6c-34.7-82.1-84.4-155.9-147.8-219.2-63.3-63.3-137.1-113-219.2-147.8-85-36-175.3-54.2-268.4-54.2-93.1 0-183.4 18.2-268.4 54.2-28.5 12.1-56 25.9-82.4 41.5l20.3 32.2c24.7-14.5 50.3-27.4 76.9-38.7 80.3-34 165.6-51.2 253.6-51.2s173.3 17.2 253.6 51.2c77.6 32.8 147.3 79.8 207.1 139.6 59.8 59.8 106.8 129.5 139.6 207.1 34 80.3 51.2 165.6 51.2 253.6s-17.2 173.3-51.2 253.6c-32.8 77.6-79.8 147.3-139.6 207.1-59.8 59.8-129.5 106.8-207.1 139.6-80.3 34-165.6 51.2-253.6 51.2s-173.3-17.2-253.6-51.2c-77.6-32.8-147.3-79.8-207.1-139.6-59.8-59.8-106.8-129.5-139.6-207.1-34-80.3-51.2-165.6-51.2-253.6s17.2-173.3 51.2-253.6c32.8-77.6 79.8-147.3 139.6-207.1 20-20 41-38.5 63.1-55.5l-20.4-32.2c-24.4 18.6-47.6 39-69.6 60.9-63.3 63.3-113 137.1-147.8 219.2-36 85-54.2 175.3-54.2 268.4s18.2 183.4 54.2 268.4c34.7 82.1 84.4 155.9 147.8 219.2 63.3 63.3 137.1 113 219.2 147.8 85 36 175.3 54.2 268.4 54.2 93.1 0 183.4-18.2 268.4-54.2 82.1-34.7 155.9-84.4 219.2-147.8 63.3-63.3 113-137.1 147.8-219.2 36-85 54.2-175.3 54.2-268.4s-18.3-183.4-54.2-268.4z"/></svg>