<svg xmlns="http://www.w3.org/2000/svg" width="2048" height="2048" viewBox="0 0 2048 2048"><g><circle fill="#fff" cx="1024" cy="1026" r="970"/><ellipse stroke="#F8973A" stroke-width="35" stroke-miterlimit="10" cx="1024" cy="1026" rx="969" ry="969.4" fill="none"/><linearGradient id="a" gradientUnits="userSpaceOnUse" x1="1024" y1="128.841" x2="1024" y2="1923.241"><stop offset="0" stop-color="#BCD74E"/><stop offset="1" stop-color="#89C540"/></linearGradient><circle fill="url(#a)" cx="1024" cy="1026" r="897.2"/></g><path fill="#fff" d="M1278.6 886.4c-19.8 25.7-79.1 102.2-93.1 118.3 44.3-9.7 57 47.3 57 47.3s-7.7 5.7-14 2.7c-7.3-36-35-46.7-40-32.9 8.7 37.9-16.7 82.3-16.7 82.3s-6.3 0-9.3-6.7c24.7-47 11-75.6 12.3-84.3 10.7-8.8 83.1-120.7 91.5-133.7 383.6-727.9-847.4-591.5-828.1 118.9 18 661.6 600.1 736.6 800.2 582.5 33.7-25.9-12-63-12-63s-4-51 9.8-139.9c305.5-112.1 217.7-464.8 42.4-491.5zm-85.1 634.2c-94 58-357 6-379-42s-10-190 42-200 214 96 342 106c0 0 2.1 80.1-5 136z"/></svg>