<svg xmlns="http://www.w3.org/2000/svg" width="2048" height="2048" viewBox="0 0 2048 2048"><g><circle fill="#fff" cx="1024" cy="1026" r="970"/><ellipse stroke="#F8973A" stroke-width="35" stroke-miterlimit="10" cx="1024" cy="1026" rx="969" ry="969.4" fill="none"/><linearGradient id="a" gradientUnits="userSpaceOnUse" x1="1024" y1="128.841" x2="1024" y2="1923.241"><stop offset="0" stop-color="#BCD74E"/><stop offset="1" stop-color="#89C540"/></linearGradient><circle fill="url(#a)" cx="1024" cy="1026" r="897.2"/></g><g fill="#fff"><path d="M595.3 1482.3c.8-31.9 18.5-64.3 55.7-101.7 30.6-30.8 71.1-61.5 110.3-91.2 76.3-57.9 155.3-117.8 147.3-168-5.4-34.2-81.9-60.2-149.3-83.1-69.3-23.6-141-48-170.6-88.5-15.9-21.8-23.7-48-23.1-77.9.5-26.4 7.3-55.4 20.7-88.6 10.6-26.4 25.3-55.1 44.8-87.2-110 85.6-310.4 312.2-310.4 312.2s24.9 312.3 274.7 509c-.5-11.1-.4-22.7-.1-35zM1412.5 941.6c-54.1 3.6-159.4 136-243.3 195.4 43.2 81.3 174.7 333.5 221.1 472.1 248-115.4 334.2-346.6 334.2-346.6s-135.4-268.9-312-320.9zM689.9 667c-34.1 50.4-57.5 92.2-72.3 128.8-23.8 59-24.3 102.8-1.7 133.8 23.3 31.9 89.8 54.5 154.1 76.4 84 28.6 163.3 55.6 172 110 5.2 32.7-10.2 67.3-47 105.8-30.3 31.7-72.5 63.7-113.3 94.7-38.2 29-77.7 59-106.7 88.1-30.3 30.4-45.2 56.1-45.8 78.5-.6 23-.1 42.8 1.1 59.9 83.9 57.5 190.2 102 324.9 120.8 165 23 297.9 1.6 403.8-41.1-161.4-452.6-476.4-867.6-669.1-955.7z"/></g><ellipse transform="matrix(.808 .589 -.589 .808 434.905 -248.96)" fill="#fff" cx="599.3" cy="542.6" rx="29.3" ry="43.4"/><ellipse transform="matrix(.808 .589 -.589 .808 570.881 -424.203)" fill="#fff" cx="936.1" cy="663.5" rx="32.6" ry="48.4"/><ellipse transform="matrix(.808 .589 -.589 .808 417.982 -393.026)" fill="#fff" cx="811.8" cy="444.6" rx="29.3" ry="43.4"/><ellipse transform="matrix(.808 .589 -.589 .808 457.115 -504.091)" fill="#fff" cx="1001.7" cy="449.1" rx="44.8" ry="60.3"/><ellipse transform="matrix(.808 .589 -.589 .808 568.58 -562.504)" fill="#fff" cx="1147.1" cy="590.8" rx="35.6" ry="56.4"/><ellipse transform="matrix(.808 .589 -.589 .808 545.211 -676.782)" fill="#fff" cx="1310.6" cy="497.8" rx="21" ry="43.4"/><ellipse transform="matrix(.808 .589 -.589 .808 670.08 -779.507)" fill="#fff" cx="1530.6" cy="638" rx="21" ry="43.4"/><ellipse transform="matrix(.808 .589 -.589 .808 709.965 -616.714)" fill="#fff" cx="1300.9" cy="780.6" rx="25.7" ry="43.4"/><ellipse transform="matrix(.808 .589 -.589 .808 809.43 -521.854)" fill="#fff" cx="1205.1" cy="980.5" rx="20.4" ry="40.9"/></svg>