<svg xmlns="http://www.w3.org/2000/svg" width="2048" height="2048" viewBox="0 0 2048 2048"><g><circle fill="#fff" cx="1009.5" cy="1026.1" r="970"/><ellipse stroke="#F8973A" stroke-width="35" stroke-miterlimit="10" cx="1009.5" cy="1026.1" rx="969" ry="969.4" fill="none"/><linearGradient id="a" gradientUnits="userSpaceOnUse" x1="1009.5" y1="128.94" x2="1009.5" y2="1923.341"><stop offset="0" stop-color="#B87CB5"/><stop offset="1" stop-color="#924A9C"/></linearGradient><circle fill="url(#a)" cx="1009.5" cy="1026.1" r="897.2"/></g><g fill="#fff"><path d="M951.1 864.6h47.8v-14h-41.9c-1.8 4.9-3.8 9.6-5.9 14zM1141.2 851.6h-47.7v33.1l47.7.2zM1393.2 578.3c-87-202.7-573.1-223.7-711.1-43.7-27 181 12.4 538.2 360 538.2 345.6 0 449-266.2 351.1-494.5zm-343.4 272.3h-34.9v14h32.9v16h-33c-.3 21.2-1.1 39.4-3 43.8-2.7 6.3-10.3 9.3-25.5 10-2.4.1-4.8.1-6.9.1-5.6 0-9.9-.3-10.1-.3l1-16c10.9.7 22.7 0 27-1.4.8-5.3 1.3-19.4 1.5-36.3h-53.4c14.5 11.9 26.9 28.4 27.5 29.2l-12.8 9.6c-.1-.2-12.2-16.2-25.3-26.8-10.7 14.6-23.2 25.8-37.2 33.1l-7.4-14.2c13.8-7.2 24.8-18.2 33.6-30.9h-31.9v-16h41.5c2.4-4.6 4.5-9.3 6.5-14h-51.3v-16h57.2c.9-2.9 1.8-5.8 2.6-8.7h-39.1v-16h43.2c.6-2.8 1.2-5.4 1.7-8h-54.8v-16h57.5c1.5-10.6 1.8-17.4 1.9-17.7l16 .7c0 .6-.3 7-1.6 17h66.3v16h-68.8c-.5 2.6-1 5.2-1.6 8h60.1v16h-64.2c-.6 2.2-1.2 4.4-1.9 6.7l-.6 2h87.3v16.1zm107.4 50.4l-63.7-.4v16.4h-16v-81.3h79.7v65.3zm-91.4-76.4v-16h110v16h-110zm142.5 75.2c-.2 6.8-.5 12.2-.8 15.9-.5 5.2-1 10.6-5.9 12.9-3.9 1.8-17.1 2.8-39.3 3.1l-.2-16c10.6-.1 23.1-.6 29.5-1.2 1.6-16.4 1.4-74.8.7-119.1h-126.5v-16h142.2l.1 7.9c0 .3.6 33.4.6 66.4.1 19.2 0 34.8-.4 46.1zm-437.8-298.9c120-73.5 416-90.2 522 29.8-35.3 111.7-515.6 84.2-522-29.8z"/></g><path fill="#fff" d="M318.5 1010.6c602 266 1288 277.9 1370 230 48-32 62-108 36-128-200 62-1024 9-1406-132-28 2 0 30 0 30z"/><path fill="#fff" d="M305.4 1036.3c497.5 430.8 1044.7 618.1 1137.1 596.3 55.3-16.5 76.1-69.8 57.1-96.5-237.1-27.5-853.1-287.5-1185.5-518.5-27.3-6.3-8.7 18.7-8.7 18.7z"/></svg>