<svg xmlns="http://www.w3.org/2000/svg" width="2048" height="2048" viewBox="0 0 2048 2048"><g><circle fill="#fff" cx="1024" cy="1026" r="970"/><ellipse stroke="#F8973A" stroke-width="35" stroke-miterlimit="10" cx="1024" cy="1026" rx="969" ry="969.4" fill="none"/><linearGradient id="a" gradientUnits="userSpaceOnUse" x1="1024" y1="128.841" x2="1024" y2="1923.241"><stop offset="0" stop-color="#BCD74E"/><stop offset="1" stop-color="#89C540"/></linearGradient><circle fill="url(#a)" cx="1024" cy="1026" r="897.2"/></g><path fill="#fff" d="M1560.5 530.9c-11.3-25.7-70.2-105.6-150.2-159.5-74.2-50-169.3-75.2-195.5-76.2-164.2-30.3-325.8 16.1-419.8 86.1-191.8 142.9-243.2 425.7-201.7 573.4 48.9 174.1 111.2 148 82 370.8-40.8 57.8-169 247.2-169 247.2l122.2 83.4s129.8-188.3 168.9-247.3c197-108.2 195.3-40.7 375.3-58.4 152.7-15 397.4-165.7 460.8-396.3 31-113.3 15.3-281.1-73-423.2zm-816.3 551.6l49.7-72.5 117.9 80.8-65 94.8c-39.5-28.6-74.1-63.5-102.6-103.1zm-85.9-267c0-31.7 3.2-62.7 9.4-92.6l61.3 42.1-68.1 99.4c-1.7-16.2-2.6-32.4-2.6-48.9zm681.7-56.4l-115.9-79.5 79-115.3 115.9 79.5-79 115.3zm99.6-101.1l118.1 81-79 115.3-118.1-81 79-115.3zm-343.5 164.1l-76.6 111.7-117.9-80.8 76.6-111.7 117.9 80.8zm-103.8-101.5l79.1-115.4 117.9 80.8-79.1 115.4-117.9-80.8zm124.4 115.6l115.9 79.5-76.6 111.7-115.9-79.5 76.6-111.7zm14.1-20.6l79.1-115.4 115.9 79.5-79.1 115.4-115.9-79.5zm165.9-286l-117.9-80.8 52.5-76.6c47.9 12.4 92.7 32.4 133.2 58.5l-67.8 98.9zm-14.2 20.6l-79 115.3-117.9-80.8 79.1-115.3 117.8 80.8zm-217.6 20.3l-117.2-80.4 79-115.3 117.2 80.4-79 115.3zm-137.8-94.5l-62.7-43c40.4-26.7 85.3-47.1 133.3-59.9l-70.6 102.9zm6.5 34.8l117.2 80.4-79.1 115.4-117.2-80.4 79.1-115.4zm24 216.3l-76.6 111.7-117.2-80.4 76.6-111.7 117.2 80.4zm-214.4 17.2l-69.3-47.5c12.1-45.2 31-87.7 55.4-126.2l90.5 62.1-76.6 111.6zm6.4 34.8l117.2 80.4-79.4 115.8-117.2-80.4 79.4-115.8zm58.4 210.3l79.4-115.8 117.9 80.8-79.4 115.8-117.9-80.8zm218-20.9l115.9 79.5-79.4 115.8-115.9-79.5 79.4-115.8zm136.5 93.6l118.1 81-79.4 115.8-118.1-81 79.4-115.8zm138.7 95.2l63 43.2c-40.3 26-84.9 45.8-132.5 58.2l69.5-101.4zm-6.5-34.8l-118.1-81 76.6-111.7 118.1 81-76.6 111.7zm-27.4-213.3l79.1-115.4 118.1 81-79.1 115.4-118.1-81zm217.8-20.2l72.2 49.5c-12.9 46.5-33 89.9-58.9 129.2l-92.3-63.3 79-115.4zm14.2-20.7l71.8-104.8c1.9 17 2.9 34.3 2.9 51.9 0 33.3-3.6 65.8-10.3 97.1l-64.4-44.2zm62.9-156.6l-108.5-74.4 47.6-69.4c28.1 43.4 48.9 91.9 60.9 143.8zm-76-165.9l-53.1 77.4-115.9-79.5 67.8-98.9c38.8 28.2 73 62.3 101.2 101zm-370-188.2c30.4 0 60.1 3 88.9 8.6l-46.9 68.4-105.9-72.6c20.9-2.9 42.2-4.4 63.9-4.4zm-273.7 90.7l70.5 48.3-79.1 115.4-90.7-62.2c27.7-38.7 61.2-73 99.3-101.5zm-170.7 478l101.4 69.6-44.1 64.3c-25.8-40.7-45.3-85.8-57.3-133.9zm85.7 407.3c-13-11-35-129.2-21-131 8-1 39 44 67 66s86 32 86 40-119 36-132 25zm109.8-133.7l65-94.9 115.9 79.5-50.4 73.4c-46.8-12.5-90.7-32.3-130.5-58zm156.7 64.2l44.9-65.4 103.9 71.2c-18.6 2.3-37.5 3.5-56.6 3.5-31.6-.1-62.4-3.3-92.2-9.3zm362.2-78.8l-70.9-48.6 76.6-111.7 92.1 63.2c-27.5 37-60.5 69.8-97.8 97.1z"/><g fill="#fff"><path d="M1121.5 1705.2c-28.8-9.3-53.7-17.3-68.2-35-8.5-10.3-12.8-26.6-12.2-45.7.6-17.8 5.3-36.2 13.4-51.7 14.5-28 37.8-43.1 63.9-41.2 40.1 2.8 62.3 21.8 80.1 37 9.8 8.4 18.3 15.7 28.6 19.9 11.3 4.6 28.2 5.5 46.2 4.5-14.2-58.2-66.6-101.4-129.2-101.4-73.5 0-133 59.5-133 133s59.5 133 133 133c21.5 0 41.9-5.1 59.8-14.2-24.8-19.6-54.9-29.3-82.4-38.2zM1218 1610.8c-13.8-5.6-24.7-14.9-35.1-23.9-17.5-14.9-33.9-29-66.2-31.3-9.5-.7-27.4 2.1-40.9 28.3-13.8 26.7-13.4 59.6-3.9 71.1 10 12.2 31.8 19.2 57 27.4 30.6 9.9 66.9 21.6 96.4 47.6 31.5-24.3 51.8-62.5 51.8-105.3 0-2.6-.1-5.2-.2-7.8-25.4 1.5-45.1-.5-58.9-6.1z"/></g></svg>