<svg xmlns="http://www.w3.org/2000/svg" width="2048" height="2048" viewBox="0 0 2048 2048"><g><circle fill="#fff" cx="1024" cy="1024" r="970"/><ellipse stroke="#F8973A" stroke-width="35" stroke-miterlimit="10" cx="1024" cy="1024" rx="969" ry="969.4" fill="none"/><linearGradient id="a" gradientUnits="userSpaceOnUse" x1="297.5" y1="2526.201" x2="297.5" y2="731.8" gradientTransform="matrix(1 0 0 -1 726.5 2653)"><stop offset="0" stop-color="#F27FA2"/><stop offset="1" stop-color="#EF4867"/></linearGradient><circle fill="url(#a)" cx="1024" cy="1024" r="897.2"/></g><g fill="#fff"><path d="M1493.1 441.6c-235.5 13.5-559.5 156-636 213 28.5 529.5 343.5 906 726 822 370.4-304.5 55.5-915-90-1035zm3.4 229.9c23.6-16 84-16 119 38.5-115.5-52.5-129 36.5-140.9 100.5-23.1-15-20.1-110.5 21.9-139zm-426 238.4c-5-79.4 32.5-134.5 84-145.9 58.5-13 127.5 39 138.5 97.5-128.5-90.5-173-40-222.5 48.4zm491.1 338.8c-122.5 52.4-310-55.6-332.5-135.1 268.5 3 351-88.6 447-174 16.5 69 7.9 256.7-114.5 309.1z"/><path d="M845.1 645.6c18.9-14.1 52.9-33.4 97-54.7-128-64-293.8-113-385-83.4-182.2 169-450.3 693.5-99.5 981.8 252.8-8.3 390.4-118 498.8-386.3-62.5-129.2-102-285.2-111.3-457.4zm-313.6 107.6c20.9 18.1 30.3 69.7 11.7 90-9-41-27.3-126.7-110-69.6 23.6-36.4 73.6-41.8 98.3-20.4zm115.5 565.9c-86.5-89.5-140.5-163.1-295.7-163.7 40.7-66.8 130.6-138.2 222.2-81 86.5 54.1 106 186 73.5 244.7zm25.9-426c15.6-48.1 57.5-77.1 103.6-65.6 38 9.4 80.6 50 83.5 120-46.5-73-82.5-129-187.1-54.4z"/></g></svg>