<?xml version="1.0" encoding="utf-8"?>
<!-- Generator: Adobe Illustrator 16.0.0, SVG Export Plug-In . SVG Version: 6.00 Build 0)  -->
<!DOCTYPE svg PUBLIC "-//W3C//DTD SVG 1.1//EN" "http://www.w3.org/Graphics/SVG/1.1/DTD/svg11.dtd">
<svg version="1.1" id="Layer_1" xmlns="http://www.w3.org/2000/svg" xmlns:xlink="http://www.w3.org/1999/xlink" x="0px" y="0px"
	 width="2048px" height="2048px" viewBox="0 0 2048 2048" enable-background="new 0 0 2048 2048" xml:space="preserve">
<g id="BLUE_x5F_CHILL">
	<circle id="WHITE_x5F_BACK_4_" fill="#FFFFFF" cx="1024.5" cy="1026.8" r="970"/>
	
		<ellipse id="ORANGE_x5F_CIRCLE_4_" fill="none" stroke="#F8973A" stroke-width="35" stroke-miterlimit="10" cx="1024.5" cy="1026.8" rx="969" ry="969.4"/>
	
		<linearGradient id="INSIDE_x5F_COLOUR_1_" gradientUnits="userSpaceOnUse" x1="1024.4995" y1="129.6406" x2="1024.4994" y2="1924.0415">
		<stop  offset="0" style="stop-color:#5DC8ED"/>
		<stop  offset="1" style="stop-color:#3C99D4"/>
	</linearGradient>
	<circle id="INSIDE_x5F_COLOUR_4_" fill="url(#INSIDE_x5F_COLOUR_1_)" cx="1024.5" cy="1026.8" r="897.2"/>
</g>
<g id="Vacances">
	<path fill="#FFFFFF" d="M1625.1,1015c-23.9-17.2-100-33.1-194.9-45.3l5.8-74.6c0,0,8,1,13,0c5.8-13.8,6.3-46.8-5-63
		c-69.7-40.7-192.7-48-265-25c-21.7,26.3-16,64-16,64h14l-8.3,77.4c-122.4-4.7-231-0.9-268.7,15.6c0,0-105,97.5-99,305.3
		s153,303.8,153,303.8s488.9,73.4,601.1-44C1666.1,1409.6,1705.5,1150.1,1625.1,1015z M1247.5,877.1l120.8,11.5l-6.2,73.3
		c-40.1-4-81.9-7.4-123.3-9.9L1247.5,877.1z M1499,1437.1c-39.7,57.3-366.7,51.3-350-7c25.5-49.2,126-103.5,157-77
		c6.5-44.5-13.8-134.8-34-146.5c-43.5-26.8-120,59.8-140,70.2c-17.8-72.8,66.8-118.8,66.8-118.8s-65.4,32.4-86.2,22
		c-18-9,37.5-62.2,82.5-78c44.2-15.5,66.5,35.8,70,28c-4.8-42,25-55.8,44-58c-0.8,25.2-2.5,44.5,10,56c28-9.8,144-24.5,136,56
		c-32.5-10-77-15-78,0c25.5,15.5,22.3,75.6,3,95.5c-10-48.5-34-76.5-44-65.5c5,32-3.7,113.7,18,155.3
		C1425,1331.8,1503,1394.8,1499,1437.1z"/>
	<path fill="none" stroke="#FFFFFF" stroke-width="34" stroke-miterlimit="10" d="M560,606.6c-137.6,84.5-209,603.5-23,777.5
		c160.5,34.5,433.5,27,495-33s101-695.5-2.5-730S643.5,583.1,560,606.6z"/>
	<path fill="none" stroke="#FFFFFF" stroke-width="34" stroke-miterlimit="10" d="M616,1392.6c-76-125.5-93.5-501,80.5-798"/>
	<polygon fill="#FFFFFF" points="433.5,1026 552,1042.1 606,1392.6 527.9,1375.1 446.6,1216.6 	"/>
	<path fill="#FFFFFF" d="M1249,461.1c-50.7-21.1-193.8-36.8-272.3-38.8c-0.1-0.4-0.1-0.8-0.2-1.2c7.5-2,16.5,0,16.5,0
		s14.5-33-6.5-61.5c-51.5-35.5-179-38.5-239-1c-13.5,25.5-8,59.5-8,59.5l17.5,3c-10.5,74-29.2,330-20.3,408
		c-3.2-0.2-8.3-0.3-8.8,2.2s13.8,23.3,26.2,32.2c36.3,1.3,214.7-7,222-12.3c0.7-5.2-1.8-14.5-4-17c-1.8-3.5-6-2.5-6-2.5
		s10.6-134.2,14-253.6c59.3,2.4,166.8,10.1,243.7,29.1C1247,591.6,1266.3,499.8,1249,461.1z M911,623.1c0,40-14,206-14,206h-91
		c0,0,0-121,5-212s19-198,19-198h81c0,0,0,2.5,0,7c-25.2,4.2-53.9,16.3-60.7,64.6c-6.8,48.9,27.7,72.5,60.7,81.6
		C911,594.2,911,612.8,911,623.1z M948,555.6c-21.8,0-38.1-9.1-48-23c-7-9.2-11.1-20.7-11.1-33.2c-0.3-7.4,0.4-11.8,1.8-14
		c3.2-12.2,10.5-22.8,20.3-30.2c0,16,0,35.9,0,56.5c3.5,10.7,12,23.4,37.5,23.4c20.5,0,28.6-15.8,32.5-27.8
		c-0.1-18.3-0.4-35.3-1.2-50.2c11,9.3,18.3,22.7,19.5,37.9v0.1C1003.7,511.6,986,555.6,948,555.6z M1178,556.4
		c-11.7-7.3-2.7-17.3-6.3-25c-6.5-4.1-38.7-7.4-44.3-0.3c-5,6.3,18.9,38.8,4,44c-12.3,4.3-33.3-36-37-44c-3.7-8-72.4-9.3-68-18
		c6.3-12.7,54.4-7,67-10.7c10.3-3,17.5-36.2,42.6-36.3c8.7-0.1-13,29.3-10,36.3s32.3,13.7,44.7,11.7c10-3.7,9.7-25.3,19-22.7
		C1195.7,495.1,1189.3,560.4,1178,556.4z"/>
</g>
</svg>
