<svg xmlns="http://www.w3.org/2000/svg" width="2048" height="2048" viewBox="0 0 2048 2048"><g><circle fill="#fff" cx="1024" cy="1026" r="970"/><ellipse stroke="#F8973A" stroke-width="35" stroke-miterlimit="10" cx="1024" cy="1026" rx="969" ry="969.4" fill="none"/><linearGradient id="a" gradientUnits="userSpaceOnUse" x1="1024" y1="128.841" x2="1024" y2="1923.241"><stop offset="0" stop-color="#BCD74E"/><stop offset="1" stop-color="#89C540"/></linearGradient><circle fill="url(#a)" cx="1024" cy="1026" r="897.2"/></g><path fill="#fff" d="M1748.8 978c-16.7-39.5-40.6-74.9-71-105.3-30.4-30.4-65.9-54.3-105.3-71-40.9-17.3-84.3-26-129-26-8.2 0-16.4.3-24.5.9-9.5-51.1-43.2-234.8-35.5-240.4 11.9-4 167.9 71 167.9 71 10-16 3-32-3.5-42.5s-151.5-92-180.5-90.5-43 21.5-36.5 53.5c3.3 16.2 13.5 85.5 22.8 150-69.5-33.5-139.8-53-209.4-58-74.8-5.3-148.5 6-219 33.7-11.6 4.5-23 9.5-34.4 15l-22.5-119.1c44.2-16.5 88.5-31.6 108.1-37.4-4-14.5-22.9-28.1-32.5-28.5-40 .5-175 37.5-190 56-7.2 14-8.5 46.5 0 60 8.3-6.5 30.2-16.7 57.5-27.9l24.1 127.4c-44.8 28-87 62.9-124.9 103.5-40-16.5-82.4-24.9-126.1-24.9-44.7 0-88.1 8.8-129 26-39.5 16.7-74.9 40.6-105.3 71-30.4 30.4-54.3 65.9-71 105.3-17.3 40.9-26.1 84.3-26.1 129s8.8 88.1 26.1 129c16.7 39.5 40.6 74.9 71 105.3 30.4 30.4 65.9 54.3 105.3 71 40.9 17.3 84.3 26 129 26s88.1-8.8 129-26c39.5-16.7 74.9-40.6 105.3-71 30.4-30.4 54.3-65.9 71-105.3 4.2-9.8 7.8-19.8 11-29.9l28.8 1.3c4.9.7 9.9 1.1 15.1 1.1 58.4 0 105.7-47.3 105.7-105.7 0-38.5-20.6-70.1-51.4-87.1 33.2-54.7 68.5-97 109.7-132.4 67.1-57.6 151.6-96.7 257.6-119.2 1 7.1 1.9 13.4 2.6 18.4-18.6 4.3-36.7 10.2-54.4 17.6-39.5 16.7-74.9 40.6-105.3 71-30.4 30.4-54.3 65.9-71 105.3-17.3 40.9-26 84.3-26 129s8.8 88.1 26 129c16.7 39.5 40.6 74.9 71 105.3 30.4 30.4 65.9 54.3 105.3 71 40.9 17.3 84.3 26 129 26s88.1-8.8 129-26c39.5-16.7 74.9-40.6 105.3-71 30.4-30.4 54.3-65.9 71-105.3 17.3-40.9 26-84.3 26-129s-8.8-88.3-26.1-129.2zm-901.1-215.5l40.1 212.4c-16.6-37.6-39.7-71.4-68.9-100.6-16.3-16.3-34-30.6-53-43.1 25.6-25.9 53-48.9 81.8-68.7zm-71.2 154.3c26.4 26.4 46.7 57.3 60.2 91-64.8 2.6-144.4 5.9-196.1 8.1 21.7-49.3 50.5-96.4 85-139.2 18.2 11.1 35.3 24.5 50.9 40.1zm0 383.7c-51.2 51.2-119.4 79.5-191.9 79.5s-140.6-28.2-191.9-79.5c-51.2-51.2-79.5-119.4-79.5-191.9s28.2-140.6 79.5-191.9c51.2-51.2 119.4-79.5 191.9-79.5 29.3 0 57.8 4.6 84.9 13.5-39.8 51.6-72.1 108.7-95.1 168.1-42.9 5.9-75.9 42.7-75.9 87.2 0 48.6 39.4 88 88 88h1.2l250.7 11c-13.4 35.4-34.3 67.9-61.9 95.5zm293.2-461.2c-45.2 38.8-83.6 84.4-119.4 142.7l-47.7-252.5c14.7-7.6 29.6-14.4 44.7-20.4 62.1-24.4 127-34.4 192.8-29.7 53.4 3.8 107.5 17.4 161.5 40.3-92.2 25.8-168.6 65.3-231.9 119.6zm565.7 459.6c-51.2 51.2-119.4 79.5-191.9 79.5s-140.6-28.2-191.9-79.5c-51.2-51.2-79.5-119.4-79.5-191.9s28.2-140.6 79.5-191.9c35.6-35.6 79.4-60.1 127.1-71.7l28.1 183.1c-30.8 13.7-52.3 44.6-52.3 80.5 0 48.6 39.4 88 88 88s88-39.4 88-88c0-44.2-32.6-80.8-75.1-87.1l-28.2-183.8c5.4-.3 10.8-.5 16.3-.5 72.5 0 140.6 28.2 191.9 79.5s79.5 119.4 79.5 191.9-28.3 140.6-79.5 191.9z"/></svg>