<svg xmlns="http://www.w3.org/2000/svg" width="2048" height="2048" viewBox="0 0 2048 2048"><g><circle fill="#fff" cx="1024" cy="1024" r="970"/><ellipse stroke="#F8973A" stroke-width="35" stroke-miterlimit="10" cx="1024" cy="1024" rx="969" ry="969.4" fill="none"/><linearGradient id="a" gradientUnits="userSpaceOnUse" x1="1024" y1="126.8" x2="1024" y2="1921.201"><stop offset="0" stop-color="#FFD022"/><stop offset="1" stop-color="#FAA71C"/></linearGradient><circle fill="url(#a)" cx="1024" cy="1024" r="897.2"/></g><g fill="#fff"><path d="M682.5 1596l705.1.9s-136.5 112-355.5 112c-219.1 0-349.6-112.9-349.6-112.9z"/><path d="M981 1218.8h90v400.2h-90z"/><path d="M877.5 776.6l-132-294s-162.5 116.4-217 204c-7.5-5.1-58-49-58-49s102-152.1 308-263c66 142.5 180 402 180 402h-81z"/><path d="M1558.5 761.6l-108.9.1c.3-4.4.4-8.7.4-13.1 0-129.2-109.1-234-243.7-234s-243.7 104.8-243.7 234c0 4.6.2 9.2.4 13.8l-448.8.6s-85.8 128-97.1 265c127.8 111.9 325.4 237.8 607 237.8 372.3 0 560.8-181.6 627.1-238.8-12.2-140.7-92.7-265.4-92.7-265.4zm-546.4-1.6c8.3-11.4 20.7-19.7 35.3-25 24.3-8.8 92.9 14.2 118.6 25h-153.9zm181.7-22.4c-3 2.1-100.5-15.2-125.6-43.2-29-32.4-19.8-73.1 22.9-103.5 42.7-30.4 78-16.3 99.4 14.8 18.2 26.3 6.4 129.8 3.3 131.9zm29.2 2.4c-2.8-2.5-7.1-101.4 14.8-132 25.3-35.3 67-35.2 106-.2s32.9 72.6 7.2 100.2c-21.7 23.4-125.2 34.5-128 32zm165 113.9c-23.5 46.8-61.4 50.8-94.8 33.3-28.2-14.8-66.1-111.8-64.5-115.1 1.7-3.3 96-33.5 131.2-20.4 40.7 15.1 51.6 55.4 28.1 102.2z"/></g></svg>