<svg xmlns="http://www.w3.org/2000/svg" width="2048" height="2048" viewBox="0 0 2048 2048"><g><circle fill="#fff" cx="1024" cy="1026" r="970"/><ellipse stroke="#F8973A" stroke-width="35" stroke-miterlimit="10" cx="1024" cy="1026" rx="969" ry="969.4" fill="none"/><linearGradient id="a" gradientUnits="userSpaceOnUse" x1="1024" y1="128.841" x2="1024" y2="1923.241"><stop offset="0" stop-color="#BCD74E"/><stop offset="1" stop-color="#89C540"/></linearGradient><circle fill="url(#a)" cx="1024" cy="1026" r="897.2"/></g><g fill="#fff"><path d="M1225.3 1642.5c27.3-38.3 51.2-81.1 70.4-126.6 31.6-74.8 50.4-154.5 56-237.1 6-87.8-3.4-174.7-28-258.2-25.5-86.7-66.9-167.9-123.1-241.5-16.6 15.2-32.3 31.4-47 48.6-46.3 54.2-81.5 117.1-104.8 186.9 41.3 62.3 70.1 129.8 85.6 200.8 15.4 70.8 17.4 143.4 5.9 215.8-14 88-47.6 171.3-96.2 241.3 63-1.7 123.8-12 181.2-30zM427.8 729.2c-26.6 56.5-45.4 117.3-55.1 181.2 39.9 102.7 121.8 196 232.3 262.3 70.1 42.1 148.5 71.6 232.9 87.6 87.5 16.6 179.2 18.2 272.8 4.7-2-14.4-4.5-28.7-7.6-42.9-15-68.8-43.2-134.1-83.9-194.3-26.5 3.4-52.8 5.2-79 5.2-49.4 0-98-6.1-145.4-18.3-70.2-18.1-135.9-49-195.3-91.8-72-52-131-119.2-171.7-193.7zM608.1 1446.2c130.5 80.9 294.6 108.5 475.1 80.1 11.5-32.3 20.1-65.9 25.5-100.2 6.9-43.1 8.6-86.4 5.4-129.2-43 6.1-85.7 9.2-127.8 9.2-52.5 0-104.1-4.8-154.4-14.3-88.1-16.7-170-47.5-243.4-91.6-98.1-58.9-175-138.4-222.3-227.3-.7 12.5-1.1 25.1-1.1 37.7 0 61.2 8.3 120.4 23.9 176.7 16.7 40.3 37.7 78.3 63 113.4 42.1 58.4 94.6 107.4 156.1 145.5zM880.8 456.5c-114.6 50.6-267.2 155.1-346.7 365.9 25.2 27.3 53.4 52.4 84.2 74.5 29.6 21.4 60.9 39.6 93.6 54.6 34.2-92.7 83.6-175.6 147-246.6 60.7-68 132.9-123.8 214.8-166.1 76.5-39.5 158-65.5 242.2-77.3 23.9-3.3 47.8-5.5 71.5-6.4-32.4-21-66.7-39.3-102.7-54.5-55.4-7.8-113.8-9.1-171.6-3.8-81.5 7.6-159.7 27.7-232.3 59.7zM1320.3 493.2c-80.7 11.3-158.7 36.2-232 74-78.3 40.4-147.5 93.9-205.6 158.9-61.1 68.4-108.6 148.3-141.4 237.8 20 7.8 40.5 14.4 61.5 19.8 70.5 18.2 144.1 22.1 218.8 11.5 24.6-70.1 60.8-133.4 107.7-188.4 47-55.1 103.6-100.6 168.2-135.2 78.7-42.1 165.4-65.8 250.7-69.4-33.8-43.1-72.8-81.8-116.1-115.3-36.7-1.1-74.3 1-111.8 6.3zM1532.8 1390.2c30.7-74.7 48.3-154.5 52.3-237 4.3-87.8-7.2-174.7-34.1-258.1-27.7-85.9-71.3-166.4-129.7-239.6-37.2 10.8-73.8 25.7-108.6 44.3-31.3 16.8-60.6 36.2-87.7 58.2 59.2 77.2 102.8 162.4 129.5 253.4 25.6 87.1 35.4 177.8 29.2 269.4-8.5 124.6-46.6 244.4-107.7 343.4 75.1-30.5 143.4-74.4 201.8-128.7 21.1-32.5 39.7-68 55-105.3zM510.4 795.1c33.8-83.6 81.6-157.4 142.3-219.6 60.4-62 132.8-111.8 215.2-148.2 91.1-40.2 191.6-62.3 291.4-65.4-42.7-8.7-86.9-13.2-132.2-13.2-251 0-469.3 139.6-581.5 345.5 17.4 35.4 39.2 69.3 64.8 100.9zM1069.7 1560.6c-41.3 5.7-81.8 8.5-121.2 8.5-133.3 0-254.9-32.3-357.3-95.8-40.4-25.1-77.2-54.6-109.9-88.1 115.4 167.8 306.2 279.8 523.5 287 25.7-33.8 47.5-71.4 64.9-111.6zM1571.4 633.7c-38.5 0-77.7 4.4-116.3 13.1 56.4 73.2 98.9 153.3 126.4 238.5 28.1 87.1 40.1 177.8 35.6 269.5-4.1 84.8-22.4 167.3-52.6 242.7 78.5-108.8 124.7-242.4 124.7-386.8 0-140.1-43.5-270-117.8-377z"/></g></svg>