<svg xmlns="http://www.w3.org/2000/svg" width="2048" height="2048" viewBox="0 0 2048 2048"><g><circle fill="#fff" cx="1024.5" cy="1026.8" r="970"/><ellipse stroke="#F8973A" stroke-width="35" stroke-miterlimit="10" cx="1024.5" cy="1026.8" rx="969" ry="969.4" fill="none"/><linearGradient id="a" gradientUnits="userSpaceOnUse" x1="1024.499" y1="129.641" x2="1024.499" y2="1924.042"><stop offset="0" stop-color="#5DC8ED"/><stop offset="1" stop-color="#3C99D4"/></linearGradient><circle fill="url(#a)" cx="1024.5" cy="1026.8" r="897.2"/></g><g fill="#fff"><path d="M1268.6 1461.7c0-222-6-743.1-6-743.1s-140-22.2-158-46.1-55.1-91.4-49-113.9c2.8-10.4 90.6-70.2 106.4-72 16.9-2 106.6 48 106.6 48l5.9-58.5 82.1 6.5-4 65s198-1 216 2 105.9 69.2 102.5 84.1-75.5 92.9-111.5 92.9l-213 4c5.9 550.5 2.7 656 7 731.1-31.1 1.4-85 0-85 0zM628.7 836.3c-17.5 1.2-34.5 2.8-50.8 4.8-8.3 11.6-44.2 63.7-47.9 98.1l-19.9-2.1c3.3-30.3 26.3-69.7 41.1-92.3-24 3.7-46.1 8.3-65.6 13.9-70.5 64.5-121.4 507 13.9 576 3.4 1.5 12.6 3.5 26.2 5.6l-7.7-26.9 19.2-5.5 10.1 35.6c18.9 2.6 42.4 5.4 68.8 8.2-58.1-149.7-108.4-335.8 12.6-615.4zm-131.6 172l18.8 6.8c-.1.4-13.1 36.7-16 63.6l-19.9-2.1c3.2-29.4 16.5-66.7 17.1-68.3zm-17 136.8l19.8 3c-.1.4-5.7 37.7-.1 67.1l-19.6 3.7c-6.3-32.7-.3-72.1-.1-73.8zm16.5 199.4c-3-20.7-8.2-55.1-8.2-55.4l19.8-3c.1.3 5.3 34.8 8.3 55.6l-19.9 2.8zM1156 926.1c-37.9-30.2-103.3-53.1-180.3-68.6 6-33 6.5-81.3-30.6-112.2-60.7-50.7-223.3-50.7-250-17.3-19.2 23.9-13.2 77.5-8.3 105.7-6.8.1-13.5.3-20.1.6-61 135.4-85.9 259.4-76.1 378.5 7.6 92.7 35.4 172 63.5 242.7 155.6 15.1 378 28.5 425.3 10.9 61.6-33.8 186.9-376.8 76.6-540.3zm-408.8-161.5c15.3-13.3 129.3 4 154.7 20.7 13.9 9.1 14.2 37.7 11.6 61.6-54-7.7-111.3-12.1-167.3-13.2-4.6-26.7-8.1-61.1 1-69.1z"/></g></svg>